<svg width="250" height="260" viewBox="0 0 250 260" fill="none" xmlns="http://www.w3.org/2000/svg">
<mask id="mask0_532_851" style="mask-type:luminance" maskUnits="userSpaceOnUse" x="0" y="0" width="250" height="260">
<path d="M250 0H0V259.036H250V0Z" fill="white"/>
</mask>
<g mask="url(#mask0_532_851)">
<path d="M57.249 25.8703C105.716 0.0938816 170.649 26.881 204.485 56.5664C214.15 65.047 237.59 86.2117 243.126 120.127C250 162.256 227.497 213.32 175.884 235.161C119.705 258.936 56.8942 236.406 27.4899 199.833C-1.38283e-05 165.629 5.502 125.348 7.46987 110.964C9.7791 94.0832 16.6399 47.4767 57.2423 25.877" fill="#DADAFF"/>
<path d="M164.029 46.8409C164.029 29.7324 177.905 15.8569 195.013 15.8569C212.122 15.8569 225.997 29.7257 225.997 46.8409C225.997 63.956 212.122 77.8248 195.013 77.8248C177.905 77.8248 164.029 63.9493 164.029 46.8409Z" fill="#8483CF"/>
<path d="M170.127 46.8408C170.127 33.0992 181.272 21.9546 195.013 21.9546C208.755 21.9546 219.9 33.0925 219.9 46.8408C219.9 60.5891 208.755 71.727 195.013 71.727C181.272 71.727 170.127 60.5891 170.127 46.8408Z" fill="white"/>
<path d="M175.87 46.8409C175.87 36.2719 184.438 27.6976 195.013 27.6976C205.589 27.6976 214.157 36.2652 214.157 46.8409C214.157 57.4165 205.589 65.9841 195.013 65.9841C184.438 65.9841 175.87 57.4165 175.87 46.8409Z" fill="#8483CF"/>
<path d="M182.651 46.8408C182.651 40.0135 188.186 34.4847 195.013 34.4847C201.841 34.4847 207.376 40.0202 207.376 46.8408C207.376 53.6615 201.841 59.2036 195.013 59.2036C188.186 59.2036 182.651 53.6681 182.651 46.8408Z" fill="white"/>
<path d="M188.266 46.841C188.266 43.1127 191.292 40.094 195.013 40.094C198.735 40.094 201.76 43.1127 201.76 46.841C201.76 50.5692 198.742 53.5947 195.013 53.5947C191.285 53.5947 188.266 50.5759 188.266 46.841Z" fill="#2F294B"/>
<path d="M166.74 34.5784C166.68 34.5784 166.62 34.565 166.56 34.5383C166.345 34.4446 166.245 34.1835 166.345 33.9693C169.545 26.8609 175.234 21.2116 182.369 18.0724C182.59 17.9787 182.845 18.0724 182.938 18.2933C183.032 18.5142 182.938 18.7685 182.718 18.8622C175.776 21.9144 170.241 27.4031 167.129 34.3241C167.055 34.4847 166.901 34.5784 166.734 34.5784" fill="#2F294B"/>
<path d="M176.734 52.9654C176.546 52.9654 176.379 52.8449 176.319 52.6642C175.736 50.79 175.442 48.8288 175.442 46.8476C175.442 46.6066 175.636 46.4192 175.877 46.4192C176.118 46.4192 176.305 46.6133 176.305 46.8476C176.305 48.7418 176.586 50.616 177.149 52.4098C177.222 52.6374 177.095 52.8784 176.867 52.952C176.827 52.9654 176.78 52.9721 176.74 52.9721" fill="#2F294B"/>
<path d="M213.768 43.4138C213.568 43.4138 213.387 43.2732 213.347 43.0724C212.497 38.9158 210.214 35.1273 206.914 32.403C206.734 32.2491 206.707 31.9814 206.854 31.7939C207.008 31.6132 207.276 31.5864 207.463 31.7337C210.91 34.5784 213.3 38.5409 214.19 42.8917C214.237 43.1259 214.09 43.3535 213.855 43.4004C213.829 43.4004 213.795 43.4071 213.768 43.4071" fill="#2F294B"/>
<path d="M175.87 47.2759C175.629 47.2759 175.442 47.0818 175.442 46.8475C175.442 36.0577 184.224 27.2759 195.013 27.2759C197.055 27.2759 199.063 27.5905 200.984 28.2063C201.212 28.2799 201.339 28.5209 201.265 28.7484C201.191 28.976 200.95 29.1032 200.723 29.0296C198.882 28.4405 196.961 28.146 195.013 28.146C184.699 28.146 176.299 36.5396 176.299 46.8542C176.299 47.0952 176.104 47.2826 175.87 47.2826" fill="#2F294B"/>
<path d="M244.096 57.0552C230.83 59.8865 227.035 47.9923 209.13 57.0552V34.3979C222.45 30.2948 230.522 36.4394 244.096 34.3979L239.103 45.6161L244.096 57.0552Z" fill="#2F294B"/>
<path d="M208.708 90.6763H208.106C207.631 90.6763 207.242 90.2881 207.242 89.8128V33.106C207.242 32.6308 207.631 32.2426 208.106 32.2426H208.708C209.183 32.2426 209.572 32.6308 209.572 33.106V89.8195C209.572 90.2948 209.183 90.683 208.708 90.683" fill="black"/>
<path d="M196.653 250.014H183.327V86.1916L196.519 85.2612L196.653 250.014Z" fill="white"/>
<path d="M196.653 250.449H183.327C183.086 250.449 182.898 250.255 182.898 250.014V86.1916C182.898 85.9641 183.072 85.7767 183.3 85.7633L196.493 84.8329C196.606 84.8262 196.727 84.8663 196.814 84.9467C196.901 85.027 196.954 85.1408 196.954 85.2613L197.088 250.02C197.088 250.134 197.042 250.248 196.961 250.328C196.881 250.408 196.767 250.455 196.653 250.455M183.755 249.592H196.218L196.084 85.7298L183.755 86.5999V249.592Z" fill="black"/>
<path d="M232.396 250.014H196.653C196.58 250.014 196.519 249.933 196.519 249.826V85.4554C196.519 85.3483 196.586 85.2679 196.66 85.2679L232.403 87.1555C232.47 87.1555 232.53 87.2425 232.53 87.3429V249.833C232.53 249.933 232.47 250.02 232.396 250.02" fill="#8483CF"/>
<path d="M232.396 250.449H196.66C196.339 250.449 196.098 250.181 196.098 249.833V85.4553C196.098 85.2746 196.165 85.1006 196.292 84.9868C196.399 84.8864 196.546 84.8329 196.693 84.8395L232.43 86.7271C232.731 86.7405 232.965 87.0149 232.965 87.3429V249.833C232.965 250.181 232.718 250.449 232.396 250.449ZM196.954 249.585H232.095V87.5705L196.954 85.7164V249.585Z" fill="black"/>
<path d="M220.663 164.565C220.422 164.565 220.228 164.371 220.228 164.13V97.604C220.228 97.3631 220.422 97.1689 220.663 97.1689C220.904 97.1689 221.091 97.3631 221.091 97.604V164.13C221.091 164.371 220.897 164.565 220.663 164.565Z" fill="#DADAFF"/>
<path d="M209.357 140.857C209.116 140.857 208.922 140.663 208.922 140.429V120.803C208.922 120.563 209.116 120.368 209.357 120.368C209.598 120.368 209.786 120.563 209.786 120.803V140.429C209.786 140.67 209.592 140.857 209.357 140.857Z" fill="#DADAFF"/>
<path d="M209.357 208.153C209.116 208.153 208.922 207.959 208.922 207.718V173.849C208.922 173.608 209.116 173.42 209.357 173.42C209.598 173.42 209.786 173.615 209.786 173.849V207.718C209.786 207.959 209.592 208.153 209.357 208.153Z" fill="#DADAFF"/>
<path d="M151.707 250.034H138.44V127.731L151.64 123.561L151.707 250.034Z" fill="white"/>
<path d="M151.707 250.462H138.44C138.199 250.462 138.012 250.268 138.012 250.034V127.731C138.012 127.544 138.133 127.376 138.313 127.323L151.506 123.153C151.64 123.112 151.78 123.133 151.894 123.213C152.008 123.293 152.068 123.42 152.068 123.561L152.142 250.034C152.142 250.147 152.095 250.254 152.015 250.341C151.934 250.422 151.821 250.469 151.707 250.469M138.869 249.605H151.272L151.198 124.157L138.869 128.052V249.605Z" fill="black"/>
<path d="M187.51 250.034H151.774C151.7 250.034 151.64 249.967 151.64 249.893V123.708C151.64 123.628 151.7 123.561 151.774 123.568L187.517 125.014C187.59 125.014 187.644 125.081 187.644 125.154V249.886C187.644 249.967 187.584 250.027 187.51 250.027" fill="#8483CF"/>
<path d="M187.51 250.462H151.774C151.466 250.462 151.212 250.208 151.212 249.886V123.708C151.212 123.548 151.278 123.4 151.386 123.293C151.493 123.186 151.647 123.126 151.794 123.139L187.53 124.592C187.838 124.605 188.072 124.853 188.072 125.161V249.893C188.072 250.208 187.818 250.469 187.51 250.469M152.068 249.605H187.209V125.435L152.068 124.009V249.598V249.605Z" fill="black"/>
<path d="M169.652 189.786C169.411 189.786 169.217 189.592 169.217 189.351V133.327C169.217 133.086 169.411 132.898 169.652 132.898C169.893 132.898 170.087 133.093 170.087 133.327V189.351C170.087 189.592 169.893 189.786 169.652 189.786Z" fill="#DADAFF"/>
<path d="M160.214 152.042C159.973 152.042 159.786 151.848 159.786 151.607V142.055C159.786 141.814 159.98 141.627 160.214 141.627C160.448 141.627 160.649 141.821 160.649 142.055V151.607C160.649 151.848 160.455 152.042 160.214 152.042Z" fill="#DADAFF"/>
<path d="M160.214 215.402C159.973 215.402 159.786 215.208 159.786 214.967V167.403C159.786 167.162 159.98 166.975 160.214 166.975C160.448 166.975 160.649 167.169 160.649 167.403V214.967C160.649 215.208 160.455 215.402 160.214 215.402Z" fill="#DADAFF"/>
<path d="M179.083 170.87C178.842 170.87 178.648 170.676 178.648 170.435V160.884C178.648 160.643 178.842 160.455 179.083 160.455C179.324 160.455 179.518 160.649 179.518 160.884V170.435C179.518 170.676 179.324 170.87 179.083 170.87Z" fill="#DADAFF"/>
<path d="M107.082 250.033H93.8822V179.739L107.082 176.847V250.033Z" fill="white"/>
<path d="M107.082 250.462H93.8889C93.6479 250.462 93.4538 250.268 93.4538 250.034V179.739C93.4538 179.538 93.5944 179.358 93.7952 179.318L106.988 176.426C107.115 176.399 107.249 176.426 107.349 176.513C107.45 176.593 107.51 176.72 107.51 176.848V250.034C107.51 250.275 107.316 250.462 107.075 250.462M94.3106 249.599H106.647V177.383L94.3106 180.087V249.605V249.599Z" fill="black"/>
<path d="M143.086 250.034H107.082V177.001C107.082 176.914 107.149 176.848 107.236 176.854L143.092 178.059V250.04" fill="#8483CF"/>
<path d="M143.514 250.462H106.647V176.995C106.647 176.841 106.714 176.687 106.821 176.58C106.934 176.473 107.082 176.413 107.242 176.419L143.514 177.637V250.469M107.51 249.605H142.651V178.474L107.51 177.296V249.605Z" fill="black"/>
<path d="M116.653 229.626C116.412 229.626 116.218 229.431 116.218 229.19V185.589C116.218 185.348 116.412 185.154 116.653 185.154C116.894 185.154 117.082 185.348 117.082 185.589V229.19C117.082 229.431 116.888 229.626 116.653 229.626Z" fill="#DADAFF"/>
<path d="M135.522 234.726C135.281 234.726 135.087 234.532 135.087 234.291V190.69C135.087 190.449 135.281 190.261 135.522 190.261C135.763 190.261 135.957 190.455 135.957 190.69V234.291C135.957 234.532 135.763 234.726 135.522 234.726Z" fill="#DADAFF"/>
<path d="M126.084 217.644C125.843 217.644 125.649 217.45 125.649 217.209V208.287C125.649 208.046 125.843 207.852 126.084 207.852C126.325 207.852 126.519 208.046 126.519 208.287V217.209C126.519 217.45 126.325 217.644 126.084 217.644Z" fill="#DADAFF"/>
<path d="M62.7042 250.034H49.3842V215.168L62.577 212.571L62.7042 250.034Z" fill="white"/>
<path d="M62.7042 250.462H49.3842C49.1433 250.462 48.9558 250.268 48.9558 250.034V215.168C48.9558 214.96 49.1031 214.786 49.3039 214.746L62.4967 212.142C62.6238 212.115 62.751 212.149 62.8514 212.229C62.9518 212.309 63.0121 212.43 63.0121 212.564L63.1392 250.027C63.1392 250.141 63.0924 250.248 63.0121 250.335C62.9317 250.415 62.818 250.462 62.7042 250.462ZM49.8126 249.599H62.2691L62.1486 213.093L49.8126 215.522V249.599Z" fill="black"/>
<path d="M98.4605 250.034H62.7041C62.6372 250.034 62.577 249.98 62.577 249.907V212.698C62.577 212.624 62.6372 212.571 62.7041 212.571L98.4605 213.153C98.5274 213.153 98.581 213.213 98.581 213.28V249.907C98.581 249.974 98.5274 250.034 98.4538 250.034" fill="#8483CF"/>
<path d="M98.4605 250.462H62.7041C62.3962 250.462 62.1486 250.214 62.1486 249.907V212.698C62.1486 212.544 62.2088 212.403 62.3159 212.296C62.423 212.189 62.5636 212.135 62.7175 212.135L98.4739 212.718C98.7751 212.718 99.0227 212.972 99.0227 213.273V249.9C99.0227 250.208 98.7751 250.455 98.4672 250.455M63.0187 249.592H98.1593V213.568L63.0187 212.992V249.585V249.592Z" fill="black"/>
<path d="M87.7041 241.613C87.4632 241.613 87.2691 241.419 87.2691 241.185V219.003C87.2691 218.762 87.4632 218.568 87.7041 218.568C87.9451 218.568 88.1325 218.762 88.1325 219.003V241.185C88.1325 241.426 87.9384 241.613 87.7041 241.613Z" fill="#DADAFF"/>
<path d="M76.3989 233.708C76.158 233.708 75.9639 233.514 75.9639 233.273V226.727C75.9639 226.486 76.158 226.299 76.3989 226.299C76.6399 226.299 76.8273 226.493 76.8273 226.727V233.273C76.8273 233.514 76.6332 233.708 76.3989 233.708Z" fill="#DADAFF"/>
<path d="M18.3133 250.034H4.99332V231.774L18.1861 229.552L18.3133 250.034Z" fill="white"/>
<path d="M18.3132 250.462H4.9933C4.75234 250.462 4.55823 250.268 4.55823 250.034V231.774C4.55823 231.566 4.71218 231.386 4.91967 231.345L18.1124 229.117C18.2396 229.096 18.3668 229.13 18.4605 229.21C18.5542 229.291 18.6145 229.411 18.6145 229.538L18.7416 250.02C18.7416 250.134 18.6948 250.248 18.6145 250.328C18.5341 250.408 18.4203 250.455 18.3066 250.455M5.41499 249.592H17.8782L17.7577 230.047L5.42168 232.129V249.592H5.41499Z" fill="black"/>
<path d="M54.0696 250.034H18.3132C18.2463 250.034 18.1861 250 18.1861 249.967V229.619C18.1861 229.579 18.2463 229.552 18.3132 229.552L54.0696 229.873C54.1365 229.873 54.1901 229.907 54.1901 229.94V249.967C54.1901 250.007 54.1365 250.034 54.0629 250.034" fill="#8483CF"/>
<path d="M54.0696 250.462H18.3133C17.9987 250.462 17.7577 250.241 17.7577 249.96V229.612C17.7577 229.485 17.8113 229.364 17.8983 229.27C18.0054 229.17 18.1593 229.11 18.32 229.11L54.0763 229.431C54.3909 229.431 54.6252 229.645 54.6252 229.933V249.96C54.6252 250.241 54.3775 250.462 54.0696 250.462ZM18.6212 249.598H53.7617V230.295L18.6212 229.98V249.598Z" fill="black"/>
<path d="M43.3133 245.623C43.0723 245.623 42.8849 245.429 42.8849 245.188V233.059C42.8849 232.818 43.079 232.624 43.3133 232.624C43.5475 232.624 43.7416 232.818 43.7416 233.059V245.188C43.7416 245.429 43.5475 245.623 43.3133 245.623Z" fill="#DADAFF"/>
<path d="M32.008 241.305C31.767 241.305 31.5729 241.111 31.5729 240.87V237.289C31.5729 237.048 31.767 236.854 32.008 236.854C32.249 236.854 32.4364 237.048 32.4364 237.289V240.87C32.4364 241.111 32.2423 241.305 32.008 241.305Z" fill="#DADAFF"/>
<path d="M57.5569 193.742L56.2516 205.308L61.178 207.356L62.9852 194.746L57.5569 193.742Z" fill="white"/>
<path d="M61.1781 207.791C61.1245 207.791 61.0643 207.778 61.0107 207.758L56.0911 205.71C55.9103 205.636 55.8099 205.455 55.83 205.261L57.1352 193.688C57.1486 193.568 57.2089 193.461 57.3093 193.387C57.403 193.313 57.5235 193.287 57.6439 193.307L63.0723 194.311C63.2999 194.351 63.4538 194.565 63.4204 194.799L61.6065 207.41C61.5864 207.544 61.5061 207.657 61.3923 207.724C61.3253 207.758 61.2517 207.778 61.1781 207.778M56.7202 205.02L60.83 206.734L62.5034 195.081L57.9384 194.237L56.7202 205.027V205.02Z" fill="black"/>
<path d="M55.1071 204.217C54.9531 205.315 54.6988 207.349 54.6787 209.17C54.6653 210.315 55.5288 211.278 56.66 211.426C59.8728 211.841 67.162 212.289 73.3668 211.727C73.7952 211.687 74.5448 211.379 74.7523 210.321C75.4551 206.76 69.257 205.884 62.4632 203.3C62.1954 203.199 61.8942 203.26 61.6934 203.461L60.9639 204.17C60.2276 204.88 59.1432 205.08 58.2062 204.679L55.9772 203.728C55.5957 203.568 55.1673 203.809 55.1138 204.217" fill="#8483CF"/>
<path d="M66.9076 212.43C62.7242 212.43 58.8219 212.142 56.6131 211.861C55.2543 211.687 54.2369 210.529 54.2503 209.17C54.2704 207.309 54.5314 205.234 54.6787 204.157C54.7255 203.829 54.9197 203.548 55.2075 203.38C55.4953 203.22 55.8367 203.2 56.1446 203.327L58.3735 204.277C59.1566 204.612 60.0535 204.445 60.6626 203.856L61.3989 203.146C61.7202 202.832 62.2021 202.738 62.6238 202.898C64.2035 203.501 65.7296 203.996 67.2021 204.485C72.008 206.058 75.7965 207.303 75.1874 210.409C74.9531 211.607 74.083 212.102 73.4203 212.162C71.3052 212.356 69.0696 212.43 66.9143 212.43M55.5421 204.277C55.3949 205.328 55.1405 207.363 55.1205 209.177C55.1071 210.101 55.8032 210.884 56.7269 210.998C60.0401 211.426 67.2021 211.854 73.34 211.299C73.4739 211.285 74.1566 211.178 74.344 210.234C74.7858 207.992 71.9612 206.948 66.9344 205.301C65.4551 204.813 63.9223 204.311 62.3159 203.702C62.2088 203.662 62.0816 203.682 61.9946 203.762L61.265 204.471C60.4016 205.308 59.1365 205.542 58.0388 205.067L55.8099 204.117C55.7363 204.083 55.6693 204.11 55.6359 204.123C55.6024 204.143 55.5488 204.184 55.5355 204.264L55.5421 204.277Z" fill="black"/>
<path d="M54.6854 208.896C54.6854 208.896 54.6854 209.083 54.6854 209.17C54.672 210.315 55.5355 211.279 56.6667 211.426C59.8795 211.841 67.1687 212.289 73.3735 211.727C73.8019 211.687 74.5515 211.379 74.759 210.321C74.826 209.993 74.7858 209.411 74.7858 209.411L74.344 209.431C68.0723 209.739 61.7804 209.592 55.5355 208.983L54.6921 208.902" fill="white"/>
<path d="M66.9076 212.43C62.7242 212.43 58.8219 212.142 56.6131 211.861C55.2543 211.687 54.2369 210.529 54.2503 209.17V208.896C54.257 208.775 54.3106 208.662 54.3976 208.581C54.4846 208.501 54.6051 208.461 54.7255 208.474L55.5689 208.555C61.7804 209.164 68.0857 209.311 74.3172 209.003L74.759 208.983C74.9933 208.963 75.1941 209.15 75.2142 209.385C75.2142 209.451 75.2543 210.04 75.1807 210.409C74.9464 211.607 74.0763 212.102 73.4136 212.162C71.2985 212.356 69.0629 212.43 66.9076 212.43ZM55.1205 209.378C55.2008 210.215 55.8567 210.897 56.7202 211.004C60.0334 211.433 67.1954 211.861 73.3333 211.306C73.4672 211.292 74.1499 211.185 74.3373 210.241C74.3574 210.148 74.3641 210.007 74.3641 209.866C68.0923 210.174 61.7403 210.02 55.4886 209.418L55.1205 209.385V209.378Z" fill="black"/>
<path d="M64.0295 207.577C63.9224 207.577 63.8086 207.537 63.7216 207.45C63.5542 207.283 63.5542 207.008 63.7216 206.841L66.1044 204.458C66.2718 204.291 66.5462 204.291 66.7135 204.458C66.8809 204.625 66.8809 204.9 66.7135 205.067L64.3307 207.45C64.2437 207.537 64.1366 207.577 64.0228 207.577" fill="black"/>
<path d="M66.3721 207.825C66.2651 207.825 66.158 207.785 66.0709 207.704C65.8969 207.537 65.8902 207.263 66.0576 207.095L67.9652 205.114C68.1325 204.94 68.4003 204.94 68.5743 205.101C68.7483 205.268 68.7483 205.542 68.5877 205.71L66.68 207.691C66.593 207.778 66.4792 207.825 66.3721 207.825Z" fill="black"/>
<path d="M75.4351 117.49C75.4351 117.49 72.4364 119.23 71.2717 129.424C70.1004 139.619 70.4953 151.633 62.3494 163.554C55.8434 173.072 56.419 189.137 55.4752 199.665C55.4284 200.174 55.8233 200.616 56.332 200.629L62.5636 200.843C62.9585 200.857 63.3199 200.609 63.4404 200.228C64.5515 196.781 70.0937 180.134 76.3186 170.482C82.8982 160.281 90.8969 133.809 90.8969 133.809C90.8969 133.809 89.411 127.115 89.2035 120.703C88.996 114.291 75.4351 117.49 75.4351 117.49Z" fill="black"/>
<path d="M112.149 159.418L109.518 170.763L114.17 173.36L117.423 161.038L112.149 159.418Z" fill="white"/>
<path d="M114.17 173.795C114.096 173.795 114.023 173.775 113.963 173.742L109.311 171.138C109.143 171.044 109.056 170.85 109.103 170.663L111.734 159.317C111.76 159.204 111.834 159.103 111.934 159.043C112.042 158.983 112.162 158.969 112.276 159.003L117.55 160.629C117.771 160.696 117.898 160.93 117.838 161.151L114.585 173.474C114.552 173.601 114.458 173.708 114.337 173.762C114.284 173.782 114.224 173.795 114.17 173.795ZM110.013 170.542L113.896 172.711L116.901 161.325L112.463 159.96L110.013 170.536V170.542Z" fill="black"/>
<path d="M108.956 170.087C108.802 171.185 107.818 173.266 107.798 175.087C107.784 176.232 108.648 177.196 109.779 177.343C112.992 177.758 121.017 178.159 127.222 177.597C127.644 177.557 128.4 177.249 128.608 176.185C129.311 172.624 123.112 171.747 116.319 169.163C116.051 169.063 115.75 169.123 115.549 169.324L114.819 170.034C114.083 170.743 112.999 170.944 112.062 170.542L109.833 169.592C109.451 169.431 109.023 169.672 108.963 170.08" fill="#8483CF"/>
<path d="M120.268 178.307C116.064 178.307 111.981 178.066 109.726 177.771C108.367 177.597 107.349 176.439 107.363 175.081C107.376 173.869 107.791 172.564 108.119 171.513C108.307 170.91 108.474 170.395 108.527 170.027C108.574 169.699 108.768 169.418 109.056 169.251C109.344 169.09 109.685 169.07 109.993 169.197L112.222 170.147C113.005 170.482 113.902 170.315 114.511 169.726L115.241 169.016C115.562 168.702 116.044 168.608 116.466 168.769C118.046 169.371 119.572 169.873 121.044 170.355C125.85 171.928 129.639 173.173 129.029 176.279C128.795 177.477 127.925 177.972 127.262 178.032C125.107 178.226 122.664 178.307 120.268 178.307ZM109.384 170.147C109.324 170.589 109.15 171.138 108.949 171.774C108.635 172.765 108.24 174.003 108.233 175.087C108.22 176.011 108.916 176.794 109.839 176.908C112.751 177.283 120.83 177.738 127.189 177.162C127.323 177.149 128.005 177.042 128.193 176.098C128.635 173.856 125.81 172.811 120.783 171.165C119.304 170.676 117.771 170.174 116.165 169.565C116.051 169.525 115.93 169.545 115.843 169.632L115.107 170.342C114.244 171.172 112.979 171.406 111.881 170.937L109.652 169.987C109.578 169.953 109.511 169.98 109.478 170C109.444 170.02 109.391 170.06 109.378 170.141L109.384 170.147Z" fill="black"/>
<path d="M107.972 174.739C107.972 174.739 107.972 174.927 107.972 175.014C107.959 176.158 108.822 177.122 109.953 177.269C113.166 177.684 121.017 178.166 127.229 177.604C127.651 177.564 128.407 177.256 128.614 176.192C128.681 175.864 128.641 175.281 128.641 175.281L128.199 175.302C121.928 175.609 115.636 175.462 109.384 174.853L107.972 174.739Z" fill="white"/>
<path d="M120.863 178.293C116.205 178.293 111.847 177.952 109.893 177.698C108.534 177.523 107.517 176.366 107.53 175.007V174.732C107.537 174.612 107.59 174.498 107.677 174.418C107.764 174.337 107.885 174.297 108.005 174.311L109.418 174.424C115.636 175.034 121.941 175.181 128.173 174.873L128.614 174.853C128.849 174.839 129.05 175.02 129.063 175.254C129.063 175.321 129.103 175.91 129.029 176.278C128.795 177.477 127.925 177.972 127.262 178.032C125.201 178.22 122.999 178.293 120.863 178.293ZM108.407 175.208C108.487 176.044 109.143 176.734 110.007 176.841C112.818 177.202 120.723 177.758 127.189 177.169C127.323 177.155 128.005 177.048 128.193 176.104C128.213 176.011 128.22 175.87 128.22 175.73C121.948 176.038 115.596 175.884 109.344 175.281L108.407 175.208Z" fill="black"/>
<path d="M117.878 173.454C117.764 173.454 117.657 173.414 117.57 173.327C117.403 173.159 117.403 172.885 117.57 172.718L119.953 170.335C120.12 170.167 120.395 170.167 120.562 170.335C120.73 170.502 120.73 170.777 120.562 170.944L118.179 173.327C118.092 173.414 117.985 173.454 117.871 173.454" fill="black"/>
<path d="M120.221 173.701C120.114 173.701 120.007 173.661 119.92 173.581C119.746 173.414 119.746 173.139 119.906 172.972L121.814 170.991C121.981 170.817 122.256 170.817 122.423 170.977C122.597 171.145 122.604 171.419 122.436 171.586L120.529 173.568C120.442 173.655 120.328 173.701 120.221 173.701Z" fill="black"/>
<path d="M87.4431 135.603C87.4431 135.603 101.452 134.505 117.082 126.111C117.544 125.864 117.838 126.627 117.564 127.069C116.774 128.314 116.359 130.181 115.187 133.367C113.742 137.289 110.689 157.577 109.685 163.896C109.598 164.465 110.027 164.987 110.602 165.007L116.613 165.201C116.995 165.214 117.343 165 117.51 164.659C119.679 160.141 133.842 124.585 133.3 117.959C132.718 110.797 124.538 111.279 121.131 111.058C117.604 110.83 85.6292 116.808 85.6292 116.808L87.4498 135.603" fill="black"/>
<path d="M44.8394 125.147C45.3213 124.572 45.9505 123.896 46.4926 123.36C47.1888 122.671 49.5114 118.146 49.5114 118.146L53.5743 119.297C53.5743 119.297 51.6734 122.624 52.1285 124.277C52.5502 125.817 52.8916 129.076 50.6292 131.446C50.3681 131.72 49.8059 131.794 49.6051 131.74C49.0161 131.6 49.0027 130.783 49.2905 130.254L50.1071 128.755C50.1807 128.621 50.0669 128.467 49.9197 128.487C49.3106 128.574 47.9719 128.963 46.5663 130.696C45.4886 132.028 43.3467 135 42.6238 134.511C41.3387 133.635 42.1754 128.307 44.8327 125.147" fill="white"/>
<path d="M42.8113 135C42.6573 135 42.5168 134.953 42.3829 134.866C41.9947 134.605 41.747 134.103 41.6533 133.38C41.3655 131.265 42.3695 127.41 44.5047 124.866C44.9933 124.284 45.6225 123.608 46.1848 123.052C46.6533 122.584 48.2396 119.679 49.1232 117.952C49.2169 117.771 49.4244 117.678 49.6252 117.731L53.6881 118.882C53.8153 118.922 53.9224 119.01 53.9692 119.137C54.0161 119.257 54.0094 119.398 53.9425 119.512C53.4404 120.395 52.2022 122.945 52.5368 124.163C53.1459 126.372 53.0455 129.525 50.9371 131.74C50.5422 132.155 49.8059 132.236 49.5047 132.162C49.1834 132.088 48.9291 131.874 48.7952 131.573C48.6011 131.138 48.6479 130.542 48.9157 130.054L49.4645 129.043C48.8421 129.25 47.8983 129.752 46.9077 130.971C46.747 131.165 46.5663 131.399 46.3655 131.653C44.8126 133.635 43.668 135 42.818 135M45.1674 125.422C43.2463 127.711 42.2423 131.319 42.5101 133.26C42.5703 133.682 42.6908 133.996 42.8447 134.13C43.3869 134.043 44.9933 132.001 45.6828 131.118C45.8836 130.864 46.071 130.623 46.2316 130.422C47.7042 128.601 49.1366 128.159 49.8595 128.059C50.0937 128.026 50.3146 128.126 50.4485 128.313C50.5824 128.507 50.5957 128.755 50.4819 128.956L49.6653 130.455C49.5315 130.696 49.4913 131.031 49.5783 131.212C49.6118 131.285 49.652 131.305 49.6988 131.319C49.8193 131.339 50.1941 131.272 50.3079 131.145C52.7109 128.621 51.8876 125.074 51.7002 124.391C51.3052 122.952 52.3896 120.603 52.9251 119.565L49.7189 118.655C49.15 119.752 47.4164 123.032 46.7805 123.661C46.245 124.19 45.6225 124.866 45.154 125.415L45.1674 125.422Z" fill="black"/>
<path d="M142.276 74.0565L139.652 69.6254C139.217 68.8959 137.858 68.675 137.182 69.1837C122.336 80.2479 106.546 75.7366 104.103 75.1542C98.0522 73.7151 95 73.4943 90.2209 73.1997C83.2263 72.7781 73.1727 76.8142 66.399 83.588C61.0174 88.9695 51.8273 106.433 47.664 118.568C47.49 119.077 47.7109 119.639 48.1928 119.886L52.3695 122.055C52.8983 122.33 53.5476 122.129 53.8287 121.6C55.9572 117.597 65.1674 100.978 74.8126 95.4956C75.5221 95.094 76.5864 95.5224 76.5462 96.3323C76.419 98.8892 74.8327 108.354 74.3508 117.122C74.2838 118.28 75.087 119.304 76.2249 119.518L80.4418 120.301C87.7979 122.015 94.6988 120.107 97.7376 119.023C98.668 118.688 99.1165 117.791 99.2638 116.814C99.498 115.194 102.764 102.189 108.715 93.588C109.465 92.5036 110.602 91.754 111.914 91.6803C117.222 91.3724 132.336 89.2506 142.202 75.422C142.49 75.0204 142.517 74.4849 142.269 74.0565" fill="#2F294B"/>
<path d="M138.661 70.9574C138.608 70.6294 138.722 70.2947 138.976 70.0805C139.311 69.7927 139.88 69.3041 140.703 68.5879C142.155 67.3161 143.976 64.7793 145.556 64.023C147.142 63.2599 152.878 61.0176 153.802 61.4928C154.719 61.9681 154.264 63.0457 152.958 63.6749C151.653 64.3041 149.96 64.9466 149.96 64.9466C149.96 64.9466 150.91 64.8931 151.606 65.9908C152.309 67.0885 151.339 67.5303 151.747 68.0725C152.269 68.7686 152.115 69.5718 151.7 69.9266C150.75 70.7365 149.605 69.1367 148.748 70.79C148.153 71.9346 146.747 72.6843 143.896 73.2264C143.133 73.3737 142.403 73.6682 141.74 74.0765C141.466 74.2505 141.124 74.2639 140.843 74.1033C140.161 73.7217 138.983 72.8047 138.668 70.9574" fill="white"/>
<path d="M141.265 74.6455C141.044 74.6455 140.823 74.592 140.629 74.4782C139.886 74.0565 138.581 73.0525 138.24 71.031C138.159 70.5558 138.333 70.0605 138.701 69.7526C139.036 69.4648 139.605 68.9829 140.422 68.26C140.93 67.8115 141.493 67.2024 142.082 66.5531C143.166 65.3684 144.284 64.1502 145.368 63.6281C145.442 63.5946 152.651 60.4086 153.996 61.1047C154.458 61.3456 154.719 61.7472 154.712 62.2024C154.699 62.8851 154.103 63.5946 153.146 64.0565C152.503 64.3644 151.774 64.679 151.185 64.9132C151.452 65.1007 151.727 65.3617 151.968 65.7432C152.483 66.5531 152.276 67.1221 152.142 67.5036C152.055 67.7513 152.062 67.7646 152.088 67.7981C152.758 68.6817 152.55 69.7526 151.975 70.2412C151.412 70.7232 150.783 70.5893 150.321 70.4956C149.752 70.3751 149.465 70.3148 149.123 70.9708C148.447 72.276 146.901 73.0725 143.963 73.6348C143.26 73.7687 142.584 74.0364 141.954 74.4313C141.74 74.5652 141.493 74.6321 141.252 74.6321M153.374 61.8276C152.155 61.8276 147.61 63.4942 145.736 64.3912C144.799 64.8396 143.742 65.9976 142.711 67.1221C142.102 67.7847 141.526 68.4139 140.977 68.8958C140.154 69.6187 139.578 70.1074 139.244 70.3952C139.11 70.509 139.043 70.6897 139.076 70.8771C139.357 72.5438 140.422 73.3737 141.037 73.7151C141.178 73.7954 141.352 73.7887 141.499 73.7017C142.222 73.2533 142.992 72.9454 143.802 72.7914C146.452 72.2827 147.811 71.6201 148.36 70.5759C149.003 69.3376 149.906 69.525 150.502 69.6522C150.944 69.7459 151.185 69.7794 151.419 69.5853C151.66 69.3845 151.787 68.8289 151.399 68.3202C151.084 67.9052 151.232 67.4902 151.332 67.2158C151.446 66.9079 151.533 66.6602 151.245 66.2118C150.696 65.355 149.987 65.3684 149.987 65.3684C149.772 65.3818 149.585 65.2345 149.538 65.027C149.491 64.8195 149.605 64.612 149.806 64.5317C149.826 64.525 151.499 63.8891 152.771 63.2734C153.507 62.9186 153.842 62.4634 153.849 62.1823C153.849 62.1288 153.849 61.9949 153.601 61.8677C153.548 61.8476 153.474 61.8343 153.38 61.8343L153.374 61.8276Z" fill="black"/>
<path d="M100.288 61.1984L92.4364 74.2104C92.3293 74.3577 91.178 74.3175 89.8728 74.4514C89.2637 74.5116 88.6345 74.6053 88.1057 74.6923C87.6707 74.7593 87.5502 75.3282 87.9183 75.5692L89.324 76.4996C92.2691 78.4541 95.7697 79.4581 99.2972 79.2238C100.274 79.1569 101.218 78.9962 102.055 78.7419L105.067 77.7981C105.515 77.6575 105.515 77.015 105.067 76.8811L101.238 75.7231L104.471 68.8624L100.301 61.2117" fill="white"/>
<path d="M98.2865 79.6923C95.0937 79.6923 91.8608 78.7083 89.083 76.8609L87.6774 75.9305C87.3628 75.723 87.2088 75.3482 87.2892 74.9801C87.3695 74.6119 87.664 74.3308 88.0388 74.2706C88.7015 74.1635 89.3106 74.0831 89.8327 74.0296C90.3748 73.9761 90.8902 73.9493 91.3052 73.9292C91.6198 73.9158 91.9679 73.8957 92.1419 73.869L99.9197 60.9774C100 60.8435 100.147 60.7699 100.301 60.7699C100.455 60.7699 100.596 60.8569 100.669 60.9975L104.839 68.6481C104.906 68.7686 104.913 68.9158 104.853 69.0363L101.834 75.4486L105.187 76.466C105.576 76.5798 105.837 76.9346 105.837 77.3362C105.837 77.7378 105.582 78.0925 105.194 78.213L102.189 79.1568C101.345 79.4178 100.388 79.5919 99.3374 79.6588C98.996 79.6856 98.6479 79.6923 98.2999 79.6923M100.281 62.0684L92.8179 74.4379C92.8179 74.4379 92.8046 74.458 92.7979 74.4647C92.6105 74.719 92.2959 74.7391 91.3588 74.786C90.9505 74.806 90.4485 74.8328 89.9264 74.8864C89.4177 74.9399 88.8354 75.0202 88.1861 75.1206C88.1727 75.1206 88.1526 75.1206 88.1459 75.1608C88.1392 75.1943 88.1593 75.2077 88.166 75.2143L89.5716 76.1447C92.4967 78.0791 95.9438 79.0229 99.2771 78.7953C100.261 78.7284 101.158 78.5744 101.934 78.3268L104.94 77.383C104.94 77.383 104.973 77.3763 104.973 77.3362C104.973 77.296 104.953 77.296 104.94 77.2893L101.111 76.1247C100.991 76.0912 100.89 76.0042 100.843 75.8837C100.79 75.7699 100.797 75.636 100.843 75.5222L103.983 68.8556L100.274 62.055L100.281 62.0684Z" fill="black"/>
<path d="M103.795 69.1167C104.21 69.1702 104.632 69.1903 105.067 69.1635L105.843 69.1234C105.843 69.1234 110.288 68.5344 111.004 67.4299C111.714 66.3255 110.207 62.3229 110.207 62.3229C110.897 61.7874 111.051 61.1113 110.904 60.8838C110.756 60.6562 109.766 60.3081 109.364 60.0136C109.036 59.7727 108.3 57.8583 107.985 57.035C107.985 57.035 107.403 53.7887 102.189 54.2104C90.2477 55.1743 98.8353 66.2251 98.8353 66.2251C99.0228 66.4393 99.2102 66.6468 99.4043 66.8409L103.795 69.11" fill="white"/>
<path d="M104.692 69.6052C104.016 69.6052 103.353 69.5182 102.718 69.3375C102.49 69.2772 102.356 69.0363 102.416 68.8087C102.483 68.5811 102.718 68.4472 102.945 68.5075C103.621 68.6949 104.324 68.7752 105.04 68.7351L105.797 68.6949C107.564 68.4606 110.221 67.8381 110.636 67.1956C111.044 66.5597 110.395 64.0563 109.799 62.4767C109.732 62.3027 109.786 62.1019 109.94 61.9814C110.382 61.64 110.509 61.2652 110.515 61.1179C110.402 61.0376 110.127 60.9104 109.94 60.8167C109.632 60.6695 109.317 60.5155 109.103 60.3616C108.782 60.1273 108.387 59.2973 107.577 57.1889C107.57 57.1621 107.557 57.1353 107.557 57.1086C107.537 56.9948 106.948 54.2505 102.222 54.6387C99.3173 54.8729 97.4699 55.7029 96.7336 57.0952C95.4819 59.458 97.5033 63.0456 98.7149 65.1808L98.822 65.3749C98.9424 65.5824 98.8688 65.8435 98.6613 65.964C98.4538 66.0845 98.1928 66.0108 98.0723 65.8033L97.9652 65.6092C96.6667 63.3134 94.498 59.478 95.9706 56.6936C96.8541 55.0269 98.9357 54.043 102.155 53.7819C107.323 53.3669 108.286 56.466 108.4 56.9144C109.19 58.976 109.505 59.5583 109.632 59.6855C109.766 59.7859 110.06 59.9265 110.315 60.047C110.823 60.2879 111.124 60.4419 111.265 60.6561C111.526 61.0577 111.372 61.8207 110.716 62.4566C111.104 63.5476 112.082 66.5597 111.365 67.6641C110.582 68.8756 106.673 69.4446 105.897 69.5517C105.884 69.5517 105.87 69.5517 105.863 69.5517L105.087 69.5918C104.953 69.5985 104.819 69.6052 104.692 69.6052Z" fill="black"/>
<path d="M99.7523 52.8048C101.058 52.5504 102.537 52.7512 103.173 52.537C104.197 52.189 104.17 51.0109 105.616 50.8971C106.888 50.7967 108.066 51.031 108.701 52.0015C108.809 52.1622 108.902 52.3429 108.976 52.5504C109.973 55.2947 108.594 56.62 107.985 57.0484C107.985 57.0484 104.116 58.9092 103.454 59.438C102.831 59.94 102.095 61.1247 102.497 62.8449C102.55 63.0658 102.443 63.2934 102.242 63.4072C102.008 63.5343 101.714 63.4741 101.56 63.2532C101.078 62.5638 100.027 61.2184 99.2503 61.533C98.34 61.8944 98.0321 64.1769 99.7055 64.7459C100.221 64.9199 100.388 65.5959 100.02 65.9908C99.7122 66.3188 99.2436 66.5531 98.5341 66.3724C98.5341 66.3724 94.3775 63.4072 93.8822 59.4982C93.3869 55.5892 98.0321 53.1528 99.759 52.8114" fill="black"/>
<path d="M138.989 28.5476C138.521 28.5476 138.066 28.4071 137.671 28.1326C137.162 27.7779 136.827 27.2491 136.714 26.64C136.606 26.0309 136.74 25.4151 137.088 24.9131C137.818 23.8689 139.264 23.6079 140.308 24.3375C140.817 24.6922 141.151 25.221 141.265 25.8234C141.379 26.4325 141.238 27.0483 140.89 27.5503C140.542 28.059 140.007 28.4004 139.398 28.5075C139.257 28.5343 139.123 28.5476 138.983 28.5476M138.983 24.7859C138.527 24.7859 138.072 25.0001 137.791 25.4084C137.57 25.7297 137.483 26.1112 137.557 26.4928C137.624 26.8743 137.838 27.2023 138.153 27.4231C138.809 27.8783 139.712 27.7177 140.167 27.0617C140.388 26.7471 140.475 26.3589 140.402 25.9774C140.335 25.5958 140.121 25.2679 139.806 25.047C139.552 24.8729 139.264 24.7859 138.976 24.7859H138.983Z" fill="black"/>
<path d="M152.952 30.9708C152.831 30.9708 152.711 30.9172 152.624 30.8168C152.47 30.6361 152.49 30.3617 152.671 30.2077L154.063 29.0163C154.244 28.8623 154.518 28.8824 154.672 29.0631C154.826 29.2439 154.806 29.5183 154.625 29.6723L153.233 30.8637C153.153 30.9306 153.052 30.9641 152.952 30.9641" fill="black"/>
<path d="M148.548 34.7191C148.427 34.7191 148.307 34.6655 148.22 34.5651C148.066 34.3844 148.086 34.11 148.266 33.956L149.659 32.7713C149.839 32.6173 150.114 32.6374 150.268 32.8182C150.422 32.9989 150.402 33.2733 150.221 33.4273L148.829 34.6187C148.748 34.6856 148.648 34.7191 148.548 34.7191Z" fill="black"/>
<path d="M150.167 30.7431C150.047 30.7431 149.926 30.6896 149.839 30.5892L148.648 29.1969C148.494 29.0162 148.514 28.7418 148.695 28.5878C148.876 28.4339 149.15 28.454 149.304 28.6347L150.495 30.0269C150.649 30.2076 150.629 30.4821 150.448 30.636C150.368 30.703 150.268 30.7364 150.167 30.7364" fill="black"/>
<path d="M153.922 35.1475C153.802 35.1475 153.681 35.094 153.594 34.9936L152.403 33.6013C152.249 33.4206 152.269 33.1462 152.45 32.9922C152.631 32.8383 152.898 32.8584 153.059 33.0391L154.25 34.4313C154.404 34.6121 154.384 34.8865 154.203 35.0404C154.123 35.1074 154.023 35.1408 153.922 35.1408" fill="black"/>
<path d="M37.8045 196.292C37.5703 196.292 37.3829 196.111 37.3762 195.877L37.3092 194.043C37.3025 193.802 37.4833 193.601 37.7242 193.594C37.9719 193.588 38.166 193.775 38.1727 194.009L38.2396 195.843C38.2463 196.084 38.0656 196.285 37.8246 196.292H37.8112" fill="black"/>
<path d="M38.0187 202.075C37.7912 202.075 37.5971 201.895 37.5904 201.66L37.5234 199.833C37.5167 199.592 37.6975 199.398 37.9384 199.385C38.1861 199.385 38.3802 199.559 38.3869 199.8L38.4538 201.627C38.4605 201.868 38.2798 202.069 38.0388 202.075H38.0187Z" fill="black"/>
<path d="M34.0696 198.407C33.842 198.407 33.6479 198.226 33.6412 197.992C33.6345 197.751 33.8152 197.55 34.0562 197.544L35.8835 197.477C36.1245 197.47 36.3253 197.651 36.332 197.892C36.3387 198.133 36.1579 198.327 35.917 198.34L34.0897 198.407H34.0696Z" fill="black"/>
<path d="M39.8527 198.193C39.6251 198.193 39.431 198.012 39.4243 197.778C39.4177 197.537 39.5984 197.336 39.8393 197.329L41.6666 197.262C41.9143 197.262 42.1084 197.436 42.1151 197.677C42.1218 197.918 41.9411 198.119 41.7001 198.126L39.8661 198.193H39.8527Z" fill="black"/>
<path d="M28.2798 171.071C28.1191 171.071 27.9585 170.977 27.8849 170.817C20.2476 154.19 17.6974 135.81 20.502 117.657C21.2115 113.086 22.2557 108.548 23.6144 104.163C23.6881 103.936 23.929 103.809 24.1566 103.882C24.3842 103.956 24.5114 104.197 24.4377 104.424C23.0924 108.768 22.0549 113.266 21.3521 117.798C18.5743 135.79 21.0977 154.003 28.6613 170.469C28.7617 170.683 28.6613 170.944 28.4471 171.038C28.3869 171.064 28.3266 171.078 28.2664 171.078" fill="black"/>
<path d="M29.3641 173.36C29.2034 173.36 29.0495 173.273 28.9759 173.119C28.601 172.363 28.2329 171.593 27.8848 170.823C27.7844 170.609 27.8848 170.348 28.099 170.254C28.3132 170.154 28.5743 170.254 28.6747 170.469C29.0227 171.225 29.3909 171.995 29.759 172.744C29.8661 172.959 29.7791 173.22 29.5649 173.32C29.5046 173.354 29.4377 173.367 29.3708 173.367" fill="black"/>
<path d="M23.8353 182.243C23.6814 182.243 23.5274 182.156 23.4538 182.008C18.1191 171.587 14.5783 160.389 12.9384 148.742C11.245 136.687 11.6332 124.445 14.0964 112.363C14.1432 112.129 14.3708 111.975 14.6051 112.028C14.8394 112.075 14.9866 112.303 14.9398 112.537C10.1473 136.045 13.4471 160.576 24.2169 181.62C24.324 181.834 24.2436 182.095 24.0295 182.202C23.9692 182.236 23.9023 182.249 23.8353 182.249" fill="black"/>
<path d="M17.7376 108.507C17.6841 108.507 17.6305 108.494 17.577 108.474L13.8889 106.981C13.7483 106.921 13.6479 106.794 13.6211 106.64C13.6011 106.486 13.6613 106.332 13.7818 106.238L17.577 103.273C17.7108 103.173 17.8849 103.153 18.0388 103.226C18.1861 103.3 18.2798 103.454 18.2798 103.621L18.1727 108.079C18.1727 108.22 18.0991 108.354 17.9786 108.427C17.9049 108.474 17.8246 108.501 17.7443 108.501M14.913 106.459L17.3293 107.437L17.4029 104.518L14.9197 106.459H14.913Z" fill="black"/>
<path d="M144.217 119.277C144.083 119.277 143.956 119.217 143.869 119.103C143.728 118.909 143.768 118.641 143.956 118.501L156.539 109.183C156.734 109.043 157.001 109.083 157.142 109.27C157.282 109.465 157.242 109.732 157.048 109.873L144.471 119.19C144.391 119.244 144.304 119.277 144.21 119.277" fill="black"/>
<path d="M125.228 102.878C125.094 102.878 124.967 102.818 124.88 102.704C124.739 102.51 124.779 102.243 124.967 102.102L157.062 78.3269C157.256 78.1863 157.523 78.2265 157.664 78.4139C157.805 78.608 157.764 78.8757 157.57 79.0163L125.469 102.791C125.388 102.845 125.301 102.872 125.214 102.872" fill="black"/>
<path d="M147.925 92.1823C147.791 92.1823 147.664 92.122 147.577 92.0083C147.436 91.8141 147.477 91.5464 147.664 91.4058L164.545 78.9025C164.739 78.7619 165.007 78.8021 165.147 78.9962C165.288 79.1836 165.248 79.458 165.054 79.5986L148.173 92.102C148.092 92.1555 148.005 92.189 147.918 92.189" fill="black"/>
<path d="M47.6305 121.908C47.3427 121.908 47.0482 121.854 46.7671 121.747C46.1579 121.513 45.6827 121.044 45.415 120.442C44.8795 119.204 45.4351 117.758 46.6533 117.209C46.8741 117.115 47.1285 117.209 47.2222 117.423C47.3226 117.637 47.2222 117.899 47.008 117.992C46.2182 118.347 45.8634 119.291 46.2115 120.094C46.3788 120.489 46.6867 120.783 47.0816 120.937C47.4632 121.085 47.8782 121.078 48.253 120.904C49.0428 120.549 49.3976 119.612 49.0495 118.802C48.9558 118.581 49.0495 118.327 49.2771 118.233C49.498 118.14 49.7523 118.233 49.846 118.461C50.3815 119.699 49.826 121.145 48.6077 121.694C48.2932 121.834 47.9652 121.901 47.6305 121.901" fill="black"/>
<path d="M56.5328 36.0444L57.3226 39.0565L60.7229 38.9427C61.0308 39.612 61.3856 40.2412 61.7939 40.8302L59.9598 43.695L62.1486 45.9105L65.0402 44.11C65.6292 44.525 66.2584 44.8931 66.9076 45.2077L66.747 48.608L69.7524 49.438L71.3521 46.4393C72.0683 46.5063 72.7912 46.5063 73.5208 46.4527L75.0803 49.4715L78.0924 48.6816L77.9786 45.2814C78.6412 44.9735 79.2771 44.6187 79.8661 44.2104L82.7242 46.0444L84.9398 43.8557L83.1392 40.9708C83.5542 40.3818 83.9224 39.7526 84.237 39.1033L87.6372 39.264L88.4605 36.2586L85.4619 34.6589C85.5288 33.9427 85.5288 33.2198 85.4752 32.4902L88.5007 30.9306L87.7108 27.9186L84.3106 28.0324C84.0027 27.3697 83.6479 26.7338 83.2396 26.1448L85.0736 23.2867L82.8849 21.0712L79.9933 22.8717C79.4043 22.4567 78.7751 22.0886 78.1258 21.774L78.2865 18.3737L75.2811 17.5504L73.6814 20.5491C72.9652 20.4822 72.2423 20.4822 71.5127 20.5357L69.9532 17.517L66.9411 18.3068L67.0549 21.7071C66.3922 22.015 65.7564 22.3697 65.1673 22.778L62.3092 20.944L60.0937 23.1328L61.8943 26.0176C61.4793 26.6067 61.1111 27.2358 60.7965 27.8851L57.3963 27.7245L56.573 30.7298L59.5716 32.3296C59.5047 33.0457 59.5047 33.7686 59.5582 34.4982L56.5328 36.0578M70.4953 25.7365C74.7791 24.6187 79.1633 27.189 80.2811 31.4728C81.3989 35.7566 78.8354 40.1408 74.5449 41.2586C70.2611 42.3764 65.8768 39.8061 64.759 35.5223C63.6412 31.2385 66.2048 26.8543 70.4953 25.7365Z" fill="white"/>
<path d="M76.3989 50.6696C76.2383 50.6696 76.091 50.5826 76.0174 50.4353L74.585 47.6642C74.0227 47.6977 73.4672 47.691 72.9183 47.6575L71.4524 50.4085C71.3587 50.5893 71.1512 50.6763 70.9571 50.6227L67.9518 49.7994C67.7577 49.7459 67.6238 49.5652 67.6372 49.3644L67.7844 46.2452C67.2891 45.9976 66.8072 45.7097 66.3454 45.4018L63.6948 47.0484C63.5207 47.1555 63.2998 47.1287 63.1593 46.9815L60.9705 44.766C60.83 44.6254 60.8032 44.3978 60.917 44.2305L62.597 41.6067C62.2958 41.1448 62.0214 40.6562 61.7737 40.1542L58.6546 40.2613C58.4471 40.2613 58.2731 40.1341 58.2195 39.94L57.4297 36.9279C57.3761 36.7338 57.4698 36.5263 57.6506 36.4326L60.4217 35.0002C60.3882 34.438 60.3949 33.8824 60.4283 33.3336L57.6773 31.8677C57.4966 31.774 57.4096 31.5665 57.4632 31.3724L58.2865 28.367C58.34 28.1729 58.5207 28.0391 58.7215 28.0524L61.8407 28.1997C62.0883 27.7044 62.3761 27.2225 62.684 26.7606L61.0308 24.11C60.9237 23.936 60.9504 23.7151 61.091 23.5745L63.3065 21.3858C63.4471 21.2452 63.6747 21.2184 63.842 21.3255L66.4658 23.0056C66.9277 22.7044 67.4163 22.43 67.9183 22.1823L67.8112 19.0631C67.8045 18.8623 67.9384 18.6816 68.1325 18.6281L71.1446 17.8449C71.3387 17.7914 71.5462 17.8851 71.6399 18.0658L73.0723 20.8369C73.6345 20.8034 74.1901 20.8101 74.7389 20.8369L76.2048 18.0859C76.2985 17.9052 76.506 17.8182 76.7001 17.8717L79.7055 18.695C79.8996 18.7486 80.0334 18.9293 80.0201 19.1301L79.8728 22.2492C80.3681 22.4969 80.85 22.7847 81.3119 23.0926L83.9625 21.446C84.1365 21.3389 84.3574 21.3657 84.498 21.5063L86.6867 23.7218C86.8273 23.8623 86.8541 24.0899 86.7403 24.2573L85.0602 26.8811C85.3614 27.3429 85.6358 27.8249 85.8835 28.3336L89.0026 28.2332C89.2101 28.2265 89.3842 28.3603 89.4377 28.5544L90.2276 31.5665C90.2811 31.7606 90.1874 31.9681 90.0067 32.0618L87.2356 33.4942C87.269 34.0565 87.2624 34.612 87.2289 35.1609L89.9799 36.6267C90.1606 36.7204 90.2476 36.9279 90.1941 37.1221L89.3708 40.1274C89.3172 40.3215 89.1365 40.4487 88.9357 40.442L85.8166 40.2947C85.5689 40.7901 85.2811 41.272 84.9732 41.7338L86.6198 44.3844C86.7269 44.5585 86.7001 44.7794 86.5595 44.9199L84.344 47.1087C84.2035 47.2492 83.9759 47.276 83.8085 47.1622L81.1847 45.4822C80.7229 45.7834 80.2342 46.0578 79.7322 46.3055L79.8393 49.4246C79.846 49.6254 79.7122 49.8061 79.518 49.8597L76.506 50.6428C76.4725 50.6562 76.4324 50.6562 76.3989 50.6562M74.8393 46.774C75 46.774 75.1472 46.861 75.2209 47.0083L76.6265 49.7258L78.9759 49.1167L78.8755 46.0645C78.8755 45.8905 78.9692 45.7298 79.1231 45.6562C79.7657 45.3617 80.3815 45.0136 80.9504 44.6254C81.091 44.525 81.2784 44.525 81.4257 44.6187L83.996 46.2653L85.7229 44.5652L84.1097 41.9681C84.016 41.8208 84.0227 41.6334 84.1231 41.4929C84.5247 40.9239 84.8795 40.3148 85.1807 39.6856C85.2543 39.5317 85.415 39.4313 85.589 39.438L88.6412 39.5785L89.2838 37.2425L86.593 35.8034C86.4391 35.7231 86.352 35.5558 86.3654 35.3818C86.4257 34.699 86.4324 33.9895 86.3721 33.2867C86.3587 33.1127 86.4524 32.9453 86.6064 32.8717L89.3239 31.4661L88.7148 29.1167L85.6559 29.2171C85.4819 29.2171 85.3213 29.1234 85.2476 28.9694C84.9531 28.3269 84.6051 27.7111 84.2101 27.1421C84.1097 27.0016 84.1097 26.8142 84.2035 26.6669L85.85 24.0966L84.1499 22.3697L81.5528 23.9895C81.4056 24.0832 81.2182 24.0765 81.0776 23.9761C80.5087 23.5745 79.8996 23.2198 79.2704 22.9186C79.1164 22.8449 79.016 22.6843 79.0227 22.5103L79.1633 19.4581L76.8273 18.8155L75.3882 21.5129C75.3079 21.6669 75.1405 21.7539 74.9665 21.7405C74.2838 21.6803 73.5743 21.6736 72.8715 21.7271C72.6974 21.7405 72.5368 21.6468 72.4565 21.4929L71.0508 18.7753L68.7014 19.3844L68.8018 22.4366C68.8018 22.6107 68.7081 22.7713 68.5542 22.8449C67.9116 23.1395 67.2958 23.4875 66.7269 23.8757C66.5863 23.9761 66.3989 23.9761 66.2516 23.8757L63.6814 22.2291L61.9545 23.936L63.5743 26.533C63.668 26.6803 63.6613 26.8677 63.5609 27.0083C63.1593 27.5772 62.8045 28.1863 62.5033 28.8155C62.4297 28.9694 62.2624 29.0631 62.095 29.0631L59.0428 28.9226L58.4002 31.2586L61.091 32.6977C61.2449 32.778 61.332 32.9453 61.3186 33.1194C61.2583 33.8021 61.2516 34.5116 61.3119 35.2144C61.3253 35.3885 61.2316 35.5491 61.0776 35.6294L58.3601 37.035L58.9759 39.3844L62.0348 39.2773C62.2088 39.2773 62.3694 39.371 62.4431 39.5317C62.7376 40.1743 63.0856 40.7901 63.4806 41.3523C63.581 41.4929 63.581 41.6803 63.4873 41.8275L61.8407 44.3978L63.5408 46.1247L66.1379 44.5049C66.2851 44.4112 66.4725 44.4179 66.6131 44.5183C67.182 44.9199 67.7911 45.2747 68.4203 45.5759C68.5743 45.6495 68.6747 45.8101 68.668 45.9842L68.5274 49.0364L70.8634 49.6789L72.3025 46.9882C72.3828 46.8342 72.5502 46.7472 72.7242 46.7606C73.4136 46.8208 74.1164 46.8275 74.8192 46.774C74.8326 46.774 74.8393 46.774 74.8527 46.774H74.8393ZM73.842 42.691C70.087 42.691 66.6532 40.1676 65.6626 36.3724C64.4846 31.861 67.1954 27.2425 71.7068 26.0645C73.8889 25.4955 76.1646 25.8101 78.1124 26.948C80.0602 28.0926 81.4458 29.9199 82.0147 32.102C82.5836 34.284 82.269 36.5598 81.1312 38.5076C79.9933 40.4554 78.1593 41.8409 75.9772 42.4099C75.2677 42.5973 74.5515 42.6843 73.842 42.6843V42.691ZM71.921 26.9012C67.8715 27.9587 65.4417 32.1087 66.4926 36.1582C67.5502 40.2077 71.7068 42.6374 75.7496 41.5866C79.7992 40.529 82.2289 36.3791 81.178 32.3295C80.6693 30.3684 79.4243 28.7218 77.6707 27.6977C75.9237 26.6736 73.8755 26.3925 71.9143 26.9012H71.921Z" fill="black"/>
<path d="M5.40829 66.0108L6.75368 71.1647L12.5703 70.9706C13.0924 72.1085 13.7082 73.1928 14.3976 74.2036L11.2584 79.0965L15 82.8916L19.9464 79.8127C20.9572 80.5289 22.0281 81.1513 23.1459 81.6868L22.8782 87.5034L28.0187 88.9157L30.7564 83.7819C31.9813 83.8957 33.2195 83.8957 34.4712 83.8019L37.1419 88.976L42.3025 87.6306L42.1084 81.814C43.2463 81.2919 44.3307 80.6761 45.3414 79.9867L50.2343 83.1259L54.0294 79.3843L50.9505 74.4378C51.6667 73.4271 52.2892 72.3562 52.8246 71.2384L58.6412 71.5061L60.0535 66.3655L54.9197 63.6279C55.0335 62.403 55.0335 61.1647 54.9398 59.9131L60.1138 57.2424L58.7684 52.0817L52.9518 52.2758C52.423 51.138 51.8139 50.0603 51.1245 49.0429L54.2637 44.15L50.5221 40.3548L45.5756 43.4338C44.5649 42.7176 43.494 42.0951 42.3762 41.5596L42.6439 35.743L37.5033 34.3307L34.7657 39.4579C33.5408 39.3441 32.3025 39.3441 31.0509 39.4378L28.3802 34.2638L23.2195 35.6092L23.4137 41.4258C22.2758 41.9546 21.1914 42.5637 20.1807 43.2531L15.2878 40.1139L11.4926 43.8555L14.5716 48.7953C13.8554 49.806 13.2329 50.8769 12.6975 51.9947L6.88085 51.727L5.46854 56.8675L10.6024 59.6052C10.4886 60.8301 10.4886 62.0683 10.5823 63.32L5.40829 65.9974M29.2972 48.3334C36.6332 46.4191 44.1232 50.81 46.0375 58.146C47.9518 65.482 43.5609 72.972 36.2249 74.8863C28.8889 76.8006 21.3989 72.4097 19.4846 65.0737C17.5703 57.7377 21.9612 50.2477 29.2972 48.3334Z" fill="#8483CF"/>
<path d="M39.411 90.7364C39.2503 90.7364 39.1031 90.6494 39.0295 90.5022L36.4859 85.5825C35.4083 85.6561 34.324 85.6494 33.2731 85.5691L30.6693 90.4486C30.5756 90.6293 30.3681 90.7163 30.174 90.6628L25.0335 89.2505C24.8394 89.1969 24.7055 89.0162 24.7189 88.8154L24.9732 83.2799C24.0161 82.8047 23.0857 82.2625 22.2021 81.6601L17.5033 84.5919C17.3293 84.6989 17.1084 84.6722 16.9679 84.5316L13.2195 80.7364C13.079 80.5959 13.0522 80.3683 13.166 80.201L16.1513 75.5423C15.5622 74.6655 15.0335 73.7217 14.5649 72.7445L9.02945 72.9319C8.82196 72.9319 8.64793 72.8047 8.59438 72.6106L7.249 67.45C7.19545 67.2558 7.28916 67.0483 7.46988 66.9613L12.3896 64.4178C12.3159 63.3402 12.3226 62.2558 12.4029 61.205L7.52343 58.6012C7.3427 58.5075 7.25569 58.3 7.30924 58.1059L8.72155 52.9653C8.7751 52.7712 8.95582 52.6374 9.15663 52.6508L14.6921 52.9051C15.1673 51.9479 15.7095 51.0176 16.3119 50.134L13.3802 45.4352C13.2731 45.2612 13.2999 45.0403 13.4404 44.8998L17.2356 41.1514C17.3762 41.0109 17.6037 40.9841 17.7711 41.0979L22.4297 44.0832C23.3066 43.4941 24.2503 42.9654 25.2276 42.4968L25.0402 36.9613C25.0335 36.7605 25.1673 36.5798 25.3614 36.5263L30.5221 35.1809C30.7162 35.1273 30.9237 35.221 31.0174 35.4018L33.5609 40.3214C34.6386 40.2478 35.7229 40.2545 36.7738 40.3348L39.3775 35.4553C39.4712 35.2746 39.6787 35.1876 39.8728 35.2411L45.0134 36.6534C45.2075 36.707 45.3414 36.8877 45.328 37.0885L45.0736 42.624C46.0308 43.0992 46.9612 43.6414 47.8447 44.2438L52.5502 41.3121C52.7242 41.205 52.9451 41.2318 53.0857 41.379L56.834 45.1742C56.9746 45.3147 57.0013 45.5423 56.8876 45.7097L53.9023 50.3683C54.4913 51.2451 55.0201 52.1889 55.4886 53.1662L61.0241 52.9787C61.2316 52.972 61.4056 53.1059 61.4592 53.3L62.8046 58.454C62.8581 58.6481 62.7644 58.8556 62.5837 58.9493L57.664 61.4928C57.7376 62.5704 57.7309 63.6548 57.6506 64.7056L62.5301 67.3094C62.7108 67.4031 62.7979 67.6106 62.7443 67.8047L61.332 72.9453C61.2784 73.1394 61.0977 73.2732 60.8969 73.2599L55.3614 73.0055C54.8862 73.9627 54.344 74.8931 53.7416 75.7766L56.6734 80.4754C56.7805 80.6494 56.7537 80.8703 56.6131 81.0109L52.8179 84.7592C52.6774 84.8997 52.4498 84.9265 52.2825 84.8127L47.6238 81.8275C46.7403 82.4165 45.8032 82.9453 44.826 83.4138L45.0134 88.9493C45.0201 89.1501 44.8862 89.3308 44.6921 89.3777L39.5315 90.723C39.498 90.7297 39.4578 90.7364 39.4244 90.7364M36.7537 84.7056C36.9143 84.7056 37.0616 84.7927 37.1352 84.9399L39.6519 89.806L44.1432 88.6347L43.9625 83.1595C43.9625 82.9854 44.0562 82.8248 44.2102 82.7512C45.328 82.2358 46.3922 81.6334 47.3762 80.9573C47.5167 80.8569 47.7042 80.8569 47.8514 80.9506L52.4565 83.9024L55.7564 80.6427L52.8581 75.9908C52.7644 75.8435 52.7711 75.6561 52.8715 75.5155C53.5676 74.5249 54.1901 73.4674 54.7122 72.3763C54.7858 72.2224 54.9465 72.122 55.1205 72.1287L60.5957 72.383L61.8273 67.9051L57.0013 65.3281C56.8474 65.2478 56.7604 65.0805 56.7738 64.9064C56.8809 63.715 56.8876 62.4901 56.7938 61.2652C56.7805 61.0912 56.8742 60.9305 57.0281 60.8502L61.8942 58.3335L60.7229 53.8422L55.2477 54.0229C55.0803 54.0229 54.913 53.9292 54.8394 53.7686C54.324 52.6508 53.7216 51.5865 53.0455 50.6026C52.9451 50.4553 52.9451 50.2679 53.0388 50.1273L55.9906 45.5222L52.7309 42.2224L48.079 45.1206C47.9317 45.2143 47.7443 45.2077 47.6038 45.1073C46.6131 44.4111 45.5556 43.7886 44.4645 43.2666C44.3106 43.1929 44.2102 43.0323 44.2169 42.8583L44.4712 37.3897L40 36.1581L37.423 40.9841C37.3427 41.138 37.1754 41.2251 37.0013 41.2117C35.8099 41.1046 34.585 41.0979 33.3601 41.1983C33.1861 41.2117 33.0254 41.118 32.9451 40.964L30.4284 36.0979L25.9371 37.2692L26.1178 42.7445C26.1178 42.9185 26.0241 43.0791 25.8701 43.1528C24.7523 43.6682 23.6881 44.2706 22.7042 44.9466C22.5636 45.047 22.3695 45.047 22.2289 44.9533L17.6238 42.0015L14.324 45.2612L17.2222 49.9131C17.3159 50.0604 17.3092 50.2478 17.2088 50.3884C16.5127 51.379 15.8969 52.4366 15.3681 53.5276C15.2945 53.6815 15.1339 53.7819 14.9598 53.7753L9.48461 53.5209L8.25301 57.9921L13.079 60.5691C13.2329 60.6494 13.3199 60.8168 13.3066 60.9908C13.1995 62.1822 13.1928 63.4071 13.2865 64.632C13.2999 64.806 13.2062 64.9667 13.0522 65.047L8.18608 67.5637L9.35743 72.055L14.8327 71.8743C15.0067 71.8743 15.1673 71.968 15.241 72.122C15.7564 73.2398 16.3588 74.304 17.0348 75.288C17.1352 75.4285 17.1352 75.6226 17.0415 75.7632L14.0897 80.3683L17.3494 83.6749L22.0013 80.7766C22.1486 80.6829 22.336 80.6896 22.4766 80.79C23.4672 81.4861 24.5248 82.1019 25.6158 82.6307C25.7697 82.7043 25.8701 82.8649 25.8635 83.039L25.6091 88.5075L30.0803 89.7391L32.6573 84.9131C32.7376 84.7592 32.905 84.6722 33.079 84.6856C34.2704 84.7927 35.4953 84.7994 36.7202 84.6989H36.7537V84.7056ZM35.0469 77.1086C28.7617 77.1086 23.0054 72.885 21.3521 66.5263C19.3842 58.9761 23.9224 51.2317 31.4726 49.2572C35.1339 48.3 38.9424 48.8288 42.2021 50.7431C45.4618 52.6575 47.7845 55.723 48.7416 59.3777C49.6988 63.0323 49.17 66.8475 47.2557 70.1073C45.3414 73.367 42.2758 75.6896 38.6212 76.6467C37.4297 76.9546 36.2316 77.1086 35.0469 77.1086ZM31.6867 50.0939C24.5984 51.9479 20.3347 59.217 22.1821 66.3054C23.079 69.7391 25.261 72.624 28.3199 74.4178C31.3855 76.2117 34.9598 76.707 38.3936 75.8101C41.8273 74.9131 44.7122 72.7311 46.506 69.6722C48.2999 66.6066 48.7952 63.0323 47.8983 59.5986C47.0013 56.1648 44.8193 53.2799 41.7604 51.4861C38.6948 49.6923 35.1205 49.1969 31.6867 50.0939Z" fill="black"/>
<path d="M230.495 254.13H171.506C167.965 254.13 165.315 250.884 166.031 247.41L174.98 203.909C175.73 200.255 178.949 197.624 182.684 197.624H233.287L230.495 254.123" fill="#2F294B"/>
<path d="M230.495 254.565H171.506C169.685 254.565 167.985 253.755 166.834 252.35C165.689 250.944 165.234 249.11 165.602 247.33L174.552 203.829C175.341 199.987 178.762 197.202 182.684 197.202H233.286C233.4 197.202 233.514 197.249 233.601 197.336C233.681 197.423 233.722 197.537 233.715 197.658L230.924 254.164C230.91 254.391 230.723 254.572 230.495 254.572M182.684 198.066C179.17 198.066 176.104 200.563 175.402 204.003L166.452 247.504C166.138 249.03 166.526 250.596 167.503 251.801C168.487 253.006 169.946 253.702 171.506 253.702H230.087L232.838 198.059H182.691L182.684 198.066Z" fill="black"/>
<path d="M238.052 254.13H226.606C223.066 254.13 220.415 250.884 221.131 247.41L230.991 199.498C231.218 198.407 232.175 197.631 233.286 197.631H236.232C237.45 197.631 238.467 198.568 238.568 199.786L242.604 249.21C242.818 251.861 240.723 254.137 238.059 254.137" fill="#8483CF"/>
<path d="M238.052 254.565H226.606C224.786 254.565 223.086 253.755 221.941 252.35C220.79 250.944 220.341 249.11 220.709 247.33L230.569 199.418C230.837 198.133 231.975 197.202 233.286 197.202H236.232C237.664 197.202 238.882 198.32 238.996 199.753L243.025 249.177C243.139 250.562 242.664 251.941 241.72 252.959C240.776 253.983 239.438 254.565 238.052 254.565ZM233.28 198.059C232.376 198.059 231.586 198.702 231.406 199.585L221.546 247.497C221.232 249.023 221.62 250.589 222.604 251.794C223.588 252.999 225.047 253.695 226.606 253.695H238.052C239.217 253.695 240.294 253.22 241.084 252.363C241.874 251.506 242.256 250.395 242.162 249.231L238.133 199.806C238.052 198.822 237.216 198.052 236.225 198.052H233.28V198.059Z" fill="black"/>
<path d="M219.143 220.897H177.61C177.369 220.897 177.175 220.703 177.175 220.462C177.175 220.221 177.369 220.027 177.61 220.027H219.143C220.315 220.027 221.325 219.23 221.6 218.086L225.669 200.904C225.723 200.669 225.957 200.529 226.191 200.582C226.426 200.636 226.566 200.87 226.513 201.104L222.443 218.287C222.082 219.819 220.723 220.89 219.15 220.89" fill="black"/>
<path d="M204.632 220.462L203.34 225.683C203.133 226.567 202.343 227.189 201.432 227.189H192.282C191.285 227.189 190.562 226.239 190.83 225.281L192.169 220.469H204.625" fill="white"/>
<path d="M201.432 227.624H192.282C191.673 227.624 191.111 227.343 190.736 226.861C190.368 226.372 190.248 225.756 190.408 225.167L191.747 220.355C191.801 220.167 191.968 220.04 192.162 220.04H204.618C204.752 220.04 204.873 220.101 204.96 220.208C205.04 220.315 205.067 220.449 205.04 220.576L203.748 225.797C203.494 226.874 202.537 227.631 201.426 227.631M192.497 220.904L191.245 225.402C191.151 225.73 191.218 226.071 191.426 226.339C191.633 226.607 191.941 226.761 192.282 226.761H201.432C202.142 226.761 202.751 226.279 202.918 225.589L204.083 220.904H192.503H192.497Z" fill="black"/>
<path d="M224.043 197.336L225.1 191.888C225.596 188.474 223.788 186.566 221.185 186.566H197.323C194.726 186.566 192.262 189.291 191.821 191.888L190.756 197.336H194.585L195.509 192.698C195.85 190.676 197.088 189.652 199.11 189.652H219.203C221.232 189.652 221.466 190.676 221.124 192.698L220.201 197.336H224.029" fill="white"/>
<path d="M224.043 197.771H220.214C220.087 197.771 219.96 197.711 219.88 197.611C219.799 197.51 219.766 197.376 219.793 197.249L220.716 192.611C220.91 191.453 220.877 190.81 220.589 190.476C220.368 190.208 219.92 190.081 219.217 190.081H199.123C197.289 190.081 196.252 190.957 195.95 192.771L195.02 197.423C194.98 197.624 194.799 197.771 194.598 197.771H190.77C190.643 197.771 190.515 197.711 190.435 197.617C190.355 197.517 190.321 197.39 190.348 197.263L191.412 191.814C191.861 189.137 194.411 186.138 197.336 186.138H221.198C222.564 186.138 223.755 186.64 224.545 187.544C225.462 188.601 225.81 190.127 225.542 191.948L224.478 197.417C224.438 197.617 224.257 197.765 224.056 197.765M220.75 196.901H223.701L224.699 191.801C224.92 190.248 224.645 188.963 223.896 188.099C223.266 187.376 222.336 186.988 221.205 186.988H197.343C194.92 186.988 192.664 189.605 192.269 191.948L191.305 196.895H194.257L195.114 192.604C195.489 190.389 196.881 189.21 199.137 189.21H219.23C220.208 189.21 220.857 189.431 221.258 189.913C221.841 190.603 221.754 191.694 221.573 192.765L220.75 196.901Z" fill="black"/>
<path d="M219.605 185.663H199.431C198.621 185.663 197.851 186.319 197.711 187.135L197.416 188.896C197.282 189.706 197.825 190.368 198.641 190.368H218.815C219.625 190.368 220.402 189.712 220.535 188.896L220.837 187.135C220.971 186.325 220.428 185.663 219.612 185.663" fill="#8483CF"/>
<path d="M218.809 190.803H198.635C198.119 190.803 197.657 190.596 197.343 190.228C197.021 189.846 196.894 189.351 196.981 188.829L197.276 187.068C197.45 186.044 198.394 185.234 199.424 185.234H219.598C220.114 185.234 220.576 185.442 220.89 185.81C221.212 186.185 221.339 186.687 221.252 187.209L220.957 188.969C220.783 190 219.839 190.803 218.809 190.803ZM199.424 186.098C198.822 186.098 198.233 186.607 198.126 187.209L197.831 188.969C197.784 189.237 197.845 189.485 197.999 189.665C198.146 189.839 198.374 189.933 198.635 189.933H218.809C219.411 189.933 220 189.424 220.1 188.822L220.395 187.062C220.442 186.794 220.382 186.546 220.228 186.366C220.08 186.192 219.853 186.098 219.598 186.098H199.424Z" fill="black"/>
<path d="M226.493 247.691C226.339 247.691 226.198 247.611 226.118 247.47C225.997 247.263 226.071 247.001 226.278 246.881L233.969 242.497V204.003C233.969 203.762 234.163 203.574 234.404 203.574C234.645 203.574 234.839 203.769 234.839 204.003V242.744C234.839 242.898 234.752 243.046 234.618 243.119L226.714 247.624C226.647 247.664 226.573 247.684 226.499 247.684" fill="#DADAFF"/>
</g>
</svg>
