<svg width="248" height="235" viewBox="0 0 248 235" fill="none" xmlns="http://www.w3.org/2000/svg">
<path d="M166.368 70.8791C165.251 63.3869 158.913 58.117 152.216 59.1101C150.434 59.3833 148.808 60.0723 147.393 61.0654L147.362 61.0902C146.368 61.8103 145.468 62.6855 144.705 63.6911C136.859 70.3266 131.707 64.9822 130.242 63.0704L124.91 27.2918L88.4921 32.7169C85.823 31.5003 80.7206 27.925 84.4015 19.3528C85.1464 18.3348 85.7237 17.2299 86.1147 16.0505L86.1395 16.0195H86.1271C86.6734 14.3808 86.8596 12.6179 86.5989 10.8488C85.6057 4.13261 78.7157 -0.404882 71.2173 0.712421C63.7314 1.83593 58.4615 8.16732 59.4546 14.8835C59.7153 16.665 60.4167 18.2851 61.4099 19.6942L61.3975 19.7066L61.4285 19.7314C62.1486 20.7494 63.0238 21.637 64.0294 22.3881C70.0504 29.5264 66.2019 34.4301 64.0045 36.373L27.5867 41.7981L32.8007 76.9001L32.7014 76.9125C32.7014 76.9125 30.0882 87.3034 18.7972 82.4556C17.7792 81.7107 16.6743 81.1334 15.5074 80.7362L15.4639 80.7113C13.8252 80.1775 12.0748 79.9913 10.2933 80.252C3.58326 81.2451 -0.94803 88.1352 0.169273 95.6273C1.28658 103.126 7.62417 108.402 14.328 107.396C16.1095 107.136 17.7358 106.447 19.151 105.447L19.182 105.416C20.1876 104.702 21.0753 103.821 21.8387 102.815C31.2179 94.8887 36.7361 104.063 36.7361 104.063L36.8479 104.051L42.0744 139.165L77.1639 133.938C77.1639 133.938 87.5486 136.539 82.6945 147.836C81.9621 148.854 81.3848 149.959 80.9875 151.139L80.9627 151.17H80.9751C80.4289 152.808 80.2302 154.571 80.5034 156.353C81.4965 163.057 88.3866 167.594 95.8725 166.477C103.371 165.359 108.641 159.022 107.635 152.306C107.375 150.524 106.686 148.904 105.68 147.495L105.692 147.483L105.661 147.458C104.941 146.452 104.066 145.552 103.06 144.801C95.1462 135.422 104.296 129.897 104.308 129.885L139.404 124.659L134.078 88.8801C134.922 86.6144 138.299 80.0099 147.74 84.0694C148.758 84.8143 149.863 85.3916 151.03 85.7888L151.073 85.8137V85.8013C152.712 86.3475 154.463 86.5337 156.244 86.273C162.954 85.2799 167.479 78.3898 166.368 70.8853" fill="#F3BE66"/>
<path d="M14.3342 107.39C16.1157 107.129 17.742 106.44 19.1572 105.441L19.1882 105.41C20.1938 104.696 21.0815 103.815 21.8449 102.809C31.2241 94.8825 36.7423 104.057 36.7423 104.057L36.8541 104.044L42.0805 139.159L77.1701 133.932C77.1701 133.932 87.5548 136.533 82.7007 147.83C81.9683 148.848 81.391 149.953 80.9937 151.132L80.9689 151.164H80.9813C80.4351 152.802 80.2365 154.565 80.5096 156.347C81.5027 163.05 88.3928 167.588 95.8787 166.471C103.377 165.353 108.647 159.016 107.641 152.299C107.381 150.518 106.692 148.898 105.686 147.489L105.699 147.476L105.668 147.452C104.947 146.446 104.072 145.546 103.067 144.795C95.1525 135.416 104.302 129.891 104.314 129.879L139.41 124.652L136.896 107.738C71.807 103.448 47.1767 66.2919 37.8969 40.2463L27.5991 41.7857L32.8131 76.8877L32.7138 76.9001C32.7138 76.9001 30.1006 87.291 18.8096 82.4431C17.7916 81.6983 16.6867 81.121 15.5198 80.7238L15.4763 80.6989C13.8376 80.1651 12.0872 79.9789 10.3057 80.2396C3.59566 81.2327 -0.935624 88.1228 0.181679 95.6149C1.29898 103.113 7.63657 108.389 14.3404 107.384" fill="#F8A835"/>
<path d="M179.478 120.251C179.478 120.251 171.725 127.632 181.514 135.068C182.65 135.596 183.711 136.272 184.63 137.104L184.661 137.129H184.648C185.927 138.29 186.964 139.723 187.609 141.406C190.036 147.737 186.275 155.074 179.205 157.787C172.135 160.512 164.425 157.582 161.998 151.25C161.34 149.568 161.154 147.818 161.322 146.098L161.334 146.055C161.464 144.832 161.781 143.615 162.296 142.467C164.568 130.394 153.867 130.102 153.867 130.102L120.745 142.833L133.47 175.968C133.47 175.968 140.856 183.72 148.293 173.944C148.82 172.796 149.497 171.734 150.316 170.816L150.347 170.784V170.797C151.508 169.518 152.936 168.488 154.624 167.836C160.955 165.409 168.286 169.171 170.999 176.253C173.717 183.317 170.794 191.026 164.462 193.466C162.78 194.111 161.03 194.31 159.317 194.13L159.273 194.117C158.05 194 156.834 193.658 155.679 193.168C143.612 190.884 143.314 201.585 143.314 201.585L156.039 234.719L247.888 199.418L212.612 107.533L179.484 120.264" fill="#A4A4D4"/>
<path d="M208.18 109.215L212.606 107.521L208.18 109.215Z" fill="#A1BEDD"/>
<path d="M156.027 234.707L151.142 221.969C174.251 215.433 222.258 191.765 208.18 109.221L212.606 107.526L247.882 199.412L156.033 234.713" fill="#8183DA"/>
</svg>
