<svg width="284" height="257" viewBox="0 0 284 257" fill="none" xmlns="http://www.w3.org/2000/svg">
<mask id="mask0_532_738" style="mask-type:luminance" maskUnits="userSpaceOnUse" x="0" y="0" width="284" height="257">
<path d="M283.953 0H0V256.25H283.953V0Z" fill="white"/>
</mask>
<g mask="url(#mask0_532_738)">
<path opacity="0.16" d="M224.258 137.859C224.258 139.361 224.224 140.872 224.148 142.375C224.073 143.878 223.964 145.38 223.813 146.875C223.662 148.369 223.477 149.863 223.259 151.357C223.04 152.843 222.78 154.329 222.486 155.807C222.192 157.284 221.865 158.753 221.496 160.214C221.126 161.675 220.732 163.127 220.295 164.562C219.859 166.006 219.389 167.433 218.877 168.852C218.373 170.271 217.827 171.673 217.256 173.066C216.677 174.46 216.073 175.837 215.426 177.197C214.78 178.557 214.108 179.9 213.395 181.226C212.681 182.552 211.942 183.862 211.17 185.155C210.398 186.448 209.592 187.715 208.752 188.966C207.913 190.217 207.048 191.451 206.158 192.66C205.26 193.869 204.337 195.052 203.38 196.219C202.423 197.386 201.441 198.519 200.433 199.636C199.426 200.752 198.385 201.844 197.319 202.91C196.253 203.976 195.17 205.008 194.053 206.024C192.937 207.032 191.803 208.022 190.637 208.971C189.47 209.928 188.286 210.851 187.077 211.749C185.868 212.648 184.643 213.512 183.392 214.352C182.141 215.191 180.873 215.997 179.581 216.769C178.288 217.542 176.978 218.289 175.652 218.994C174.326 219.708 172.982 220.379 171.622 221.026C170.263 221.672 168.886 222.276 167.501 222.856C166.107 223.435 164.705 223.972 163.295 224.484C161.876 224.988 160.449 225.466 159.014 225.903C157.578 226.339 156.126 226.742 154.665 227.103C153.204 227.473 151.735 227.8 150.266 228.094C148.789 228.388 147.311 228.648 145.817 228.866C144.323 229.085 142.837 229.269 141.343 229.42C139.848 229.571 138.346 229.681 136.843 229.756C135.34 229.832 133.838 229.865 132.335 229.865C130.832 229.865 129.33 229.832 127.827 229.756C126.324 229.681 124.822 229.571 123.327 229.42C121.833 229.269 120.339 229.085 118.853 228.866C117.367 228.648 115.881 228.388 114.404 228.094C112.926 227.8 111.457 227.473 110.005 227.103C108.553 226.734 107.092 226.339 105.656 225.903C104.221 225.466 102.785 224.996 101.375 224.484C99.9564 223.981 98.5545 223.435 97.1693 222.856C95.7758 222.276 94.4075 221.672 93.0475 221.026C91.6876 220.379 90.3444 219.708 89.018 218.994C87.6917 218.281 86.3821 217.542 85.0893 216.769C83.7965 215.997 82.5289 215.191 81.2781 214.352C80.0272 213.512 78.8016 212.648 77.5928 211.749C76.3839 210.851 75.2003 209.928 74.0334 208.971C72.8665 208.014 71.7332 207.032 70.6167 206.024C69.5002 205.017 68.4089 203.976 67.3512 202.91C66.285 201.844 65.2525 200.752 64.2367 199.636C63.2293 198.519 62.2472 197.378 61.2901 196.219C60.3331 195.052 59.4097 193.869 58.5115 192.66C57.6132 191.451 56.7486 190.217 55.9175 188.966C55.0864 187.715 54.2805 186.439 53.4998 185.155C52.7275 183.862 51.9888 182.552 51.2752 181.226C50.5616 179.9 49.8901 178.557 49.2437 177.197C48.5973 175.837 47.9929 174.46 47.4136 173.066C46.8344 171.673 46.2971 170.271 45.7934 168.852C45.2897 167.433 44.8112 166.006 44.3747 164.562C43.9382 163.119 43.5352 161.675 43.1743 160.214C42.8049 158.753 42.4775 157.284 42.1837 155.807C41.8899 154.329 41.6296 152.843 41.4114 151.357C41.1931 149.872 41.0084 148.377 40.8573 146.875C40.7062 145.372 40.5971 143.878 40.5215 142.375C40.446 140.872 40.4124 139.37 40.4124 137.859C40.4124 136.348 40.446 134.845 40.5215 133.342C40.5971 131.84 40.7062 130.337 40.8573 128.843C41.0084 127.348 41.1931 125.854 41.4114 124.36C41.6296 122.874 41.8899 121.388 42.1837 119.911C42.4775 118.433 42.8049 116.964 43.1743 115.503C43.5436 114.043 43.9382 112.591 44.3747 111.155C44.8112 109.711 45.2813 108.284 45.7934 106.865C46.2971 105.447 46.8428 104.045 47.4136 102.651C47.9929 101.258 48.5973 99.8808 49.2437 98.5209C49.8901 97.1609 50.5616 95.8178 51.2752 94.4914C51.9888 93.165 52.7275 91.8554 53.4998 90.5627C54.2721 89.2699 55.078 88.0023 55.9175 86.7514C56.757 85.5006 57.6216 84.2666 58.5115 83.0577C59.4097 81.8489 60.3331 80.6652 61.2901 79.4984C62.2472 78.3315 63.2293 77.1982 64.2367 76.0817C65.2441 74.9652 66.285 73.8739 67.3512 72.8077C68.4173 71.7416 69.5002 70.709 70.6167 69.6933C71.7332 68.6859 72.8665 67.6953 74.0334 66.7467C75.2003 65.7897 76.3839 64.8663 77.5928 63.9681C78.8016 63.0698 80.0272 62.2052 81.2781 61.3657C82.5289 60.5262 83.7965 59.7203 85.0893 58.948C86.3821 58.1757 87.6917 57.4285 89.018 56.7234C90.3444 56.0098 91.6876 55.3383 93.0475 54.6919C94.4075 54.0455 95.7842 53.441 97.1693 52.8618C98.5629 52.2826 99.9648 51.7453 101.375 51.2332C102.794 50.7295 104.221 50.251 105.656 49.8145C107.092 49.378 108.544 48.975 110.005 48.614C111.466 48.2447 112.935 47.9173 114.404 47.6235C115.873 47.3297 117.359 47.0694 118.853 46.8512C120.339 46.6329 121.833 46.4482 123.327 46.2971C124.822 46.146 126.324 46.0369 127.827 45.9613C129.33 45.8858 130.832 45.8522 132.335 45.8522C133.838 45.8522 135.34 45.8858 136.843 45.9613C138.346 46.0369 139.848 46.146 141.343 46.2971C142.837 46.4482 144.331 46.6329 145.817 46.8512C147.303 47.0694 148.789 47.3297 150.266 47.6235C151.744 47.9173 153.213 48.2447 154.665 48.614C156.126 48.9834 157.57 49.378 159.014 49.8145C160.449 50.251 161.885 50.7211 163.295 51.2332C164.714 51.7369 166.115 52.2826 167.501 52.8618C168.894 53.441 170.263 54.0455 171.622 54.6919C172.982 55.3383 174.326 56.0098 175.652 56.7234C176.978 57.4369 178.288 58.1757 179.581 58.948C180.873 59.7203 182.141 60.5262 183.392 61.3657C184.643 62.2052 185.868 63.0698 187.077 63.9681C188.286 64.8663 189.47 65.7897 190.637 66.7467C191.803 67.7037 192.937 68.6859 194.053 69.6933C195.17 70.7007 196.261 71.7416 197.319 72.8077C198.385 73.8739 199.417 74.9652 200.433 76.0817C201.441 77.1982 202.423 78.3399 203.38 79.4984C204.337 80.6652 205.26 81.8489 206.158 83.0577C207.057 84.2666 207.921 85.5006 208.752 86.7514C209.592 88.0023 210.389 89.2783 211.17 90.5627C211.942 91.8554 212.681 93.165 213.395 94.4914C214.1 95.8178 214.78 97.1609 215.426 98.5209C216.073 99.8808 216.677 101.258 217.256 102.651C217.836 104.045 218.373 105.447 218.877 106.865C219.38 108.284 219.859 109.711 220.295 111.155C220.732 112.599 221.135 114.043 221.496 115.503C221.865 116.964 222.192 118.433 222.486 119.911C222.78 121.388 223.04 122.874 223.259 124.36C223.477 125.846 223.662 127.34 223.813 128.843C223.964 130.345 224.073 131.84 224.148 133.342C224.224 134.845 224.258 136.348 224.258 137.859Z" fill="#FFD00B"/>
<path opacity="0.3" d="M203.027 139.437C203.027 140.587 203.002 141.745 202.943 142.896C202.885 144.046 202.801 145.196 202.691 146.346C202.582 147.496 202.44 148.638 202.272 149.779C202.104 150.921 201.902 152.054 201.684 153.188C201.457 154.321 201.206 155.446 200.929 156.562C200.652 157.679 200.341 158.795 200.005 159.895C199.669 160.995 199.308 162.094 198.922 163.177C198.536 164.26 198.116 165.335 197.68 166.401C197.243 167.467 196.773 168.516 196.278 169.566C195.783 170.607 195.27 171.639 194.725 172.655C194.179 173.671 193.617 174.678 193.021 175.66C192.425 176.651 191.812 177.625 191.174 178.582C190.536 179.539 189.873 180.479 189.184 181.411C188.496 182.343 187.791 183.249 187.06 184.139C186.33 185.029 185.575 185.902 184.802 186.758C184.03 187.614 183.232 188.446 182.418 189.26C181.604 190.074 180.773 190.872 179.916 191.644C179.06 192.416 178.187 193.172 177.297 193.902C176.407 194.632 175.501 195.346 174.577 196.026C173.654 196.714 172.714 197.378 171.757 198.016C170.8 198.654 169.826 199.275 168.835 199.862C167.845 200.458 166.846 201.021 165.83 201.567C164.814 202.112 163.782 202.624 162.741 203.12C161.7 203.615 160.65 204.077 159.584 204.521C158.518 204.966 157.444 205.378 156.361 205.764C155.278 206.15 154.187 206.511 153.078 206.847C151.979 207.183 150.862 207.485 149.746 207.77C148.629 208.047 147.504 208.299 146.371 208.526C145.238 208.752 144.104 208.946 142.963 209.113C141.821 209.281 140.679 209.424 139.538 209.533C138.396 209.642 137.246 209.735 136.096 209.785C134.946 209.835 133.796 209.869 132.646 209.869C131.495 209.869 130.345 209.844 129.195 209.785C128.045 209.726 126.895 209.642 125.753 209.533C124.603 209.424 123.462 209.281 122.328 209.113C121.187 208.946 120.053 208.744 118.92 208.526C117.787 208.299 116.67 208.047 115.545 207.77C114.429 207.493 113.321 207.183 112.213 206.847C111.113 206.511 110.013 206.15 108.93 205.764C107.847 205.378 106.773 204.958 105.707 204.521C104.641 204.077 103.591 203.615 102.55 203.12C101.509 202.624 100.477 202.112 99.4611 201.567C98.4453 201.021 97.4464 200.458 96.4558 199.862C95.4652 199.266 94.4914 198.654 93.5344 198.016C92.5774 197.378 91.6372 196.714 90.7138 196.026C89.7903 195.338 88.8837 194.632 87.9939 193.902C87.104 193.172 86.231 192.416 85.3747 191.644C84.5184 190.872 83.6873 190.074 82.8731 189.26C82.0588 188.446 81.2613 187.606 80.4889 186.758C79.7166 185.91 78.9611 185.029 78.2308 184.139C77.5004 183.249 76.7952 182.343 76.1069 181.411C75.4185 180.487 74.7553 179.539 74.1173 178.582C73.4793 177.625 72.8581 176.651 72.2705 175.66C71.6744 174.67 71.112 173.671 70.5663 172.655C70.0207 171.639 69.5086 170.607 69.0133 169.566C68.518 168.525 68.0563 167.467 67.6114 166.401C67.1665 165.335 66.7551 164.26 66.369 163.177C65.9828 162.094 65.6218 160.995 65.286 159.895C64.9502 158.795 64.648 157.679 64.3626 156.562C64.0856 155.446 63.8337 154.321 63.6071 153.188C63.3804 152.054 63.1873 150.921 63.0194 149.779C62.8516 148.638 62.7088 147.496 62.5997 146.346C62.4906 145.196 62.3982 144.046 62.3479 142.896C62.2891 141.745 62.2639 140.595 62.2639 139.437C62.2639 138.278 62.2891 137.128 62.3479 135.978C62.4066 134.828 62.4906 133.678 62.5997 132.528C62.7088 131.378 62.8516 130.236 63.0194 129.095C63.1873 127.953 63.3888 126.82 63.6071 125.686C63.8337 124.553 64.0856 123.428 64.3626 122.312C64.6396 121.195 64.9502 120.079 65.286 118.979C65.6218 117.879 65.9828 116.779 66.369 115.697C66.7551 114.614 67.1749 113.539 67.6114 112.473C68.0479 111.407 68.518 110.357 69.0133 109.308C69.5086 108.267 70.0207 107.235 70.5663 106.219C71.112 105.203 71.6744 104.196 72.2705 103.214C72.8665 102.223 73.4793 101.249 74.1173 100.292C74.7553 99.3351 75.4185 98.3949 76.1069 97.4631C76.7952 96.5397 77.5004 95.6247 78.2308 94.7348C78.9611 93.845 79.7166 92.9719 80.4889 92.1157C81.2613 91.2594 82.0588 90.4283 82.8731 89.614C83.6873 88.7997 84.5184 88.0022 85.3747 87.2299C86.231 86.4576 87.104 85.7021 87.9939 84.9717C88.8837 84.2414 89.7903 83.5278 90.7138 82.8478C91.6372 82.1595 92.5774 81.4963 93.5344 80.8583C94.4914 80.2203 95.4652 79.5991 96.4558 79.0114C97.4464 78.4154 98.4453 77.853 99.4611 77.3073C100.477 76.7616 101.509 76.2496 102.55 75.7543C103.591 75.259 104.641 74.7973 105.707 74.3523C106.773 73.9074 107.847 73.4961 108.93 73.1099C110.013 72.7238 111.105 72.3628 112.213 72.027C113.312 71.6912 114.429 71.389 115.545 71.1036C116.662 70.8265 117.787 70.5747 118.92 70.348C120.053 70.1214 121.187 69.9283 122.328 69.7604C123.47 69.5925 124.612 69.4498 125.753 69.3407C126.904 69.2315 128.045 69.1392 129.195 69.0888C130.345 69.0385 131.495 69.0049 132.646 69.0049C133.796 69.0049 134.946 69.0301 136.096 69.0888C137.246 69.1476 138.396 69.2315 139.538 69.3407C140.688 69.4498 141.829 69.5925 142.963 69.7604C144.104 69.9283 145.238 70.1298 146.371 70.348C147.504 70.5747 148.621 70.8265 149.746 71.1036C150.862 71.3806 151.97 71.6912 153.078 72.027C154.178 72.3628 155.278 72.7238 156.361 73.1099C157.444 73.4961 158.518 73.9158 159.584 74.3523C160.65 74.7973 161.7 75.259 162.741 75.7543C163.782 76.2496 164.814 76.7616 165.83 77.3073C166.846 77.853 167.845 78.4154 168.835 79.0114C169.826 79.6075 170.8 80.2203 171.757 80.8583C172.714 81.4963 173.654 82.1595 174.577 82.8478C175.501 83.5362 176.407 84.2414 177.297 84.9717C178.187 85.7021 179.06 86.4576 179.916 87.2299C180.773 88.0022 181.604 88.7997 182.418 89.614C183.232 90.4283 184.03 91.2678 184.802 92.1157C185.575 92.9719 186.33 93.845 187.06 94.7348C187.791 95.6247 188.496 96.5313 189.184 97.4631C189.873 98.3949 190.536 99.3351 191.174 100.292C191.812 101.249 192.433 102.223 193.021 103.214C193.617 104.204 194.179 105.203 194.725 106.219C195.27 107.235 195.783 108.267 196.278 109.308C196.773 110.349 197.235 111.407 197.68 112.473C198.125 113.539 198.536 114.614 198.922 115.697C199.308 116.779 199.669 117.879 200.005 118.979C200.341 120.079 200.643 121.195 200.929 122.312C201.206 123.428 201.457 124.553 201.684 125.686C201.911 126.82 202.104 127.953 202.272 129.095C202.44 130.236 202.582 131.378 202.691 132.528C202.801 133.678 202.893 134.828 202.943 135.978C203.002 137.128 203.027 138.278 203.027 139.437Z" fill="#FFD00B"/>
<path d="M182.326 154.749C181.73 158.283 180.722 161.691 179.287 164.982C177.851 168.264 176.038 171.329 173.847 174.166C170.17 179.152 165.822 183.467 160.818 187.119C156.982 189.898 152.978 192.391 148.789 194.607C145.322 196.437 142.61 197.738 140.721 198.603L137.951 199.879L140.503 199.325C142.249 198.905 144.885 198.242 148.26 197.193C152.516 195.908 156.646 194.305 160.65 192.366C160.928 192.366 161.179 192.089 161.456 191.946C161.532 192.181 161.599 192.425 161.649 192.668C161.725 193.314 161.725 193.961 161.649 194.607C161.515 195.782 161.179 196.899 160.65 197.948C160.113 199.006 159.416 199.929 158.543 200.735C155.521 203.203 152.121 204.933 148.344 205.923C143.223 207.644 137.968 208.685 132.578 209.055C127.726 209.365 122.891 209.155 118.081 208.417C116.024 208.173 114.018 207.695 112.07 207.006C110.525 206.469 109.266 205.546 108.301 204.236C107.931 203.724 107.696 203.153 107.612 202.523C107.52 201.894 107.587 201.281 107.806 200.685C108.141 199.56 108.771 198.637 109.686 197.915C110.257 197.47 110.895 197.151 111.6 196.975L114.068 198.225L116.838 199.476C116.502 199.199 115.705 198.645 114.479 197.839C112.045 196.152 109.745 194.305 107.579 192.29C103.633 188.563 100.208 184.416 97.3121 179.832C94.4075 175.249 92.1157 170.38 90.4284 165.226C88.1534 158.157 87.2299 150.921 87.6581 143.508C88.0358 135.021 90.0422 126.945 93.6687 119.273C95.6163 115.126 98.0508 111.298 100.972 107.772C103.894 104.246 107.218 101.148 110.928 98.4704C114.689 95.7505 118.811 93.8365 123.319 92.7284C125.51 92.2247 127.735 92.0149 129.984 92.0904C132.234 92.166 134.434 92.5269 136.591 93.1733C145.599 95.8093 154.136 102.601 161.532 109.258C165.066 112.313 168.256 115.688 171.11 119.382C173.965 123.084 176.416 127.029 178.464 131.218C180.235 134.87 181.444 138.707 182.099 142.711C182.754 146.715 182.829 150.736 182.317 154.766L182.326 154.749Z" fill="#FFD00B"/>
<path opacity="0.42" d="M170.212 116.477C165.394 118.408 160.936 120.977 156.856 124.184C154.699 125.779 152.701 127.558 150.862 129.514C149.024 131.47 147.37 133.569 145.901 135.819C144.432 138.069 143.181 140.427 142.132 142.896C141.082 145.364 140.268 147.916 139.672 150.526C139.244 153.171 139.042 155.832 139.084 158.51C139.126 161.188 139.403 163.84 139.915 166.468C140.428 169.096 141.166 171.664 142.14 174.158C143.105 176.651 144.289 179.043 145.683 181.335C148.277 185.902 151.475 189.999 155.269 193.617C159.316 190.972 163.009 187.908 166.359 184.408C169.96 180.907 172.966 176.953 175.392 172.554C177.818 168.155 179.555 163.505 180.596 158.585C182.51 148.906 179.74 138.782 176.718 130.631C174.896 125.745 172.731 121.019 170.204 116.46L170.212 116.477Z" fill="white"/>
<path d="M158.048 211.993C157.444 213.714 156.545 215.267 155.345 216.635C154.145 218.003 152.726 219.103 151.097 219.926C146.388 222.268 141.41 223.603 136.163 223.922C131.311 224.425 126.467 224.425 121.615 223.922C117.073 223.502 113.581 222.453 111.751 220.01C110.895 218.927 110.5 217.701 110.559 216.324C110.651 215.2 111.071 214.209 111.81 213.361C112.011 213.118 112.246 212.908 112.507 212.723C113.69 213.235 114.899 213.672 116.133 214.024C118.853 214.864 121.632 215.443 124.461 215.779C127.29 216.106 130.127 216.182 132.965 215.997C135.802 215.812 138.606 215.367 141.368 214.671C144.13 213.974 146.799 213.025 149.393 211.842C152.818 210.364 155.907 208.358 158.653 205.823C158.997 207.938 158.804 209.995 158.073 212.01L158.048 211.993Z" fill="#FFD00B"/>
<path d="M154.229 229.597C153.565 230.856 152.709 231.964 151.66 232.913C150.61 233.861 149.418 234.608 148.109 235.146C144.272 236.673 140.293 237.345 136.163 237.169C132.268 237.102 128.406 236.699 124.578 235.951C121.481 235.54 118.542 234.617 115.764 233.181C115.294 232.887 114.899 232.518 114.572 232.073C114.286 231.712 114.102 231.309 114.018 230.856C113.892 230 114.043 229.194 114.463 228.447C114.605 228.203 114.765 227.985 114.958 227.783C116.595 228.572 118.291 229.185 120.053 229.613C125.602 231.04 131.227 231.477 136.927 230.915C139.832 230.705 142.669 230.142 145.439 229.244C148.209 228.346 150.829 227.129 153.305 225.584C153.935 225.173 154.548 224.728 155.135 224.249C155.404 226.13 155.102 227.918 154.22 229.605L154.229 229.597Z" fill="#FFD00B"/>
<path d="M147.739 241.97C147.739 242.189 147.488 242.466 147.378 242.743C146.539 244.522 145.481 246.159 144.188 247.654C143.5 248.51 142.677 249.207 141.712 249.744C140.755 250.281 139.731 250.617 138.639 250.76C136.507 250.953 134.476 250.592 132.545 249.677C130.799 248.795 129.263 247.629 127.945 246.185C126.92 245.119 125.997 243.977 125.174 242.743C125.174 242.743 125.006 242.466 124.922 242.357C128.524 243.515 132.226 244.111 136.012 244.162C140.075 244.287 143.987 243.557 147.731 241.97H147.739Z" fill="#FFD00B"/>
<path d="M193.105 147.395C192.979 152.373 192.055 157.2 190.334 161.868C188.823 165.729 186.876 169.364 184.508 172.773C182.133 176.172 179.396 179.253 176.29 182.007C171.849 185.994 166.947 189.285 161.574 191.879C161.297 192.022 161.045 192.181 160.768 192.299C156.764 194.23 152.634 195.841 148.377 197.126C144.994 198.183 142.367 198.847 140.621 199.258L138.069 199.812L140.839 198.536C142.719 197.68 145.439 196.37 148.906 194.54C153.053 192.341 157.024 189.864 160.827 187.111C165.838 183.501 170.204 179.22 173.906 174.267C176.097 171.429 177.91 168.374 179.346 165.083C180.781 161.801 181.797 158.384 182.385 154.85C182.897 150.82 182.813 146.799 182.158 142.795C181.503 138.791 180.277 134.954 178.506 131.302C176.449 127.105 173.998 123.16 171.152 119.466C168.298 115.764 165.108 112.389 161.574 109.342C154.061 102.685 145.532 95.8933 136.633 93.2574C134.476 92.611 132.276 92.25 130.026 92.1745C127.777 92.0989 125.552 92.3088 123.361 92.8125C118.861 93.887 114.723 95.759 110.945 98.4453C107.235 101.123 103.91 104.221 100.989 107.747C98.0676 111.273 95.6247 115.101 93.6855 119.248C91.8722 123.042 90.4535 126.979 89.4294 131.059C88.4052 135.139 87.7924 139.277 87.5909 143.483C87.1628 150.896 88.0862 158.132 90.3612 165.2C92.0485 170.355 94.3403 175.224 97.2449 179.807C100.149 184.391 103.575 188.546 107.512 192.265C109.678 194.28 111.978 196.127 114.412 197.814C115.629 198.62 116.435 199.174 116.771 199.451L114.001 198.2L111.533 196.949L110.954 196.891C109.149 195.908 107.403 194.826 105.715 193.642C100.754 190.158 96.3718 186.061 92.5606 181.352C88.7494 176.643 85.6601 171.497 83.2928 165.914C79.9685 157.981 78.256 149.721 78.1636 141.124C78.13 136.197 78.6085 131.319 79.6075 126.492C80.5981 121.665 82.0924 116.998 84.0651 112.481C86.2562 107.361 89.0768 102.609 92.5438 98.2523C96.0109 93.887 99.99 90.0674 104.49 86.7766C109.526 83.1417 115.067 80.6401 121.12 79.2633C124.326 78.533 127.575 78.2224 130.866 78.3399C134.157 78.449 137.372 78.9863 140.52 79.9349C147.311 82.084 153.532 85.3411 159.173 89.698C164.168 93.4505 168.852 97.5639 173.226 102.038C177.406 106.16 181.025 110.727 184.072 115.747C187.119 120.767 189.512 126.081 191.241 131.689C192.651 136.835 193.281 142.081 193.121 147.412L193.105 147.395Z" fill="#443D6B"/>
<path d="M160.457 203.749L159.626 204.807C159.341 205.168 159.014 205.487 158.653 205.781C155.907 208.316 152.827 210.322 149.393 211.8C146.808 212.983 144.13 213.932 141.368 214.629C138.606 215.326 135.81 215.77 132.965 215.955C130.127 216.14 127.29 216.073 124.461 215.737C121.632 215.409 118.861 214.822 116.133 213.982C114.899 213.63 113.682 213.193 112.507 212.681L111.592 212.236C110.769 211.842 109.98 211.38 109.233 210.851C108.192 210.221 107.302 209.424 106.546 208.467C105.791 207.51 105.228 206.461 104.851 205.302C104.582 204.202 104.582 203.103 104.851 202.003C104.993 201.441 105.203 200.912 105.48 200.408C105.757 199.904 106.093 199.443 106.488 199.023C106.882 198.603 107.327 198.242 107.814 197.932C108.301 197.621 108.821 197.386 109.367 197.21C110.433 196.907 111.491 196.907 112.557 197.21C112.246 197.193 111.927 197.193 111.617 197.21C110.912 197.394 110.274 197.705 109.703 198.15C108.779 198.872 108.15 199.795 107.822 200.92C107.604 201.483 107.528 202.062 107.587 202.666C107.646 203.271 107.839 203.825 108.158 204.328C109.123 205.646 110.383 206.57 111.927 207.099C113.875 207.795 115.881 208.266 117.938 208.509C122.748 209.248 127.575 209.458 132.436 209.147C137.825 208.778 143.08 207.728 148.201 206.016C151.979 205.025 155.379 203.296 158.401 200.828C159.265 200.022 159.971 199.098 160.508 198.041C161.045 196.983 161.372 195.875 161.507 194.7C161.582 194.053 161.582 193.407 161.507 192.76C161.456 192.517 161.389 192.273 161.314 192.038L161.171 191.342C161.171 191.342 161.339 191.703 161.473 192.005C161.582 192.274 161.717 192.534 161.859 192.777C162.271 193.474 162.556 194.229 162.716 195.027C162.967 196.572 162.9 198.108 162.497 199.619C162.094 201.13 161.414 202.507 160.441 203.732L160.457 203.749Z" fill="#443D6B"/>
<path d="M161.289 213.764C160.944 216.031 160.147 218.121 158.879 220.035C158.023 221.303 157.024 222.453 155.882 223.477L155.135 224.174C154.548 224.652 153.935 225.089 153.305 225.508C150.829 227.045 148.209 228.262 145.439 229.169C142.669 230.075 139.832 230.629 136.927 230.839C131.227 231.393 125.602 230.965 120.053 229.538C118.291 229.11 116.586 228.497 114.958 227.708L114.152 227.431C113.732 227.213 113.346 226.961 112.96 226.709C111.953 226.037 111.063 225.231 110.307 224.283C109.552 223.334 108.956 222.293 108.527 221.16C108.15 220.236 107.965 219.279 107.965 218.289C107.965 217.298 108.15 216.341 108.527 215.418C109.123 214.108 110.047 213.101 111.298 212.396C111.398 212.371 111.499 212.371 111.6 212.396C112.473 211.926 113.396 211.791 114.37 211.976C113.673 212.127 113.035 212.413 112.456 212.832C112.196 213.017 111.969 213.227 111.759 213.47C111.054 214.293 110.651 215.25 110.542 216.325C110.509 217.701 110.937 218.927 111.818 219.985C113.648 222.428 117.14 223.477 121.682 223.897C126.534 224.4 131.378 224.4 136.23 223.897C141.477 223.578 146.455 222.251 151.164 219.901C152.776 219.078 154.178 217.978 155.362 216.61C156.554 215.242 157.444 213.705 158.031 211.993C158.753 209.97 158.93 207.896 158.56 205.781C158.535 205.495 158.485 205.218 158.392 204.95C158.216 204.328 157.981 203.724 157.696 203.145L157.477 202.448C157.67 202.624 157.872 202.792 158.09 202.943C158.669 203.472 159.173 204.068 159.618 204.715C160.449 206.066 161.003 207.518 161.289 209.08C161.574 210.641 161.574 212.194 161.28 213.756L161.289 213.764Z" fill="#443D6B"/>
<path d="M157.242 231.486C156.823 233.341 156.042 235.02 154.883 236.531C153.557 238.294 151.928 239.721 150.006 240.804C149.309 241.207 148.587 241.568 147.849 241.887C144.121 243.465 140.226 244.195 136.18 244.078C132.394 244.036 128.7 243.431 125.099 242.273L124.486 242.055C123.848 241.87 123.218 241.643 122.605 241.391C120.75 240.669 118.971 239.805 117.258 238.781C115.613 237.824 114.219 236.581 113.077 235.062C112.565 234.365 112.221 233.601 112.036 232.762C111.852 231.922 111.852 231.083 112.02 230.235C112.33 229.076 112.977 228.153 113.959 227.464L114.32 227.271C114.975 226.843 115.68 226.692 116.452 226.826C115.94 226.986 115.495 227.271 115.126 227.658C114.933 227.859 114.765 228.077 114.63 228.321C114.211 229.076 114.06 229.882 114.186 230.73C114.269 231.183 114.454 231.586 114.74 231.947C115.067 232.392 115.462 232.762 115.932 233.055C118.71 234.491 121.648 235.414 124.746 235.826C128.574 236.573 132.436 236.976 136.331 237.043C140.453 237.219 144.44 236.548 148.277 235.02C149.595 234.491 150.778 233.744 151.828 232.787C152.877 231.83 153.733 230.73 154.396 229.471C155.32 227.725 155.622 225.878 155.311 223.922C155.219 223.393 155.076 222.873 154.892 222.369C154.816 222.209 154.757 222.041 154.724 221.874L155.194 222.26C155.505 222.57 155.79 222.906 156.05 223.259C156.05 223.427 156.302 223.594 156.411 223.788C157.074 224.954 157.477 226.205 157.62 227.54C157.763 228.875 157.637 230.184 157.242 231.469V231.486Z" fill="#443D6B"/>
<path d="M149.905 240.888C149.914 241.945 149.855 242.995 149.737 244.052C149.477 246.495 148.688 248.762 147.378 250.844C146.531 252.153 145.473 253.253 144.188 254.143C142.661 255.175 140.982 255.78 139.143 255.973C137.481 256.132 135.844 255.973 134.249 255.486C132.646 255.008 131.193 254.244 129.892 253.194C127.945 251.633 126.517 249.694 125.594 247.368C125.023 245.95 124.645 244.481 124.461 242.961V241.349L125.099 242.373C125.099 242.373 125.241 242.625 125.351 242.76C126.173 243.985 127.097 245.135 128.121 246.201C129.355 247.578 130.79 248.703 132.419 249.585C134.35 250.5 136.381 250.861 138.514 250.667C139.622 250.55 140.663 250.231 141.645 249.71C142.627 249.19 143.475 248.502 144.188 247.645C145.464 246.151 146.522 244.514 147.345 242.734C147.345 242.457 147.597 242.18 147.706 241.962L149.032 239.192L149.67 237.941V239.553C149.863 239.889 149.888 240.359 149.888 240.888H149.905Z" fill="#443D6B"/>
<path d="M118.475 197.428C118.475 197.428 118.945 190.301 119.172 178.405V163.043C119.054 161.196 119.054 159.349 119.172 157.494C119.18 156.898 119.331 156.336 119.617 155.815C119.902 155.295 120.289 154.858 120.784 154.531C121.17 154.313 121.338 154.363 121.422 154.388C121.707 154.556 121.934 154.783 122.119 155.051C122.505 155.664 122.782 156.319 122.95 157.024C123.201 158.132 123.479 159.24 123.722 160.348C124.108 161.927 124.788 163.362 125.745 164.672C126.114 165.15 126.517 165.595 126.954 166.015C127.39 166.426 127.861 166.804 128.364 167.14C128.868 167.475 129.388 167.769 129.934 168.021C130.48 168.273 131.051 168.474 131.63 168.634C132.209 168.793 132.805 168.903 133.401 168.97C133.997 169.029 134.602 169.045 135.206 169.012C135.81 168.978 136.406 168.894 136.994 168.76C137.582 168.626 138.153 168.449 138.715 168.223C140.092 167.627 141.292 166.787 142.325 165.704C143.357 164.621 144.138 163.379 144.675 161.977C145.171 160.055 145.557 158.115 145.842 156.151C145.825 156.042 145.851 155.941 145.926 155.849C146.002 155.756 146.094 155.714 146.203 155.706C146.304 155.656 146.405 155.656 146.505 155.706C146.505 155.79 146.505 155.874 146.505 155.958C146.782 157.016 146.925 158.728 147.143 160.147L148.335 168.466C149.141 173.62 149.888 178.12 150.526 181.805C151.828 189.21 152.717 193.424 152.717 193.424C152.717 193.424 152.911 189.621 152.936 182.334C152.936 178.733 152.936 174.233 152.768 168.936C152.768 166.166 152.6 163.387 152.491 160.365V158.006C152.533 157.284 152.541 156.562 152.516 155.84V155.068C152.516 154.732 152.348 154.321 152.264 153.985C152.054 153.246 151.752 152.558 151.349 151.903C150.98 151.24 150.501 150.669 149.914 150.191C149.326 149.712 148.671 149.36 147.941 149.133C147.538 149.049 147.127 149.007 146.715 148.999C146.304 148.99 145.893 149.024 145.481 149.083C145.07 149.15 144.675 149.25 144.289 149.393C143.903 149.536 143.525 149.704 143.164 149.914C142.803 150.124 142.467 150.359 142.157 150.627C141.838 150.896 141.552 151.19 141.292 151.509C141.032 151.828 140.797 152.172 140.595 152.533C140.394 152.894 140.226 153.272 140.1 153.666C139.647 154.825 139.336 156.017 139.16 157.242C139.051 158.015 138.891 158.77 138.665 159.517C138.438 160.055 138.127 160.525 137.716 160.936C137.305 161.347 136.843 161.666 136.306 161.901C135.768 162.136 135.198 162.237 134.61 162.212C134.022 162.187 133.468 162.036 132.948 161.759C132.385 161.49 131.898 161.112 131.504 160.625C131.076 160.096 130.782 159.509 130.614 158.854C130.337 158.023 130.119 156.999 129.783 155.807C129.439 154.413 128.885 153.112 128.121 151.895C127.197 150.375 125.921 149.259 124.293 148.537C123.411 148.159 122.488 147.966 121.523 147.966C120.557 147.966 119.634 148.159 118.752 148.537C117.25 149.242 116.058 150.3 115.176 151.702C114.37 152.995 113.875 154.396 113.707 155.916C113.489 158.073 113.539 160.231 113.875 162.38C114.093 164.269 114.295 166.099 114.488 167.929C114.907 171.455 115.319 174.779 115.68 177.801C117.208 189.839 118.475 197.436 118.475 197.436V197.428Z" fill="#443D6B"/>
<path d="M67.7877 84.5857C67.7877 84.5857 65.3784 82.0924 61.2482 78.1217C57.1179 74.1594 51.4095 68.7448 44.6182 62.7005C37.8268 56.6563 32.068 51.6111 27.7447 47.7495C23.4214 43.8963 20.6763 41.7892 20.6763 41.7892C20.6763 41.7892 20.9533 42.486 21.5661 43.7871C22.4728 45.6844 23.4718 47.5396 24.5631 49.3361C28.8192 56.2282 33.9568 62.3815 39.9675 67.8045C45.6759 72.9421 51.9552 77.2402 58.8137 80.6989C61.7183 82.2099 64.7068 83.5027 67.7961 84.5773L67.7877 84.5857Z" fill="#443D6B"/>
<path d="M149.292 0C147.152 9.1251 146.228 18.3677 146.522 27.7363C146.749 37.0964 148.167 46.2635 150.787 55.2459C153.137 46.146 154.069 36.9034 153.557 27.5096C153.23 18.1663 151.802 8.99918 149.292 0Z" fill="#443D6B"/>
<path d="M232.098 103.801C232.098 103.801 234.675 102.777 238.697 100.838C242.718 98.8986 248.199 96.12 254.185 92.5186C260.17 88.9173 265.274 85.4754 268.842 82.8646C272.418 80.2539 274.609 78.4574 274.609 78.4574C272.368 78.5749 270.16 78.9023 267.986 79.4312C261.841 80.9171 256.057 83.2928 250.634 86.5583C245.471 89.656 240.846 93.4336 236.774 97.8745C235.07 99.7381 233.509 101.719 232.09 103.81L232.098 103.801Z" fill="#443D6B"/>
<path d="M225.424 168.617C234.986 171.194 244.707 172.563 254.605 172.722C264.494 172.999 274.265 172.076 283.928 169.952C274.408 167.14 264.695 165.754 254.773 165.788C244.883 165.612 235.104 166.56 225.424 168.617Z" fill="#443D6B"/>
<path d="M199.258 213.101C200.005 215.77 201.029 218.322 202.33 220.774C203.632 223.217 205.168 225.5 206.956 227.615C208.744 229.731 210.734 231.637 212.925 233.324C215.116 235.011 217.466 236.455 219.968 237.639C219.313 234.936 218.331 232.359 217.021 229.907C215.72 227.456 214.134 225.198 212.261 223.141C208.601 218.927 204.261 215.577 199.266 213.101H199.258Z" fill="#443D6B"/>
<path d="M15.2449 242.718C22.7834 239.301 29.6671 234.86 35.8876 229.404C42.1669 223.981 47.5311 217.768 51.9888 210.767C44.3327 213.991 37.449 218.423 31.3461 224.048C25.1339 229.538 19.7697 235.758 15.2449 242.709V242.718Z" fill="#443D6B"/>
<path d="M0.0839563 149.309C2.65275 150.191 5.28871 150.778 7.98342 151.08C10.6781 151.383 13.3813 151.391 16.076 151.106C18.7791 150.82 21.415 150.249 23.9838 149.385C26.561 148.52 29.0123 147.395 31.3376 146.002C28.794 145.028 26.1665 144.39 23.455 144.079C20.7435 143.777 18.0403 143.811 15.3456 144.197C9.90582 144.86 4.8186 146.556 0.0755615 149.301L0.0839563 149.309Z" fill="#443D6B"/>
<path d="M116.872 101.501C116.872 101.501 115.68 102.114 113.573 103.474C110.593 105.489 107.864 107.814 105.396 110.433C101.577 114.479 98.4705 119.021 96.0864 124.049C94.5502 127.248 93.3413 130.564 92.4599 134.006C91.5784 137.447 91.0412 140.931 90.8481 144.474C90.655 148.016 90.8145 151.542 91.3182 155.06C91.8219 158.569 92.6614 162.002 93.845 165.343C95.6583 170.598 98.2355 175.451 101.577 179.9C103.734 182.788 106.194 185.398 108.947 187.724C110.861 189.302 111.994 190.049 111.994 190.049C111.994 190.049 111.659 188.916 110.97 186.859C110.274 184.811 109.333 181.755 108.2 177.902C105.312 167.207 104.103 156.327 104.574 145.263C105.136 134.786 107.209 124.612 110.811 114.756C111.994 111.491 113.354 108.301 114.882 105.186L116.88 101.501H116.872Z" fill="white"/>
<path d="M111.105 201.869C111.508 203.01 112.112 204.018 112.935 204.908C113.757 205.797 114.714 206.486 115.822 206.973C117.015 207.199 118.198 207.174 119.373 206.914C120.549 206.654 121.632 206.158 122.614 205.453C122.278 204.278 121.699 203.237 120.868 202.339C120.037 201.441 119.046 200.777 117.904 200.349C116.721 200.156 115.537 200.19 114.362 200.458C113.187 200.727 112.104 201.197 111.113 201.877L111.105 201.869Z" fill="white"/>
<path d="M115.764 218.062C115.764 218.062 117.149 222.025 120.255 222.83C121.388 222.965 122.496 222.856 123.579 222.511C124.662 222.167 125.636 221.622 126.484 220.858C126.173 219.75 125.619 218.776 124.83 217.945C124.041 217.105 123.109 216.501 122.018 216.115C120.885 215.997 119.776 216.106 118.685 216.442C117.594 216.778 116.62 217.315 115.755 218.054L115.764 218.062Z" fill="white"/>
<path d="M120.968 99.1756C120.968 99.1756 123.881 101.946 126.266 100.981C128.65 100.015 129.262 96.2123 129.262 96.2123C129.262 96.2123 126.492 93.442 123.94 94.441C121.699 95.2217 120.977 99.184 120.977 99.184L120.968 99.1756Z" fill="white"/>
</g>
</svg>
