<svg width="163" height="50" viewBox="0 0 163 50" fill="none" xmlns="http://www.w3.org/2000/svg">
<g clip-path="url(#clip0_515_6301)">
<path d="M24.8476 49.4999C38.4874 49.4999 49.5447 38.419 49.5447 24.75C49.5447 11.081 38.4874 0 24.8476 0C11.2078 0 0.150482 11.081 0.150482 24.75C0.150482 38.419 11.2078 49.4999 24.8476 49.4999Z" fill="#2396E9"/>
<g filter="url(#filter0_d_515_6301)">
<path d="M39.628 32.1132C41.6485 28.0509 42.0673 23.0507 39.9619 17.9113C39.168 15.9858 37.9908 14.2426 36.5021 12.7884C35.0133 11.3342 33.2444 10.1994 31.3033 9.45341C17.3232 4.09958 4.25802 17.1709 9.5604 31.1788C10.3141 33.1535 11.4657 34.9513 12.9433 36.4604C14.421 37.9694 16.193 39.1571 18.149 39.9495C23.4689 42.1037 28.6163 41.5286 32.7246 39.2809C33.2796 38.9664 33.9245 38.8492 34.5543 38.9483L38.1968 39.5769C38.4011 39.6124 38.6109 39.6 38.8097 39.5408C39.0085 39.4817 39.191 39.3772 39.3429 39.2358C39.4948 39.0943 39.6121 38.9195 39.6855 38.7252C39.7589 38.5308 39.7865 38.3221 39.7662 38.1152C39.6259 36.7013 39.428 34.7806 39.3186 33.6965C39.2692 33.15 39.3766 32.6007 39.628 32.1132Z" fill="white"/>
</g>
<path d="M18.6398 24.719C20.4202 24.719 21.8635 23.2727 21.8635 21.4884C21.8635 19.7042 20.4202 18.2578 18.6398 18.2578C16.8594 18.2578 15.4161 19.7042 15.4161 21.4884C15.4161 23.2727 16.8594 24.719 18.6398 24.719Z" fill="#15CF68"/>
<path d="M30.5383 24.719C32.3187 24.719 33.7619 23.2727 33.7619 21.4884C33.7619 19.7042 32.3187 18.2578 30.5383 18.2578C28.7579 18.2578 27.3145 19.7042 27.3145 21.4884C27.3145 23.2727 28.7579 24.719 30.5383 24.719Z" fill="#15CF68"/>
</g>
<path d="M70.4016 17.8803V32.1203H66.5259V30.7813C65.6737 31.8628 64.4073 32.5188 62.676 32.5188C59.2909 32.5201 56.4997 29.2444 56.4997 25.001C56.4997 20.7575 59.2909 17.4818 62.6747 17.4818C64.406 17.4818 65.6725 18.1378 66.5246 19.2193V17.8803H70.4016ZM66.5259 25.001C66.5259 22.865 65.2335 21.526 63.4506 21.526C61.6677 21.526 60.3754 22.865 60.3754 25.001C60.3754 27.1369 61.6677 28.4759 63.4506 28.4759C65.2335 28.4759 66.5259 27.1369 66.5259 25.001Z" fill="#2396E9"/>
<path d="M86.3942 23.2494V31.8027H82.4845V23.862C82.4845 22.1343 81.4674 21.3256 80.2159 21.3256C78.782 21.3256 77.7922 22.2179 77.7922 24.1961V31.8027H73.8825V17.8716H77.7922V19.1816C78.4967 18.1514 79.7991 17.4818 81.5195 17.4818C84.1516 17.4818 86.3942 19.4879 86.3942 23.2494Z" fill="#2396E9"/>
<path d="M101.686 18.198L96.9766 31.5833C95.4342 35.9711 92.9837 37.7099 89.1284 37.5168V33.6531C91.056 33.6531 91.9655 33.0463 92.5696 31.3626L87.0894 18.198H91.6326L94.6899 26.6426L97.278 18.198H101.686V18.198Z" fill="#2396E9"/>
<path d="M115.584 12.4688V32.1252H111.708V30.805C110.856 31.8713 109.589 32.5181 107.858 32.5181C104.472 32.5181 101.682 29.2883 101.682 25.1045C101.682 20.9207 104.473 17.6909 107.858 17.6909C109.589 17.6909 110.856 18.3376 111.708 19.404V12.4688H115.584V12.4688ZM111.708 25.1058C111.708 22.9999 110.415 21.6797 108.632 21.6797C106.849 21.6797 105.557 22.9999 105.557 25.1058C105.557 27.2118 106.849 28.532 108.632 28.532C110.415 28.532 111.708 27.2118 111.708 25.1058Z" fill="#00CB5B"/>
<path d="M118.358 25.0003C118.358 20.7573 121.452 17.4818 125.309 17.4818C129.164 17.4818 132.26 20.7573 132.26 25.0003C132.26 29.2433 129.164 32.5188 125.309 32.5188C121.453 32.5188 118.358 29.2433 118.358 25.0003ZM128.326 25.0003C128.326 22.9784 127.014 21.6395 125.309 21.6395C123.604 21.6395 122.292 22.9784 122.292 25.0003C122.292 27.0222 123.604 28.3598 125.309 28.3598C127.014 28.3598 128.326 27.0222 128.326 25.0003Z" fill="#00CB5B"/>
<path d="M146.867 23.2494V31.8027H142.957V23.862C142.957 22.1343 141.94 21.3256 140.688 21.3256C139.254 21.3256 138.265 22.2179 138.265 24.1961V31.8027H134.355V17.8716H138.265V19.1816C138.969 18.1514 140.272 17.4818 141.992 17.4818C144.625 17.4818 146.867 19.4879 146.867 23.2494Z" fill="#00CB5B"/>
<path d="M156.407 28.7013C157.502 28.7013 158.439 28.2459 158.973 27.6198L162.182 29.5848C160.871 31.5214 158.893 32.5188 156.353 32.5188C151.781 32.5188 148.948 29.2433 148.948 25.0003C148.948 20.7573 151.836 17.4818 156.059 17.4818C159.963 17.4818 162.849 20.7003 162.849 25.0003C162.849 25.5979 162.796 26.1671 162.689 26.7092H153.198C153.706 28.189 154.936 28.7013 156.407 28.7013ZM158.866 23.5191C158.439 21.8671 157.235 21.2695 156.033 21.2695C154.509 21.2695 153.492 22.0677 153.118 23.5191H158.866Z" fill="#00CB5B"/>
<defs>
<filter id="filter0_d_515_6301" x="7.55996" y="8.22656" width="39.3506" height="39.4212" filterUnits="userSpaceOnUse" color-interpolation-filters="sRGB">
<feFlood flood-opacity="0" result="BackgroundImageFix"/>
<feColorMatrix in="SourceAlpha" type="matrix" values="0 0 0 0 0 0 0 0 0 0 0 0 0 0 0 0 0 0 127 0" result="hardAlpha"/>
<feOffset dx="2.38095" dy="3.1746"/>
<feGaussianBlur stdDeviation="1.5873"/>
<feColorMatrix type="matrix" values="0 0 0 0 0 0 0 0 0 0 0 0 0 0 0 0 0 0 0.25 0"/>
<feBlend mode="normal" in2="BackgroundImageFix" result="effect1_dropShadow_515_6301"/>
<feBlend mode="normal" in="SourceGraphic" in2="effect1_dropShadow_515_6301" result="shape"/>
</filter>
<clipPath id="clip0_515_6301">
<rect width="50" height="50" fill="white" transform="translate(0.150482)"/>
</clipPath>
</defs>
</svg>
