<?xml version="1.0" encoding="UTF-8"?>
<svg id="Layer_1" data-name="Layer 1" xmlns="http://www.w3.org/2000/svg" xmlns:xlink="http://www.w3.org/1999/xlink" viewBox="0 0 772 245">
  <defs>
    <style>
      .cls-1 {
        fill: #fff;
      }

      .cls-2 {
        fill: url(#linear-gradient-2);
        fill-rule: evenodd;
      }

      .cls-3 {
        fill: url(#linear-gradient);
      }
    </style>
    <linearGradient id="linear-gradient" x1="115.62" y1="232.5" x2="115.62" y2="7.74" gradientUnits="userSpaceOnUse">
      <stop offset="0" stop-color="#7cc1e6"/>
      <stop offset="1" stop-color="#216bb3"/>
    </linearGradient>
    <linearGradient id="linear-gradient-2" x1="111.89" y1="233.68" x2="111.89" y2="164.8" gradientUnits="userSpaceOnUse">
      <stop offset="0" stop-color="#88a087"/>
      <stop offset="1" stop-color="#006233"/>
    </linearGradient>
  </defs>
  <g>
    <path class="cls-1" d="m312.42,113.71v-1.72c-2.12,2.68-4.21,4.86-6.27,6.54-2.06,1.68-4.3,2.96-6.7,3.83-2.41.87-5.04,1.31-7.89,1.31-3.78,0-7.27-.88-10.49-2.65-3.22-1.76-6-4.28-8.35-7.56-2.35-3.27-4.13-7.12-5.34-11.54-1.21-4.42-1.82-9.21-1.82-14.35,0-10.88,2.41-19.37,7.22-25.45,4.81-6.08,11.15-9.12,19.01-9.12,4.54,0,8.38.86,11.5,2.58,3.12,1.72,6.16,4.37,9.13,7.94v-25.71c0-3.57.64-6.27,1.94-8.1,1.29-1.83,3.13-2.74,5.52-2.74s4.23.84,5.52,2.52c1.29,1.68,1.94,4.16,1.94,7.43v76.8c0,3.32-.69,5.8-2.08,7.46-1.39,1.66-3.18,2.49-5.37,2.49s-3.94-.86-5.34-2.58c-1.41-1.72-2.11-4.18-2.11-7.37Zm-31.03-25.58c0,4.72.67,8.74,1.99,12.06,1.33,3.32,3.15,5.82,5.46,7.49,2.31,1.68,4.83,2.52,7.57,2.52s5.31-.8,7.6-2.39c2.29-1.59,4.12-4.04,5.49-7.33,1.37-3.29,2.05-7.41,2.05-12.34,0-4.63-.68-8.62-2.05-11.96-1.37-3.34-3.22-5.89-5.55-7.65-2.33-1.76-4.88-2.65-7.66-2.65s-5.47.9-7.74,2.71c-2.27,1.81-4.04,4.4-5.29,7.78-1.25,3.38-1.88,7.3-1.88,11.77Z"/>
    <path class="cls-1" d="m384.23,92.54h-30.85c.04,3.95.76,7.44,2.17,10.46,1.41,3.02,3.27,5.29,5.6,6.82,2.33,1.53,4.9,2.3,7.71,2.3,1.89,0,3.61-.24,5.17-.73,1.56-.49,3.07-1.25,4.54-2.3,1.46-1.04,2.81-2.16,4.04-3.35,1.23-1.19,2.83-2.81,4.8-4.85.81-.77,1.96-1.15,3.47-1.15,1.62,0,2.93.49,3.93,1.47,1,.98,1.5,2.36,1.5,4.15,0,1.57-.56,3.41-1.68,5.52-1.12,2.11-2.8,4.12-5.06,6.06-2.25,1.94-5.08,3.54-8.49,4.82-3.41,1.28-7.33,1.91-11.76,1.91-10.13,0-18.01-3.19-23.63-9.57-5.62-6.38-8.44-15.03-8.44-25.96,0-5.14.69-9.92,2.08-14.32s3.41-8.17,6.07-11.32c2.66-3.15,5.93-5.56,9.82-7.24,3.89-1.68,8.2-2.52,12.94-2.52,6.16,0,11.45,1.44,15.86,4.31,4.41,2.87,7.71,6.58,9.91,11.13,2.2,4.55,3.29,9.19,3.29,13.91,0,4.38-1.14,7.22-3.41,8.52-2.27,1.3-5.47,1.95-9.59,1.95Zm-30.85-9.89h28.6c-.38-5.95-1.84-10.41-4.36-13.36-2.52-2.96-5.85-4.43-9.97-4.43s-7.16,1.5-9.68,4.5c-2.52,3-4.05,7.43-4.59,13.3Z"/>
    <path class="cls-1" d="m451.59,92.54h-30.85c.04,3.95.76,7.44,2.17,10.46,1.41,3.02,3.27,5.29,5.6,6.82,2.33,1.53,4.9,2.3,7.71,2.3,1.89,0,3.61-.24,5.17-.73,1.56-.49,3.07-1.25,4.54-2.3,1.46-1.04,2.81-2.16,4.04-3.35,1.23-1.19,2.83-2.81,4.8-4.85.81-.77,1.96-1.15,3.47-1.15,1.62,0,2.93.49,3.93,1.47,1,.98,1.5,2.36,1.5,4.15,0,1.57-.56,3.41-1.68,5.52-1.12,2.11-2.8,4.12-5.06,6.06-2.25,1.94-5.08,3.54-8.49,4.82-3.41,1.28-7.33,1.91-11.76,1.91-10.13,0-18.01-3.19-23.63-9.57-5.62-6.38-8.44-15.03-8.44-25.96,0-5.14.69-9.92,2.08-14.32s3.41-8.17,6.07-11.32c2.66-3.15,5.93-5.56,9.82-7.24,3.89-1.68,8.2-2.52,12.94-2.52,6.16,0,11.45,1.44,15.86,4.31,4.41,2.87,7.71,6.58,9.91,11.13,2.2,4.55,3.29,9.19,3.29,13.91,0,4.38-1.14,7.22-3.41,8.52-2.27,1.3-5.47,1.95-9.59,1.95Zm-30.85-9.89h28.6c-.38-5.95-1.84-10.41-4.36-13.36-2.52-2.96-5.85-4.43-9.97-4.43s-7.16,1.5-9.68,4.5c-2.52,3-4.05,7.43-4.59,13.3Z"/>
    <path class="cls-1" d="m490.58,98.53v14.54c0,3.53-.75,6.18-2.25,7.94-1.5,1.76-3.41,2.65-5.72,2.65s-4.14-.89-5.6-2.68c-1.46-1.79-2.2-4.42-2.2-7.91v-48.48c0-7.82,2.56-11.74,7.68-11.74,2.62,0,4.51.92,5.66,2.74,1.16,1.83,1.79,4.53,1.91,8.1,1.89-3.57,3.82-6.27,5.81-8.1,1.98-1.83,4.63-2.74,7.94-2.74s6.53.92,9.65,2.74c3.12,1.83,4.68,4.25,4.68,7.27,0,2.13-.67,3.88-1.99,5.26-1.33,1.38-2.76,2.07-4.3,2.07-.58,0-1.97-.39-4.19-1.18-2.22-.79-4.17-1.18-5.86-1.18-2.31,0-4.2.67-5.66,2.01-1.46,1.34-2.6,3.33-3.41,5.96-.81,2.64-1.37,5.77-1.68,9.41-.31,3.64-.46,8.07-.46,13.3Z"/>
    <path class="cls-1" d="m533.61,63.7l10.28,38.91,9.36-36.17c1-3.78,1.74-6.37,2.22-7.75.48-1.38,1.39-2.7,2.72-3.96,1.33-1.25,3.15-1.88,5.46-1.88s4.19.63,5.52,1.88c1.33,1.25,2.26,2.62,2.8,4.08.54,1.47,1.29,4.01,2.25,7.62l9.36,36.17,10.4-38.91c.69-2.81,1.25-4.84,1.68-6.09.42-1.25,1.14-2.36,2.14-3.32,1-.96,2.45-1.43,4.33-1.43s3.52.72,4.91,2.17c1.39,1.45,2.08,3.15,2.08,5.1,0,1.79-.6,4.49-1.79,8.1l-12.89,41.71c-1.12,3.53-1.98,6.08-2.6,7.65s-1.59,2.98-2.92,4.21c-1.33,1.23-3.15,1.85-5.46,1.85s-4.27-.66-5.63-1.98-2.38-2.93-3.03-4.85c-.66-1.91-1.37-4.4-2.14-7.46l-9.01-33.93-8.72,33.93c-1.16,4.72-2.41,8.28-3.76,10.68-1.35,2.4-3.72,3.6-7.11,3.6-1.73,0-3.21-.37-4.42-1.12-1.21-.74-2.22-1.81-3.03-3.19-.81-1.38-1.52-3.02-2.14-4.91-.62-1.89-1.1-3.39-1.44-4.5l-12.77-41.71c-1.27-3.91-1.91-6.61-1.91-8.1,0-1.87.67-3.55,2.02-5.04,1.35-1.49,3-2.23,4.97-2.23,2.62,0,4.39.82,5.32,2.46.92,1.64,1.91,4.43,2.95,8.39Z"/>
    <path class="cls-1" d="m655.34,113.84c-3.81,3.28-7.5,5.73-11.06,7.37-3.56,1.64-7.56,2.46-11.99,2.46-4.04,0-7.6-.88-10.66-2.65-3.06-1.76-5.42-4.16-7.08-7.18-1.66-3.02-2.48-6.29-2.48-9.82,0-4.76,1.37-8.82,4.1-12.18,2.74-3.36,6.49-5.61,11.27-6.76,1-.25,3.49-.83,7.45-1.72,3.97-.89,7.37-1.71,10.2-2.46,2.83-.74,5.9-1.65,9.22-2.71-.19-4.59-1.03-7.96-2.51-10.11-1.48-2.15-4.56-3.22-9.22-3.22-4.01,0-7.02.62-9.04,1.85-2.02,1.23-3.76,3.08-5.2,5.55s-2.47,4.09-3.06,4.88c-.6.79-1.88,1.18-3.84,1.18-1.77,0-3.3-.63-4.59-1.88-1.29-1.25-1.94-2.86-1.94-4.82,0-3.06.98-6.04,2.95-8.93,1.96-2.89,5.03-5.27,9.19-7.14,4.16-1.87,9.34-2.81,15.54-2.81,6.93,0,12.38.9,16.35,2.71,3.97,1.81,6.77,4.67,8.41,8.58,1.64,3.91,2.46,9.1,2.46,15.56,0,4.08,0,7.55-.03,10.4-.02,2.85-.05,6.02-.09,9.5,0,3.28.49,6.69,1.47,10.24.98,3.55,1.47,5.84,1.47,6.86,0,1.79-.76,3.41-2.28,4.88-1.52,1.47-3.25,2.2-5.17,2.2-1.62,0-3.22-.84-4.8-2.52s-3.25-4.11-5.03-7.3Zm-1.04-25.19c-2.31.94-5.67,1.92-10.08,2.97-4.41,1.04-7.46,1.81-9.16,2.3-1.7.49-3.31,1.45-4.85,2.87-1.54,1.43-2.31,3.41-2.31,5.96s.9,4.88,2.72,6.73c1.81,1.85,4.18,2.77,7.11,2.77,3.12,0,6-.75,8.64-2.26,2.64-1.51,4.57-3.46,5.81-5.84,1.42-2.64,2.14-6.97,2.14-13.01v-2.49Z"/>
    <path class="cls-1" d="m682.83,113.07V37.55c0-3.49.7-6.12,2.11-7.91,1.41-1.79,3.3-2.68,5.69-2.68s4.31.88,5.78,2.65c1.46,1.77,2.2,4.41,2.2,7.94v75.52c0,3.53-.74,6.18-2.22,7.94-1.48,1.76-3.4,2.65-5.75,2.65s-4.19-.92-5.63-2.74c-1.44-1.83-2.17-4.44-2.17-7.84Z"/>
    <path class="cls-1" d="m751.23,115.69l-13.92-25.26-8.55,8.93v13.84c0,3.36-.8,5.94-2.4,7.75s-3.44,2.71-5.52,2.71c-2.43,0-4.33-.89-5.72-2.68-1.39-1.79-2.08-4.42-2.08-7.91V38.83c0-3.87.67-6.81,2.02-8.83,1.35-2.02,3.27-3.03,5.78-3.03s4.35.92,5.78,2.74c1.42,1.83,2.14,4.53,2.14,8.1v42.23l17.74-20.54c2.2-2.55,3.87-4.29,5.03-5.23s2.56-1.4,4.22-1.4c1.96,0,3.6.69,4.91,2.07,1.31,1.38,1.96,3.12,1.96,5.2,0,2.55-2.14,5.95-6.41,10.21l-8.38,8.48,16.18,28.07c1.19,2.08,2.05,3.67,2.57,4.75.52,1.08.78,2.12.78,3.09,0,2.76-.68,4.94-2.05,6.54-1.37,1.59-3.17,2.39-5.4,2.39-1.93,0-3.41-.57-4.45-1.72-1.04-1.15-2.45-3.23-4.22-6.25Z"/>
    <path class="cls-1" d="m330.67,191.88c0,2.53-.56,5.27-1.69,8.22-1.13,2.95-2.91,5.84-5.33,8.68-2.42,2.84-5.52,5.14-9.28,6.91-3.77,1.77-8.15,2.66-13.17,2.66-3.8,0-7.25-.4-10.36-1.19-3.11-.79-5.94-2.03-8.47-3.71-2.54-1.68-4.87-3.9-7-6.64-1.9-2.5-3.52-5.29-4.86-8.38-1.34-3.09-2.35-6.39-3.02-9.9-.67-3.51-1.01-7.23-1.01-11.17,0-6.4.84-12.13,2.53-17.19,1.69-5.06,4.1-9.39,7.25-12.99,3.14-3.6,6.83-6.33,11.05-8.21s8.73-2.82,13.51-2.82c5.83,0,11.02,1.28,15.57,3.85,4.55,2.57,8.04,5.74,10.46,9.52,2.42,3.78,3.63,7.35,3.63,10.71,0,1.84-.59,3.47-1.77,4.88-1.18,1.41-2.6,2.12-4.27,2.12-1.87,0-3.27-.49-4.2-1.46-.93-.98-1.97-2.66-3.12-5.04-1.9-3.94-4.13-6.89-6.71-8.84-2.57-1.95-5.74-2.93-9.5-2.93-5.99,0-10.77,2.51-14.32,7.54-3.55,5.03-5.33,12.17-5.33,21.42,0,6.18.79,11.33,2.36,15.43,1.57,4.1,3.8,7.17,6.68,9.19,2.88,2.03,6.25,3.04,10.12,3.04,4.19,0,7.74-1.15,10.63-3.44,2.9-2.29,5.08-5.67,6.56-10.11.62-2.1,1.39-3.8,2.31-5.12.92-1.32,2.39-1.98,4.42-1.98,1.74,0,3.22.67,4.47,2.01,1.24,1.34,1.87,3,1.87,4.99Z"/>
    <path class="cls-1" d="m390.54,188.25c0,4.41-.62,8.48-1.87,12.2-1.25,3.72-3.05,6.92-5.4,9.6-2.36,2.68-5.17,4.73-8.45,6.16s-6.96,2.14-11.05,2.14-7.71-.72-10.95-2.17-6.05-3.52-8.42-6.21c-2.38-2.69-4.17-5.87-5.4-9.54-1.23-3.67-1.84-7.73-1.84-12.17s.62-8.59,1.87-12.31c1.24-3.72,3.03-6.9,5.35-9.54,2.33-2.64,5.14-4.67,8.45-6.1,3.31-1.43,6.96-2.14,10.95-2.14s7.74.72,11.05,2.17c3.31,1.45,6.14,3.51,8.5,6.18,2.36,2.68,4.15,5.86,5.38,9.54,1.23,3.69,1.84,7.75,1.84,12.2Zm-13.46,0c0-6.04-1.2-10.74-3.61-14.1-2.41-3.36-5.64-5.04-9.7-5.04-2.62,0-4.93.75-6.93,2.25s-3.54,3.71-4.62,6.64-1.62,6.34-1.62,10.25.53,7.25,1.6,10.14c1.06,2.89,2.59,5.11,4.57,6.64,1.98,1.54,4.31,2.3,7,2.3,4.06,0,7.29-1.69,9.7-5.07,2.41-3.38,3.61-8.05,3.61-14.02Z"/>
    <path class="cls-1" d="m443.19,189.33v19.68c0,3.11-.64,5.44-1.92,7-1.28,1.55-2.96,2.33-5.06,2.33s-3.68-.78-4.94-2.33c-1.26-1.55-1.89-3.88-1.89-7v-23.59c0-3.72-.12-6.62-.34-8.68-.23-2.06-.85-3.75-1.87-5.07-1.02-1.32-2.62-1.98-4.81-1.98-4.39,0-7.28,1.66-8.67,4.99-1.39,3.33-2.09,8.1-2.09,14.32v20.01c0,3.07-.63,5.4-1.89,6.97-1.26,1.57-2.92,2.36-4.99,2.36s-3.69-.79-4.99-2.36c-1.29-1.57-1.94-3.9-1.94-6.97v-42.35c0-2.78.58-4.9,1.74-6.34,1.16-1.45,2.69-2.17,4.59-2.17s3.37.68,4.59,2.03c1.23,1.36,1.84,3.23,1.84,5.61v1.41c2.32-3.07,4.81-5.33,7.47-6.78,2.65-1.45,5.6-2.17,8.84-2.17s6.27.74,8.7,2.22c2.42,1.48,4.42,3.72,5.99,6.72,2.26-3.04,4.68-5.29,7.27-6.75,2.59-1.46,5.45-2.2,8.6-2.2,3.67,0,6.83.79,9.48,2.39,2.65,1.59,4.63,3.87,5.94,6.83,1.15,2.68,1.72,6.89,1.72,12.64v28.9c0,3.11-.64,5.44-1.92,7-1.28,1.55-2.96,2.33-5.06,2.33s-3.69-.79-4.99-2.36c-1.29-1.57-1.94-3.9-1.94-6.97v-24.89c0-3.18-.12-5.73-.37-7.65-.25-1.92-.91-3.52-1.99-4.83-1.08-1.3-2.72-1.95-4.91-1.95-1.77,0-3.45.58-5.04,1.74-1.59,1.16-2.82,2.71-3.71,4.66-.98,2.49-1.47,6.91-1.47,13.23Z"/>
    <path class="cls-1" d="m497.46,166.45v1.79c2.52-3.43,5.14-5.96,7.86-7.56,2.72-1.61,5.8-2.41,9.24-2.41,4.13,0,7.92,1.17,11.4,3.52,3.47,2.35,6.21,5.78,8.23,10.3,2.01,4.52,3.02,9.87,3.02,16.05,0,4.55-.58,8.74-1.74,12.55s-2.76,7.01-4.79,9.6c-2.03,2.58-4.43,4.57-7.2,5.96-2.77,1.39-5.74,2.09-8.92,2.09-3.83,0-7.05-.85-9.65-2.55-2.6-1.7-5.08-4.19-7.44-7.48v22.23c0,6.51-2.15,9.76-6.43,9.76-2.52,0-4.19-.84-5.01-2.52-.82-1.68-1.23-4.13-1.23-7.35v-63.88c0-2.82.56-4.93,1.67-6.32,1.11-1.39,2.64-2.09,4.57-2.09s3.45.71,4.64,2.14c1.2,1.43,1.79,3.48,1.79,6.15Zm26.28,21.53c0-3.9-.54-7.26-1.62-10.06s-2.58-4.95-4.5-6.45c-1.92-1.5-4.04-2.25-6.36-2.25-3.7,0-6.82,1.61-9.36,4.83-2.54,3.22-3.81,7.95-3.81,14.21,0,5.89,1.26,10.47,3.78,13.75,2.52,3.27,5.65,4.91,9.38,4.91,2.23,0,4.29-.71,6.19-2.14,1.9-1.43,3.42-3.57,4.57-6.43,1.15-2.86,1.72-6.31,1.72-10.36Z"/>
    <path class="cls-1" d="m552.47,167.37l8.74,33.08,7.96-30.75c.85-3.22,1.48-5.41,1.89-6.59.41-1.17,1.18-2.29,2.31-3.36s2.68-1.6,4.64-1.6,3.56.53,4.69,1.6,1.92,2.22,2.38,3.47c.46,1.25,1.1,3.41,1.92,6.48l7.96,30.75,8.84-33.08c.59-2.39,1.06-4.11,1.42-5.18.36-1.07.97-2.01,1.82-2.82s2.08-1.22,3.68-1.22,3,.62,4.17,1.84c1.18,1.23,1.77,2.68,1.77,4.34,0,1.52-.51,3.81-1.52,6.89l-10.95,35.46c-.95,3-1.69,5.17-2.21,6.51-.52,1.34-1.35,2.53-2.48,3.58s-2.68,1.57-4.64,1.57-3.63-.56-4.79-1.68-2.02-2.49-2.58-4.12c-.56-1.63-1.16-3.74-1.82-6.34l-7.66-28.85-7.42,28.85c-.98,4.01-2.05,7.04-3.19,9.08-1.15,2.04-3.16,3.06-6.04,3.06-1.47,0-2.73-.32-3.76-.95-1.03-.63-1.89-1.54-2.58-2.71-.69-1.17-1.29-2.57-1.82-4.18-.52-1.61-.93-2.88-1.23-3.82l-10.86-35.46c-1.08-3.33-1.62-5.62-1.62-6.89,0-1.59.57-3.02,1.72-4.28,1.15-1.26,2.55-1.9,4.22-1.9,2.23,0,3.73.7,4.52,2.09.79,1.39,1.62,3.77,2.5,7.13Z"/>
    <path class="cls-1" d="m655.96,209.99c-3.24,2.78-6.38,4.87-9.41,6.26-3.03,1.39-6.43,2.09-10.19,2.09-3.44,0-6.46-.75-9.06-2.25-2.6-1.5-4.61-3.53-6.02-6.1-1.41-2.57-2.11-5.35-2.11-8.35,0-4.05,1.16-7.5,3.49-10.36s5.52-4.77,9.58-5.75c.85-.22,2.96-.7,6.34-1.46,3.37-.76,6.26-1.46,8.67-2.09,2.41-.63,5.02-1.4,7.83-2.3-.16-3.9-.88-6.77-2.14-8.59-1.26-1.83-3.87-2.74-7.83-2.74-3.41,0-5.97.52-7.69,1.57-1.72,1.05-3.19,2.62-4.42,4.72-1.23,2.1-2.1,3.48-2.6,4.15-.51.67-1.6,1-3.27,1-1.51,0-2.81-.53-3.91-1.6-1.1-1.07-1.65-2.43-1.65-4.09,0-2.6.83-5.13,2.51-7.59,1.67-2.46,4.27-4.48,7.81-6.07,3.54-1.59,7.94-2.39,13.21-2.39,5.89,0,10.53.77,13.9,2.3,3.37,1.54,5.75,3.97,7.15,7.29,1.39,3.33,2.09,7.74,2.09,13.23,0,3.47,0,6.42-.02,8.84-.02,2.42-.04,5.12-.07,8.08,0,2.78.42,5.69,1.25,8.7.83,3.02,1.25,4.96,1.25,5.83,0,1.52-.65,2.9-1.94,4.15-1.29,1.25-2.76,1.87-4.4,1.87-1.38,0-2.74-.71-4.08-2.14-1.34-1.43-2.77-3.5-4.27-6.21Zm-.88-21.42c-1.96.8-4.82,1.64-8.57,2.52-3.75.89-6.35,1.54-7.79,1.95-1.44.42-2.82,1.23-4.13,2.44-1.31,1.21-1.96,2.9-1.96,5.07s.77,4.15,2.31,5.72c1.54,1.57,3.55,2.36,6.04,2.36,2.65,0,5.1-.64,7.34-1.93,2.24-1.28,3.89-2.94,4.94-4.96,1.21-2.24,1.82-5.93,1.82-11.06v-2.12Z"/>
    <path class="cls-1" d="m692.64,196.98v12.36c0,3-.64,5.25-1.92,6.75-1.28,1.5-2.9,2.25-4.86,2.25s-3.52-.76-4.76-2.28c-1.25-1.52-1.87-3.76-1.87-6.72v-41.21c0-6.65,2.18-9.98,6.53-9.98,2.23,0,3.83.78,4.81,2.33.98,1.55,1.52,3.85,1.62,6.89,1.6-3.04,3.25-5.33,4.94-6.89,1.69-1.55,3.94-2.33,6.75-2.33s5.55.78,8.2,2.33c2.65,1.55,3.98,3.62,3.98,6.18,0,1.81-.56,3.3-1.69,4.47s-2.35,1.76-3.66,1.76c-.49,0-1.68-.33-3.56-1-1.88-.67-3.55-1-4.99-1-1.96,0-3.57.57-4.81,1.71-1.25,1.14-2.21,2.83-2.9,5.07-.69,2.24-1.16,4.91-1.42,8-.26,3.09-.39,6.86-.39,11.31Z"/>
    <path class="cls-1" d="m755.8,191.88h-26.23c.03,3.36.65,6.33,1.84,8.89,1.2,2.57,2.78,4.5,4.76,5.8,1.98,1.3,4.17,1.95,6.56,1.95,1.6,0,3.07-.21,4.4-.62,1.33-.42,2.61-1.07,3.86-1.95,1.24-.89,2.39-1.83,3.44-2.85,1.05-1.01,2.41-2.39,4.08-4.12.69-.65,1.67-.98,2.95-.98,1.38,0,2.49.42,3.34,1.25.85.83,1.28,2.01,1.28,3.53,0,1.34-.47,2.9-1.42,4.69-.95,1.79-2.38,3.51-4.3,5.15-1.92,1.65-4.32,3.01-7.22,4.09-2.9,1.08-6.23,1.63-10,1.63-8.61,0-15.31-2.71-20.09-8.13-4.78-5.42-7.17-12.78-7.17-22.07,0-4.37.59-8.43,1.77-12.17,1.18-3.74,2.9-6.95,5.16-9.63,2.26-2.67,5.04-4.73,8.35-6.15,3.31-1.43,6.98-2.14,11-2.14,5.24,0,9.73,1.22,13.48,3.66s6.56,5.59,8.42,9.46c1.87,3.87,2.8,7.81,2.8,11.82,0,3.72-.97,6.14-2.9,7.24-1.93,1.1-4.65,1.65-8.15,1.65Zm-26.23-8.41h24.32c-.33-5.06-1.56-8.85-3.71-11.36-2.15-2.51-4.97-3.77-8.47-3.77s-6.08,1.27-8.23,3.82c-2.15,2.55-3.45,6.32-3.91,11.31Z"/>
  </g>
  <g>
    <g>
      <path class="cls-3" d="m227.95,120.12c0,62.07-50.29,112.38-112.33,112.38S3.29,182.18,3.29,120.12,53.58,7.74,115.62,7.74s112.33,50.32,112.33,112.37Z"/>
      <path class="cls-1" d="m67.51,176.95s-3.14-17.91,5.78-36.9c0,0,2.9-1.16-.77-5.74,0,0-19.07-28.75,7.46-39.64,0,0,12.75-3.49,39.13-2.15-27.33-2.05,22.18,5.03,21.65-13.05,0,0-6.87-7.73-18.95-18.33,0,0-11.05-8.45-5.77-39.67,0,0,.66,18.48,7.74,16.26,0,0,8.33-2.38,1.18,3.15,0,0-5.52.48-.63,10.52,0,0,1.26,5.68,8.9,7.72l3.28-11.63,1.79,13.5s12.82,16.11,9.97-5.39l3.84,5.85,4.34-3.64,4.38,8.08s4.38.43,2.85-11.06c0,0-.12-8.63-7.76-10.67,0,0-3.45-4.89-2.14-6.58l4.81,3.68s5.73-4.83-3.53-15.04c0,0,10.28-1.1,13.1,18.1l-.85,7.47,7.2-5.51-10.23,24.5,2.48,12.9s.27,4.03-1.52,5.8c0,0-2.18.8-3.78,17.54,0,0-2.81,17.17-16.23,23.27,0,0,.39,4.78,4.86,9.78,0,0,2.64,6.5-.66,12.29,0,0-3.13,6.84-1.02,13.11.74,2.17,3.43,4.12,5.32,5.92,0,0,3.13,8.23-7.93,5.37,0,0-6.51-1.18-5.5-6.9l-1.64-10.46s-1.63-1.82-6.94,5.24c0,0-4.58,9.51-8.99,1.2,0,0-1.2-1.83,1.04-4.94,3.84-5.35,12.13-11.7,11.61-17.6-.53-5.17-7.97-10.26-11.55-10.31-3.6-.29-7.21,1.62-10.96,2.57-4.41,1.11-10.78,1.12-14.44,2.32-2.41,1.4-4.22,4.69-5.84,6.64-3.88,4.67-5.71,8.78-4.87,12.22,0,0-.47,2.66,1.26,6.26,2.56,5.32,8.17,12.92,12.75,18.84,0,0,1.21,7.21-6.75.9l-18.31-25.04-1.42,20.03s-5.41,7.07-7.72-.75Z"/>
    </g>
    <path class="cls-2" d="m41.66,172.83c18.03,15.34,42.37,6.23,47.12,1.99,3.64,1.53,11.49,15.87,25.31,17.64,31.99,4.08,43.49-26.14,49.64-27.66,5.5,0,25.55,42.44,42.16,22.22,0,0-27.83,45.45-92.93,46.66-66.73-1.22-95.06-58.11-95.06-58.11,0,0,23.96,4.03,23.77-2.74Z"/>
  </g>
</svg>