<?xml version="1.0" encoding="UTF-8" standalone="no"?>
<svg
   xmlns:dc="http://purl.org/dc/elements/1.1/"
   xmlns:cc="http://creativecommons.org/ns#"
   xmlns:rdf="http://www.w3.org/1999/02/22-rdf-syntax-ns#"
   xmlns:svg="http://www.w3.org/2000/svg"
   xmlns="http://www.w3.org/2000/svg"
   viewBox="0 0 513 513"
   height="513"
   width="513"
   id="svg815"
   version="1.1">
  <metadata
     id="metadata821">
    <rdf:RDF>
      <cc:Work
         rdf:about="">
        <dc:format>image/svg+xml</dc:format>
        <dc:type
           rdf:resource="http://purl.org/dc/dcmitype/StillImage" />
        <dc:title></dc:title>
      </cc:Work>
    </rdf:RDF>
  </metadata>
  <defs
     id="defs819" />
  <path
     id="rect825"
     d="m 0.5,0.5 h 512 v 512 H 0.5 Z"
     style="fill:#f50000;fill-opacity:1;stroke:none;stroke-width:3.96850371;stroke-miterlimit:3.8599999;stroke-dasharray:none;stroke-dashoffset:0;stroke-opacity:1" />
  <path
     id="path829"
     d="M 244.55967,107.96269 H 382.11191 L 363.96266,87.902986 373.99251,76.4403 405.5149,107.96269 h 16.71641 v 15.76119 l -8.59701,0.95523 -1.43284,89.31343 h -15.28358 l -1.43284,-90.26866 -14.80597,0.47761 1.43284,89.31344 H 365.8731 l 0.47762,-9.07463 -11.9403,12.41791 -11.46269,-11.46269 22.92537,-23.40298 v -10.50746 l -23.40298,-0.47762 -0.47761,11.46269 -15.7612,-0.47761 0.47762,-11.46269 h -8.59702 l -0.23881,-14.80597 9.79105,-0.2388 -0.95522,-31.52239 -19.34329,-0.23881 0.47761,90.02985 -15.52238,-0.2388 v -90.50747 l -13.37314,0.71642 -0.2388,1.19403 7.64179,7.16418 -19.34329,19.34328 0.95523,1.91045 17.91044,16.95523 -19.58209,19.10447 18.62687,18.38806 -11.22388,10.26866 -28.65672,-29.13433 19.10448,-19.34328 -18.14925,-18.86567 26.98507,-26.74627 h -28.65671 z"
     style="fill:#ffffff;stroke:none;stroke-width:1px;stroke-linecap:butt;stroke-linejoin:miter;stroke-opacity:1" />
  <path
     id="path831"
     d="m 343.33579,125.24627 -0.23881,31.04478 24.11941,0.47761 -0.23881,-32 z"
     style="fill:#f50000;fill-opacity:1;stroke:#f30000;stroke-width:1px;stroke-linecap:butt;stroke-linejoin:miter;stroke-opacity:1" />
  <path
     id="path861"
     d="m 201.40161,270.7883 v 15.53524 l 8.44306,0.67544 62.47869,62.81641 v 26.68009 l 16.21069,0.33773 v -90.8474 l 15.53524,0.33773 v 89.4965 l 16.54841,0.33772 -0.67544,-89.83422 56.39968,0.33772 -0.67545,37.48721 -21.61425,-22.62741 -12.49574,12.49573 26.68009,25.66692 -46.268,45.59256 12.49574,11.48257 41.20216,-42.55305 v 21.95197 h 16.54841 l -0.67544,-90.50967 16.5484,0.67545 -1.01316,89.4965 16.21068,0.33772 -0.33772,-90.17195 h 11.14485 l -0.67545,-15.19751 -17.22385,0.67544 -31.74593,-32.42137 -10.13168,11.48257 20.26336,20.60108 z"
     style="fill:#ffffff;fill-opacity:1;stroke:none;stroke-width:1px;stroke-linecap:butt;stroke-linejoin:miter;stroke-opacity:1" />
  <path
     id="path863"
     d="m 233.48526,286.32354 39.17583,0.33772 -1.01317,39.17583 z"
     style="fill:#f50000;fill-opacity:1;stroke:#f30000;stroke-width:1px;stroke-linecap:butt;stroke-linejoin:miter;stroke-opacity:1" />
  <path
     id="path897"
     d="m 119.74348,201.6362 c 43.92842,0 79.53708,-41.78076 79.53708,-93.32338 -6.98861,20.85134 -19.63468,38.1103 -35.74177,49.35595 l -6.78893,-5.9352 13.31164,-11.71424 -16.10709,-4.84187 8.51944,-16.9466 -16.63956,2.81141 2.46267,-19.36752 -14.44314,10.15234 -4.12661,-19.13325 -9.98373,15.61898 -9.98373,-15.61898 -4.19317,19.05514 -14.37658,-9.99612 2.46266,19.52371 -16.63955,-2.88952 8.65256,16.94661 -16.2402,4.84187 13.31163,11.71423 -6.65582,6.01331 c -15.7743,-10.93329 -28.62002,-27.80178 -35.8083,-49.35597 0,51.54262 35.60864,93.32338 79.53707,93.32338 z"
     style="fill:#ffffff;fill-opacity:1;stroke:#f30000;stroke-width:7.20961618;stroke-opacity:1" />
  <path
     id="path899"
     d="m 83.56741,282.51112 -31.59268,-3.71739 19.15601,24.21938 -29.29397,11.94073 29.29397,11.82806 -19.15601,24.21939 31.59268,-3.71739 -3.89014,30.24607 25.34489,-18.30536 12.49561,28.04943 12.37773,-28.04943 25.46276,18.36168 -3.89014,-30.18975 31.59269,3.77372 -19.15602,-24.21939 29.29397,-11.82806 -29.29397,-11.94073 19.15602,-24.21938 -31.59269,3.66107 3.89014,-30.18974 -25.34487,18.30535 -12.49562,-28.10576 -12.37773,27.99311 -25.46277,-18.30534 z"
     style="fill:#ffffff;fill-opacity:1;stroke:#f30000;stroke-width:5.76180077;stroke-opacity:1" />
</svg>
