<svg
      width="94"
      height="95"
      viewBox="0 0 94 95"
      fill="none"
      xmlns="http://www.w3.org/2000/svg"
    >
      <path
        d="M93.3206 76.3372C93.3206 78.3767 93.179 80.4351 93.3584 82.4652C93.5661 84.8635 92.3953 86.3553 90.5163 87.4317C86.2484 89.8773 81.9711 92.3322 77.6089 94.5983C76.8063 95.0138 75.3899 94.9571 74.559 94.5228C70.2534 92.2945 66.0422 89.8961 61.8027 87.5356C59.8198 86.4309 58.6584 84.9201 58.7434 82.4274C58.8945 78.1879 58.8284 73.9389 58.7812 69.6993C58.7623 67.5749 59.6687 66.168 61.5194 65.1577C65.7117 62.8538 69.7907 60.3516 74.0492 58.1893C75.1256 57.6417 76.929 57.5567 77.9677 58.0949C82.4149 60.3799 86.7017 62.9765 91.0451 65.4598C92.603 66.3568 93.4245 67.641 93.3867 69.5011C93.3301 71.7766 93.3773 74.0616 93.3773 76.3372C93.3584 76.3372 93.3395 76.3372 93.3206 76.3372ZM87.136 68.2453C86.3145 67.3105 85.9463 66.6401 85.3892 66.3002C82.7832 64.7233 80.1393 63.1843 77.4483 61.7585C76.8157 61.428 75.7676 61.2958 75.1822 61.5885C72.1891 63.1087 69.2242 64.7044 66.3821 66.489C65.1924 67.2349 65.0508 68.3302 66.6748 69.1423C68.6294 70.1242 70.4422 71.3801 72.3968 72.3337C73.7376 72.9852 75.541 74.09 76.5985 73.6651C80.111 72.2487 83.378 70.2376 87.136 68.2358V68.2453ZM77.996 82.8051C77.996 84.9957 77.911 86.5725 78.0243 88.1305C78.1187 89.4335 78.8363 89.9622 80.1205 89.2446C82.5754 87.8755 85.087 86.5725 87.4759 85.0901C88.3446 84.5519 89.5154 83.6077 89.5721 82.7768C89.8176 79.4248 89.7515 76.0539 89.6382 72.6925C89.6004 71.5689 88.8639 71.0496 87.6648 71.8333C86.2295 72.7681 84.8038 73.8161 83.2269 74.4204C78.978 76.0445 76.844 78.7544 78.0054 82.8051H77.996ZM74.3135 83.551H74.2663C74.2663 82.0591 74.4174 80.5484 74.2097 79.0849C74.0964 78.2728 73.5771 77.2531 72.9255 76.8187C70.244 75.0719 67.4774 73.4479 64.6542 71.9371C64.1915 71.6916 62.6808 72.2771 62.6808 72.4942C62.6336 76.1483 62.6997 79.8025 62.8696 83.4471C62.8885 83.9098 63.6156 84.4575 64.1349 84.7596C66.7692 86.2987 69.4036 87.8377 72.1041 89.2541C73.5393 90.0094 74.3324 89.4146 74.3135 87.7717C74.2946 86.3553 74.3135 84.9484 74.3135 83.5321V83.551Z"
        fill="#30294B
"
      />
      <path
        d="M93.3678 18.8532C93.3678 21.0532 93.6228 23.291 93.2734 25.4344C93.0468 26.8224 92.2725 28.5787 91.1772 29.2774C86.9566 31.9684 82.5849 34.4706 78.0904 36.6611C76.8535 37.2654 74.7384 37.0294 73.426 36.3779C69.2809 34.3384 65.3624 31.8645 61.2928 29.6739C59.6404 28.7769 58.8661 27.4928 58.8473 25.7082C58.8 21.2326 58.8661 16.7476 58.7812 12.272C58.734 9.90205 59.9614 8.4574 61.8404 7.39043C66.1272 4.95436 70.395 2.48051 74.7667 0.204946C75.5316 -0.191624 76.929 0.0349875 77.7788 0.478769C81.8578 2.62214 85.833 4.95436 89.8742 7.17326C92.0837 8.3913 93.585 9.93038 93.3773 12.7253C93.2262 14.7553 93.3489 16.8043 93.3489 18.8532C93.3584 18.8532 93.3678 18.8532 93.3773 18.8532H93.3678ZM87.2871 9.8454C83.5008 7.73035 80.3471 5.87025 77.0801 4.22731C76.4097 3.88739 75.22 4.15177 74.4646 4.52946C71.9435 5.79471 69.498 7.21103 67.0619 8.62736C66.4388 8.98616 65.4284 9.74153 65.5134 10.0342C65.74 10.7707 66.3727 11.545 67.0525 11.951C69.4036 13.3484 71.7736 14.7742 74.2946 15.8317C75.3616 16.285 76.9479 16.2094 78.0337 15.7468C80.2621 14.812 82.3394 13.5184 84.4261 12.2626C85.3136 11.7244 86.0407 10.9218 87.2871 9.85484V9.8454ZM74.3513 26.0387C74.3513 26.0387 74.3513 26.0387 74.3419 26.0387C74.3419 24.7829 74.6157 23.4327 74.2663 22.2807C73.8697 20.9588 73.1899 19.4386 72.1418 18.6644C70.0834 17.1347 67.704 16.0206 65.419 14.8025C63.4834 13.7639 62.3786 14.3776 62.3314 16.5682C62.2653 19.0798 62.2276 21.6103 62.4258 24.1125C62.5014 25.1228 62.964 26.5014 63.7194 26.9924C66.4199 28.7297 69.2903 30.2027 72.1418 31.6757C73.5015 32.3744 74.2663 31.6757 74.3419 30.2782C74.4174 28.8619 74.3607 27.4456 74.3607 26.0293L74.3513 26.0387ZM77.9676 25.8121C77.9676 26.4447 77.9676 27.0679 77.9676 27.7005C77.9676 28.4087 77.9204 29.1169 77.9676 29.825C78.0998 31.9023 78.7891 32.3461 80.6303 31.4019C82.9342 30.2216 85.1248 28.8241 87.4381 27.6816C89.1472 26.8413 89.8553 25.5572 89.8553 23.7443C89.8459 21.4687 89.8553 19.1931 89.827 16.9081C89.7892 14.1133 88.7884 13.5939 86.3051 15.0008C84.1995 16.2 81.9806 17.2292 80.0355 18.6455C79.0818 19.3348 78.3737 20.6567 78.0621 21.8275C77.7221 23.0739 77.9865 24.4808 77.9865 25.8121H77.9676Z"
        fill="#30294B
"
      />
      <path
        d="M0.211404 76.4032C0.211404 75.0624 0.40969 73.6933 0.173636 72.3997C-0.666717 67.8769 1.61829 65.4314 5.4046 63.5996C8.70935 62.0039 11.7686 59.9077 15.0923 58.3403C16.282 57.7832 18.161 57.6038 19.2751 58.1515C23.8263 60.427 28.283 62.9292 32.5886 65.6391C33.6461 66.3001 34.5526 68.0185 34.6187 69.3027C34.8642 73.9293 34.8358 78.5843 34.647 83.211C34.5998 84.344 33.835 85.8831 32.9191 86.4591C28.2735 89.3673 23.4769 92.0394 18.6897 94.7021C18.0949 95.0326 17.0279 95.1176 16.4519 94.806C11.7025 92.2283 7.01921 89.5278 2.31701 86.8745C0.702397 85.9587 0.107541 84.6084 0.220847 82.7578C0.343595 80.6427 0.249173 78.5088 0.249173 76.3937H0.220847L0.211404 76.4032ZM15.791 83.5603C15.791 83.5603 15.7721 83.5603 15.7627 83.5603C15.7627 82.3045 16.027 80.9732 15.6871 79.8212C15.3283 78.6032 14.6296 77.2152 13.6476 76.5165C11.372 74.8924 8.84154 73.6272 6.39602 72.2392C4.48871 71.1533 3.60114 71.5877 3.51616 73.7311C3.43118 75.8461 3.67668 77.98 3.47839 80.0762C3.24234 82.6256 4.28098 84.2402 6.44323 85.4016C8.64326 86.5818 10.7866 87.8943 12.9772 89.0934C14.6862 90.0282 15.6777 89.4806 15.7721 87.5638C15.8382 86.2325 15.7815 84.9011 15.7815 83.5698L15.791 83.5603ZM17.1412 61.0597C13.8176 63.0425 10.5222 64.9593 7.31191 67.0082C7.11363 67.131 7.37801 68.6984 7.80291 68.9533C10.4184 70.5207 13.1 72.0031 15.8665 73.2967C16.7163 73.6933 18.0382 73.7499 18.8691 73.3722C21.428 72.192 23.8546 70.7284 26.319 69.3688C28.3491 68.2452 28.3491 67.0932 26.2623 65.8846C24.2984 64.7421 22.2777 63.6846 20.276 62.6082C19.3318 62.0983 18.3498 61.6545 17.1506 61.0597H17.1412ZM30.6813 70.9078C26.8572 73.1079 23.6469 74.883 20.5215 76.7998C19.955 77.1491 19.4262 78.0367 19.3979 78.6976C19.2563 81.7474 19.1996 84.8067 19.3129 87.8471C19.3696 89.3106 20.2382 89.9432 21.7395 89.0746C23.8357 87.866 25.9319 86.629 28.1036 85.5621C30.3225 84.4857 31.465 82.9938 31.2006 80.3972C31.0117 78.5371 31.2289 76.6392 31.1723 74.7602C31.1345 73.6461 30.8984 72.5413 30.6813 70.8984V70.9078Z"
        fill="#30294B
"
      />
      <path
        d="M34.6942 18.655C34.6942 20.9306 34.6942 23.2156 34.6942 25.4911C34.6942 27.5023 33.7783 28.8431 32.0032 29.8062C27.9336 31.9968 24.0151 34.4895 19.8511 36.4724C18.5103 37.1145 16.3386 37.1145 14.9978 36.4629C10.7772 34.4234 6.67929 32.0818 2.7419 29.5418C1.56163 28.777 0.41913 27.0302 0.334151 25.6611C0.0414434 21.1194 0.277498 16.5589 0.211402 11.9983C0.173634 9.80771 1.30669 8.50469 3.06294 7.51327C7.35912 5.10551 11.6175 2.62222 15.9798 0.33722C16.7824 -0.0876772 18.1987 -0.0687928 19.0108 0.356105C23.2975 2.62222 27.4804 5.07719 31.7105 7.46606C33.8727 8.68409 35.0624 10.3459 34.7603 13.0086C34.5431 14.8687 34.7225 16.776 34.7225 18.6645C34.7225 18.6645 34.7036 18.6645 34.6942 18.6645V18.655ZM15.7815 26.1238C15.7815 24.7924 15.9987 23.4139 15.7154 22.1392C15.4699 20.9967 14.9412 19.5898 14.0631 18.9855C11.7025 17.3426 9.13425 15.964 6.55654 14.6799C4.67755 13.7451 3.5256 14.5477 3.48783 16.6344C3.44062 18.9855 3.29899 21.3555 3.56337 23.6877C3.69556 24.8869 4.29986 26.4259 5.20631 27.0774C7.6235 28.7865 10.2768 30.1745 12.9206 31.5247C14.7429 32.4595 15.6966 31.7607 15.7721 29.6551C15.8193 28.4843 15.7721 27.304 15.7721 26.1238H15.7815ZM17.6133 16.7949C20.8897 14.8687 24.2323 13.0369 27.4143 10.9597C28.4718 10.2704 27.8297 9.31672 26.8383 8.76907C24.1567 7.30554 21.5224 5.71925 18.7653 4.41624C17.9532 4.03855 16.6313 4.12353 15.8004 4.52954C13.3266 5.71925 10.9755 7.14502 8.60549 8.52358C7.96342 8.90127 7.41577 9.43947 6.83036 9.90213C7.40633 10.6009 7.85956 11.5073 8.5866 11.9605C10.3806 13.0841 12.2974 14 14.1764 14.9915C15.1961 15.5297 16.2253 16.0584 17.6228 16.7949H17.6133ZM19.1902 26.0105C19.1902 27.1907 19.1902 28.371 19.1902 29.5418C19.209 31.7702 20.2005 32.3934 22.1267 31.3547C24.4022 30.1178 26.6211 28.7581 28.9345 27.6156C30.4924 26.8508 31.1439 25.6894 31.1534 24.0559C31.1723 21.4593 31.1723 18.8627 31.1628 16.2662C31.1628 14.5571 30.4924 13.6129 28.6984 14.5477C25.9885 15.9451 23.2408 17.3048 20.6915 18.9666C19.8794 19.5048 19.4451 20.9211 19.2468 22.007C19.0013 23.3006 19.1902 24.6697 19.1902 26.0105Z"
        fill="#30294B
"
      />
      <path
        d="M77.8732 47.9163C77.8732 49.8802 78.062 51.8725 77.7787 53.7987C77.6654 54.5824 76.5135 55.2151 75.8337 55.9232C75.3616 55.2245 74.4929 54.5352 74.4645 53.8176C74.3135 49.9747 74.2946 46.1128 74.4268 42.2698C74.4457 41.59 75.3899 40.9479 75.9092 40.287C76.5796 40.9479 77.7032 41.5334 77.8165 42.2793C78.0903 44.1205 77.9109 46.0373 77.9109 47.9257C77.9015 47.9257 77.8826 47.9257 77.8732 47.9257V47.9163Z"
        fill="#30294B
"
      />
      <path
        d="M17.8871 48.0956C17.8871 49.9841 18.0476 51.8819 17.8116 53.742C17.7171 54.488 16.7635 55.1206 16.2064 55.8099C15.6021 55.1395 14.4974 54.488 14.469 53.7893C14.2991 49.9463 14.318 46.0939 14.4785 42.2509C14.5068 41.6089 15.5643 41.014 16.1497 40.4003C16.7352 41.0046 17.7549 41.5522 17.8305 42.2226C18.0571 44.1583 17.9154 46.1411 17.9154 48.1051H17.8966L17.8871 48.0956Z"
        fill="#30294B
"
      />
      <path
        d="M46.1948 74.6564C48.0832 74.6564 49.9905 74.4865 51.8412 74.732C52.6721 74.8453 53.3897 75.78 54.164 76.3466C53.4275 76.9886 52.7099 78.1406 51.9451 78.1784C48.1021 78.3578 44.2497 78.3483 40.4067 78.15C39.6797 78.1123 39.0187 76.8942 38.3295 76.2238C39.066 75.7045 39.7552 74.8264 40.5389 74.7414C42.399 74.5242 44.2969 74.6659 46.1853 74.6659C46.1853 74.6659 46.1853 74.6564 46.1853 74.647L46.1948 74.6564Z"
        fill="#30294B
"
      />
      <path
        d="M46.242 18.5795C44.2875 18.5795 42.314 18.7117 40.3784 18.5134C39.6325 18.4378 38.9621 17.6353 38.2539 17.1632C38.9621 16.5494 39.6608 15.4352 40.3973 15.4069C44.2969 15.237 48.2248 15.2653 52.1244 15.4352C52.8232 15.4636 53.4747 16.4928 54.1451 17.0687C53.4652 17.5692 52.8232 18.4284 52.1056 18.5039C50.1699 18.7117 48.1965 18.57 46.242 18.57C46.242 18.57 46.242 18.57 46.242 18.5795Z"
        fill="#30294B
"
      />
    </svg>