<svg
      width="105"
      height="95"
      viewBox="0 0 105 95"
      fill="none"
      xmlns="http://www.w3.org/2000/svg"
    >
      <path
        d="M91.8893 31.4004C98.8626 34.5584 104.108 39.0519 104.195 47.2882C104.286 55.7535 99.0018 60.4029 92.2588 63.444C93.2187 66.2853 94.644 68.9365 94.9512 71.7144C95.887 80.2285 89.0385 87.6705 80.2607 87.9336C78.221 87.997 76.8868 88.3723 75.6006 90.2778C72.6971 94.5714 66.8708 96.0432 61.8364 94.2546C57.4402 92.6902 54.7335 88.5379 54.7287 83.2453C54.7191 59.4574 54.7191 35.6696 54.7287 11.8818C54.7287 6.23822 57.4402 2.20291 62.1771 0.677492C67.4179 -1.00876 73.177 0.745722 75.9845 5.18066C76.9012 6.6281 77.8323 7.01799 79.4112 7.03748C86.6821 7.12521 92.9835 11.8087 94.788 18.3051C95.8534 22.1406 95.052 25.8689 91.8941 31.4004H91.8893ZM57.1043 53.9357C57.1043 64.0288 57.0803 73.8442 57.1139 83.6644C57.1283 87.9385 59.5471 91.2379 63.2425 92.2321C67.5715 93.392 72.2459 91.8861 74.1416 88.2407C75.1639 86.2766 76.2821 85.4286 78.389 85.682C79.1665 85.7746 79.9871 85.6431 80.7742 85.5115C86.1782 84.6245 90.4015 82.0805 92.2732 76.5782C93.6794 72.4552 92.2972 68.7611 90.0607 65.3398C88.4578 62.8884 85.9334 64.5601 83.8793 64.0873C83.8025 64.0678 83.7209 64.0873 83.6394 64.0873C81.9356 63.9557 80.587 64.1166 79.4496 65.9052C78.0866 68.0544 74.9815 68.0593 73.0954 66.3438C71.4109 64.8135 71.1613 62.0209 72.5483 60.1787C74.1176 58.088 77.3859 57.3131 78.7921 59.3453C80.9422 62.4595 83.7305 61.4166 86.4181 61.6847C90.3535 62.0794 93.5834 60.4858 96.5589 58.1562C103.705 52.5565 103.753 42.4536 96.5685 36.8929C94.8888 35.5916 92.8971 34.6267 90.9342 33.7933C88.0883 32.5895 87.9971 32.5457 89.8256 30.0407C96.8181 20.4593 90.7854 12.1791 83.1642 9.99086C81.5709 9.53274 79.8671 9.29394 78.2114 9.29881C76.3685 9.29881 75.2071 8.91867 74.2952 7.01311C72.9706 4.24006 70.4846 2.83648 67.1827 2.61717V5.21477C67.1827 14.148 67.2019 23.0764 67.1635 32.0096C67.1587 33.4473 67.3267 34.4658 68.7617 35.3675C71.0029 36.7808 71.1709 39.9876 69.448 41.9857C67.7922 43.9059 64.9175 44.0716 63.0074 42.3561C61.1549 40.6894 60.7229 37.2145 62.753 35.9377C65.1814 34.4074 64.7879 32.4092 64.7975 30.3136C64.8167 25.362 64.8023 20.4105 64.8023 15.4541V2.71464C64.1496 2.75363 63.6697 2.70002 63.2329 2.81698C59.4607 3.83556 57.1187 7.02286 57.1043 11.3506C57.0707 24.2606 57.0899 37.1707 57.0995 50.0807C57.0995 50.4657 57.1763 50.8459 57.2339 51.4161C62.0619 51.4161 66.7604 51.4161 71.4589 51.4161C74.6648 51.4161 74.9287 51.1675 74.9335 47.9802C74.9479 41.0793 74.9143 34.1783 74.9575 27.2774C74.9671 25.6788 74.8375 24.4946 73.2202 23.4662C71.1133 22.1309 71.1133 18.929 72.817 17.038C74.5544 15.1081 77.3811 14.9521 79.2432 16.6822C81.0622 18.3685 81.4077 21.819 79.3584 23.1153C76.9588 24.631 77.2851 26.6097 77.2803 28.7248C77.2707 33.2718 77.2707 37.8189 77.2803 42.3659C77.2803 43.0628 77.3715 43.7646 77.4243 44.598C79.6032 44.598 81.5997 44.7101 83.577 44.5444C84.3592 44.4761 85.3095 43.9742 85.8038 43.3552C87.2052 41.6007 88.8417 40.6796 91.0158 41.4302C93.0171 42.1222 94.1257 43.5794 94.1161 45.8261C94.1017 48.0728 92.9691 49.4959 90.963 50.1831C88.7458 50.9385 87.1236 49.9686 85.8038 48.1752C85.4679 47.717 84.9399 47.103 84.4744 47.0835C82.1084 46.9714 79.7376 47.0348 77.2371 47.0348C78.0818 55.7974 71.646 53.3899 67.1827 53.9455C67.1827 60.3542 67.2163 66.5144 67.1587 72.6745C67.1443 74.3462 67.2451 75.5938 68.9296 76.666C71.0701 78.0257 71.1085 81.1838 69.4192 83.0942C67.7346 84.9997 64.8119 85.1703 62.9882 83.4743C61.0637 81.6857 60.6941 78.4741 62.8154 77.0851C65.095 75.5889 64.8023 73.7126 64.8023 71.6755C64.8071 66.9676 64.8023 62.2549 64.8023 57.547V53.9503H57.0947L57.1043 53.9357ZM69.0976 39.0957C67.7394 38.0089 66.9476 36.888 66.2037 36.9172C65.3974 36.9514 64.6391 38.0674 63.8616 38.7107C64.5719 39.5295 65.1622 40.7625 66.0309 41.0208C66.6452 41.2011 67.6435 40.0607 69.0976 39.0909V39.0957ZM79.2048 62.8397C77.7795 61.8357 76.8052 60.6612 76.1861 60.8318C75.3079 61.0755 74.6887 62.2987 73.9593 63.1029C74.7271 63.7608 75.4662 64.8817 76.2773 64.9353C77.0164 64.9841 77.8323 63.8826 79.2048 62.8397ZM65.9493 83.1283C66.9764 81.754 68.0706 80.9303 68.0274 80.1798C67.9794 79.3562 66.8804 78.5959 66.2373 77.8064C65.4406 78.5472 64.2312 79.171 63.9864 80.0677C63.8136 80.6866 64.9703 81.6857 65.9493 83.1283ZM79.2048 20.123C77.8131 19.0508 76.8772 17.8373 76.2677 17.9884C75.375 18.2077 74.7127 19.4017 73.9497 20.1815C74.6936 20.8589 75.3942 21.9993 76.2005 22.0821C76.9396 22.1601 77.7939 21.1026 79.2048 20.123ZM89.6336 48.877C90.6175 47.5075 91.6973 46.6692 91.6493 45.8943C91.6013 45.0999 90.4543 44.3689 89.792 43.6135C89.0001 44.3494 87.7667 44.9781 87.5651 45.8505C87.4164 46.5035 88.6114 47.4685 89.6288 48.8721L89.6336 48.877Z"
        fill="#30294B
"
      />
      <path
        d="M13.2003 63.7316C-3.56829 56.7186 -2.96358 37.8482 12.8164 31.4541C11.8949 28.7395 10.4743 26.098 10.1576 23.325C9.19292 14.9181 15.9311 7.44206 24.5697 7.09604C26.7534 7.00831 28.2363 6.62818 29.6473 4.59103C32.5701 0.355912 38.2428 -1.00868 43.2244 0.745796C47.7261 2.3297 50.3801 6.46248 50.3801 11.955C50.3849 35.6551 50.3849 59.3552 50.3801 83.0553C50.3801 88.884 47.5677 92.9437 42.5333 94.4496C37.2925 96.0189 31.687 94.089 28.913 89.4737C28.054 88.0507 27.0653 88.0165 25.7743 87.9971C18.4987 87.8752 12.2644 83.3282 10.3831 76.7391C9.02495 71.9874 10.5847 67.8205 13.2051 63.7365L13.2003 63.7316ZM47.9997 41.0842C47.9997 31.0252 48.0237 21.205 47.9901 11.3896C47.9757 7.25199 45.8832 4.23039 42.3269 2.98276C38.3868 1.60354 33.4243 2.61724 31.5718 5.96537C30.0265 8.75792 28.1308 9.62054 25.304 9.39636C24.8337 9.35737 24.349 9.44509 23.869 9.50358C17.798 10.2151 12.802 15.152 12.3316 20.9954C12.0485 24.5044 13.2483 27.7502 15.5615 30.0943C16.5982 31.1422 19.0986 30.7182 20.9367 30.918C21.5702 30.9862 22.2661 31.0886 22.842 30.8887C23.6387 30.6158 24.5457 30.2406 25.0448 29.6119C26.4558 27.8428 28.1548 27.0386 30.3 27.6966C32.3637 28.3301 33.4915 29.9725 33.4627 32.0876C33.4387 34.1833 32.3205 35.7428 30.2424 36.43C28.0012 37.1756 26.4414 36.2155 25.0448 34.5049C24.5745 33.9298 23.7155 33.462 22.9908 33.3791C21.4886 33.2085 19.9528 33.423 18.4411 33.3109C13.6418 32.96 9.93681 35.197 6.80289 38.5061C4.16811 41.2938 2.68994 44.6955 3.20825 48.6675C4.07692 55.3101 8.30026 59.0238 14.1457 61.2266C17.0397 62.3183 17.1069 62.4645 15.2736 64.9451C10.9494 70.7837 11.2038 76.9779 15.9791 81.564C19.1082 84.5758 22.938 85.765 27.1517 85.6772C28.8651 85.6431 29.8825 86.1012 30.6936 87.7777C32.0757 90.6483 34.5378 92.1201 37.9116 92.3784C37.9116 82.0123 37.9356 71.8705 37.8492 61.7237C37.8445 61.0853 37.0334 60.3348 36.4383 59.8377C34.7681 58.4487 34.1154 56.7235 34.7489 54.6619C35.3824 52.5858 36.947 51.4259 39.0683 51.4454C41.1703 51.4649 42.6581 52.6004 43.3588 54.6912C44.0883 56.855 43.1716 58.3707 41.679 59.8425C41.0024 60.5102 40.3833 61.597 40.3545 62.5132C40.2201 67.0554 40.2921 71.6073 40.2921 76.1543C40.2921 81.5055 40.2921 86.8518 40.2921 92.2127C44.9233 91.9446 47.9757 88.499 47.9901 83.5426C48.0285 70.7934 48.0045 58.0393 47.9901 45.2901C47.9901 44.754 47.8605 44.2228 47.7789 43.5941C42.6101 43.5941 37.5757 43.6136 32.5461 43.5843C30.5832 43.5697 30.1417 44.7248 30.1465 46.4159C30.1656 53.887 30.1225 61.3582 30.204 68.8294C30.2136 69.5458 30.7224 70.4718 31.2887 70.9347C33.0116 72.3383 33.9139 73.9222 33.2324 76.2031C32.5893 78.3572 31.0247 79.4683 28.985 79.5122C26.9262 79.5561 25.256 78.4498 24.6369 76.3346C23.9986 74.1708 24.7425 72.4358 26.4846 70.9737C27.1421 70.423 27.7372 69.3703 27.7612 68.5272C27.8908 64.4724 27.8188 60.4079 27.8188 56.3482C27.8188 54.428 27.8188 52.5078 27.8188 50.4122C25.3712 50.4122 23.2211 50.3293 21.0855 50.4658C20.4568 50.5048 19.7033 51.0506 19.3001 51.5916C17.9516 53.3753 16.3198 54.3257 14.1218 53.5898C12.1157 52.9172 10.9878 51.4795 10.9782 49.2279C10.9686 46.9763 12.0821 45.5338 14.0834 44.8369C16.2766 44.0766 17.942 44.9879 19.2617 46.796C19.6025 47.2639 20.1112 47.9072 20.5671 47.9316C22.9332 48.0436 25.3088 47.9852 27.862 47.9852C26.9597 39.2274 33.3763 41.6203 37.9164 41.0745C37.9164 34.6316 37.8876 28.3983 37.9356 22.1602C37.9452 20.5763 37.8301 19.3969 36.2223 18.3881C34.0818 17.043 33.9858 13.8898 35.6416 11.9696C37.3741 9.96169 40.4264 9.82036 42.2454 11.6626C44.1123 13.5584 44.2994 16.5605 42.1542 18.081C40.2921 19.4018 40.2489 20.9321 40.2825 22.8035C40.3401 26.293 40.2969 29.7873 40.2969 33.2817V41.0793H48.0045L47.9997 41.0842ZM42.1398 56.163C40.772 55.0908 39.8841 53.887 39.2122 53.9991C38.3628 54.1405 37.6861 55.3589 36.9326 56.1143C37.6429 56.8209 38.31 58.0149 39.0827 58.0929C39.8457 58.1709 40.724 57.1182 42.1398 56.1679V56.163ZM28.9226 35.1823C29.9449 33.7836 31.1351 32.843 31.0055 32.1559C30.8471 31.3079 29.5945 30.6646 28.8123 29.9335C28.1452 30.6792 26.9981 31.3956 26.9501 32.1802C26.9022 32.96 27.9628 33.8129 28.9226 35.1775V35.1823ZM39.193 11.8867C38.1468 13.2416 37.0382 14.0457 37.0718 14.8011C37.1102 15.6248 38.1996 16.4045 38.8283 17.2038C39.6346 16.4728 40.8536 15.8684 41.1127 14.9766C41.2903 14.3625 40.1529 13.3488 39.193 11.8916V11.8867ZM18.5131 49.1256C17.1165 48.1655 16.1662 47.0202 15.4847 47.1664C14.6497 47.3419 14.0354 48.6041 13.3203 49.3936C14.0738 50.0613 14.808 51.2407 15.5759 51.2602C16.3582 51.2797 17.1693 50.1636 18.5083 49.1256H18.5131ZM31.9942 74.7897C30.612 73.8784 29.7385 72.8452 28.9658 72.9183C28.198 72.9914 27.5309 74.1757 26.8206 74.8774C27.5645 75.6426 28.2411 76.8951 29.0762 77.0218C29.7625 77.1242 30.6456 75.8863 31.9894 74.7946L31.9942 74.7897Z"
        fill="#30294B
"
      />
    </svg>