<svg width="82" height="83" viewBox="0 0 82 83" fill="none" xmlns="http://www.w3.org/2000/svg">
<path d="M0 42.3979C0 41.4681 0 40.5383 0 39.6085C0.0128245 39.5508 0.0320613 39.4931 0.0352674 39.4354C0.0673288 38.9417 0.0833594 38.4479 0.125039 37.9542C0.173131 37.3707 0.224429 36.7839 0.294964 36.2036C0.48092 34.6358 0.753441 33.0841 1.12535 31.5515C2.75086 24.8219 5.85119 18.8553 10.4488 13.6741C14.1711 9.48374 18.5699 6.19424 23.6452 3.80888C27.6753 1.91406 31.9106 0.730998 36.3415 0.250078C37.1013 0.166719 37.8644 0.14107 38.6275 0.0801533C38.8198 0.0641226 39.009 0.0288552 39.2014 0C40.2818 0 41.3623 0 42.4396 0C42.6447 0.0288552 42.8467 0.0641226 43.0519 0.0801533C43.7605 0.137864 44.469 0.176337 45.1744 0.250078C45.9791 0.333438 46.7871 0.403973 47.579 0.554661C48.9191 0.807945 50.2625 1.06444 51.577 1.42032C57.6687 3.05865 63.0999 5.95699 67.8513 10.1057C72.683 14.3218 76.3316 19.3971 78.8099 25.3124C80.1917 28.6115 81.1247 32.0389 81.5992 35.5848C81.7403 36.6461 81.8333 37.7137 81.9198 38.7782C81.9743 39.4739 82 40.176 82 40.875C82 41.6637 81.9647 42.4524 81.9231 43.2411C81.8846 43.9464 81.8301 44.6486 81.7595 45.3507C81.6954 46.008 81.6185 46.6684 81.5223 47.3225C81.0061 50.7338 80.0635 54.0265 78.6849 57.1878C75.4082 64.6933 70.3553 70.7176 63.5391 75.2511C59.6693 77.8256 55.4661 79.6627 50.9582 80.7913C48.9384 81.2979 46.8897 81.6473 44.8153 81.8365C44.0298 81.907 43.2443 81.9968 42.4588 82C41.1315 82.0096 39.8009 81.9808 38.4736 81.9198C37.5726 81.8782 36.6685 81.7788 35.774 81.6698C34.9917 81.5736 34.2094 81.4453 33.4335 81.3011C29.5798 80.5733 25.9087 79.3133 22.4205 77.5178C17.871 75.1741 13.889 72.0931 10.484 68.2746C6.6431 63.9655 3.8185 59.0665 2.02307 53.5809C1.22474 51.141 0.663669 48.6466 0.33985 46.0977C0.262903 45.5046 0.182749 44.9115 0.131451 44.3183C0.0833594 43.7509 0.073741 43.1802 0.0416797 42.6095C0.0384736 42.5389 0.0160307 42.4684 0.00320613 42.3979H0ZM45.3058 33.0103C45.3796 32.7731 45.4501 32.5615 45.5142 32.3467C46.3639 29.3682 47.2039 26.3833 48.0631 23.408C48.4254 22.1544 48.7524 20.8847 49.2269 19.6728C49.8553 18.0762 50.8653 16.7039 52.1413 15.5465C52.7954 14.9502 53.5873 14.7129 54.4722 14.8829C55.1935 15.0207 55.745 15.4407 56.2195 15.9858C56.803 16.6558 57.3833 17.3259 57.9797 17.9832C58.4029 18.4545 58.9351 18.8008 59.5699 18.8072C60.4548 18.8168 60.955 18.432 61.1762 17.5183C61.2531 17.2041 61.2724 16.8739 61.298 16.55C61.3333 16.1172 61.3269 15.694 61.0223 15.3317C60.3618 14.5494 59.6084 13.8954 58.6562 13.4882C57.8258 13.1323 56.9537 12.9624 56.0592 12.9271C55.0845 12.8886 54.1099 12.9047 53.148 13.097C51.266 13.4722 49.6533 14.3699 48.2555 15.6652C47.0724 16.7617 46.0785 18.0152 45.2257 19.3843C44.0875 21.2053 43.2924 23.1771 42.6512 25.213C42.2376 26.5275 41.856 27.8517 41.4585 29.1726C41.1956 30.0511 40.9231 30.9263 40.6634 31.8048C40.6217 31.9459 40.5736 31.994 40.4101 31.9683C39.8714 31.8786 39.3296 31.8144 38.791 31.7407C37.9349 31.6253 37.0757 31.5131 36.2165 31.3944C35.3604 31.279 34.5044 31.1604 33.6483 31.0418C32.7763 30.9231 31.9074 30.8045 31.0353 30.6891C30.1985 30.5769 29.3617 30.4647 28.5057 30.3492C28.3678 31.4393 28.2332 32.5262 28.0953 33.6227C32.0004 34.2383 35.8894 34.8538 39.7817 35.4694C39.336 37.4476 38.9 39.3905 38.4607 41.3334C38.4255 41.4937 38.4287 41.7246 38.3261 41.7887C38.2171 41.8592 38.0087 41.7727 37.842 41.7534C37.8355 41.7534 37.8291 41.7534 37.8227 41.7534C36.63 41.5867 35.4374 41.4264 34.2447 41.2533C33.4303 41.1379 32.6192 41.0096 31.808 40.8878C30.9071 40.7531 30.0062 40.6185 29.102 40.487C28.432 40.3876 27.7587 40.2979 27.0694 40.1985C26.9315 41.218 26.7968 42.228 26.659 43.2635C30.2819 43.8118 33.8984 44.3568 37.5117 44.9019C37.5117 45.2257 37.563 45.5303 37.5021 45.8092C37.1206 47.5822 36.7358 49.3584 36.3094 51.1218C35.6105 54.0201 34.8795 56.912 34.1613 59.8072C33.6227 61.9809 32.7955 64.0136 31.2822 65.7129C30.8302 66.2226 30.33 66.6683 29.6984 66.9504C28.1691 67.6397 26.7552 66.9697 25.9632 65.6648C25.5304 64.9498 25.0719 64.2605 24.4852 63.6641C24.4275 63.6032 24.3442 63.5455 24.264 63.5295C23.8344 63.4397 23.4015 63.3467 22.9655 63.2826C22.5904 63.2281 22.273 63.3467 22.0261 63.6545C21.7023 64.0585 21.5163 64.5138 21.3913 65.0107C21.2438 65.5942 21.3592 66.1104 21.6959 66.5977C22.0454 67.1043 22.5167 67.473 23.0296 67.7904C24.4115 68.6433 25.9248 68.9671 27.5278 68.8485C28.2588 68.794 28.993 68.7074 29.7112 68.5599C32.2569 68.0405 34.3088 66.71 35.9311 64.6901C36.8192 63.584 37.438 62.3304 37.9991 61.0415C39.1148 58.4702 40.0157 55.8187 40.9968 53.1961C41.5899 51.6123 41.9426 49.9643 42.353 48.3324C42.5582 47.5084 42.789 46.6909 43.0038 45.8701C43.0295 45.7675 43.0615 45.7162 43.1802 45.7355C43.4815 45.7868 43.7861 45.8284 44.0907 45.8733C44.9596 46.0016 45.8284 46.1298 46.6973 46.2549C47.4604 46.3639 48.2234 46.4665 48.9865 46.5723C49.9772 46.7133 50.9679 46.8544 51.9586 46.9955C52.7665 47.1141 53.5744 47.2327 54.3824 47.3578C54.4946 47.3738 54.5427 47.3353 54.5683 47.2327C54.6453 46.9378 54.7254 46.6428 54.8024 46.3446C54.9819 45.6649 55.1615 44.9852 55.3474 44.2927C51.4424 43.7444 47.5533 43.1962 43.6643 42.6512C44.0811 40.4357 44.4883 38.262 44.8955 36.085C48.5344 36.6333 52.1381 37.1783 55.761 37.7265C56.0336 36.707 56.3029 35.6906 56.5818 34.6583C52.821 34.11 49.0666 33.565 45.3058 33.0167V33.0103Z" fill="#0192FE"/>
</svg>
