    <svg
      width="107"
      height="93"
      viewBox="0 0 107 93"
      fill="none"
      xmlns="http://www.w3.org/2000/svg"
    >
      <g clipPath="url(#clip0_254_285)">
        <path
          d="M84.8458 59.4815C82.9147 59.4815 80.9918 59.5066 79.0607 59.4815C76.8726 59.4481 76.1184 58.6884 76.0686 56.4511C76.0272 54.723 75.994 52.9865 76.0852 51.2585C76.1598 49.8142 75.7703 48.8374 74.469 48.0026C71.9909 46.4164 71.0129 43.4277 71.7422 40.5142C72.3556 38.0681 74.784 35.9393 77.345 35.6137C80.1713 35.2548 82.8815 36.6155 84.2988 39.12C85.9564 42.0503 84.9535 46.0074 82.0195 48.1278C80.7763 49.0295 79.848 53.045 80.7597 54.2638C81.083 54.6979 81.9449 54.8816 82.5666 54.89C86.0724 54.9484 89.5866 54.915 93.1008 54.915C93.7224 54.915 94.4435 54.7397 94.9408 54.9901C97.4604 56.2674 98.5958 54.5143 99.7313 52.853C103.303 47.6269 103.436 40.7062 100.113 35.6221C96.416 29.962 90.3243 27.5076 83.3954 28.9017C80.3536 29.5111 79.5911 28.9017 79.4999 25.7294C79.2181 15.7031 72.6539 7.59687 62.8076 5.10908C53.8813 2.85504 44.0847 7.19615 39.3687 15.4944C38.0012 17.907 37.3547 18.2159 34.9097 17.164C31.2712 15.5945 27.4918 15.1688 23.5964 15.5361C22.1211 15.678 20.7121 15.5862 20.48 13.7162C20.2314 11.7376 21.6569 11.0781 23.1985 11.1282C26.6133 11.2367 30.0611 11.3369 33.4095 11.938C35.1749 12.2552 36.0783 12.0883 37.1807 10.6356C48.3862 -4.14083 69.9271 -3.40618 79.8812 12.2135C81.7212 15.102 82.6163 18.6584 83.5943 22.006C84.0667 23.6172 84.6469 24.0347 86.2382 23.9929C98.2726 23.6673 107.539 33.0091 106.992 45.0473C106.71 51.2751 103.884 56.3342 98.9108 60.0492C97.6427 60.9926 97.104 61.9693 97.22 63.5137C97.3277 64.8912 97.278 66.2854 97.22 67.6712C97.1205 70.2425 97.1703 72.388 99.7479 74.2831C102.889 76.5872 102.442 81.521 99.4744 84.1674C96.7227 86.6302 92.2554 86.2962 89.8353 83.4495C87.2742 80.4441 87.6803 75.7857 90.9459 73.5484C92.4377 72.5299 92.8439 71.4196 92.7941 69.7666C92.7112 66.995 92.7361 64.2234 92.7941 61.4517C92.819 60.0325 92.2803 59.4314 90.8464 59.4815C88.849 59.5483 86.8515 59.4982 84.8624 59.4982L84.8458 59.4815ZM78.6877 39.7462C78.3727 39.7629 78.0578 39.7795 77.7428 39.7962C77.1627 40.6561 76.193 41.4659 76.0852 42.3842C75.9277 43.7533 77.0052 44.8971 78.3727 44.5798C79.243 44.3795 80.4365 43.169 80.4696 42.3759C80.5028 41.5243 79.3342 40.6311 78.6877 39.7462ZM97.6261 79.3588L97.6013 78.4238C96.731 77.8394 95.9105 76.8877 94.9822 76.7708C93.5566 76.5955 92.504 77.7392 92.8604 79.1167C93.0842 79.9682 94.3026 81.0619 95.1314 81.112C95.927 81.1537 96.789 79.9933 97.6178 79.3672L97.6261 79.3588Z"
          fill="#30294B
"
        />
        <path
          d="M25.2789 59.3563C23.2814 59.3563 21.284 59.4064 19.2948 59.3396C17.7781 59.2895 17.2145 59.949 17.2559 61.4517C17.3222 64.2902 17.3222 67.1369 17.2477 69.9753C17.2062 71.5031 17.6786 72.4965 18.9965 73.4065C22.1045 75.527 22.8256 79.4674 20.9027 82.5896C19.0876 85.5366 15.1508 86.6552 11.993 85.1192C8.9595 83.6499 7.43448 79.7095 8.85176 76.4119C9.37391 75.2097 10.3436 74.0493 11.4045 73.2813C12.5814 72.4297 12.9544 71.5198 12.9212 70.159C12.8549 66.97 12.8218 63.7809 12.9378 60.6002C12.9958 58.9639 12.4488 57.9121 11.1476 56.9437C6.64711 53.5876 3.05005 49.5053 1.06919 44.0956C-1.69077 36.5822 1.05261 24.761 6.89575 19.4264C7.96492 18.4497 9.15842 18.1909 10.2027 19.2344C11.3465 20.3698 10.9487 21.597 9.97895 22.7407C6.59738 26.6978 4.67453 31.2309 4.45904 36.5154C4.16895 43.6365 8.03123 48.4701 13.0124 52.7445C14.6369 54.1386 16.3774 54.9234 18.6318 54.7898C21.6487 54.6145 24.6821 54.7564 27.7156 54.8232C29.0002 54.8482 29.5887 54.4141 29.5804 53.0283C29.5804 50.816 29.6716 48.9543 27.3178 47.3682C24.1517 45.231 24.2843 40.1469 27.0525 37.4504C29.8622 34.7121 34.4207 34.9376 37.0066 37.9262C39.5179 40.8398 39.0538 45.6985 35.838 47.8273C34.3958 48.779 33.9648 49.8226 34.056 51.4171C34.1472 53.0784 34.114 54.7397 34.0726 56.401C34.0146 58.6133 33.2272 59.4147 31.0723 59.4481C29.1494 59.4815 27.2183 59.4481 25.2954 59.4481V59.3313L25.2789 59.3563ZM31.2463 45.0056C31.553 45.0139 31.8597 45.0223 32.1663 45.039C32.7962 44.1958 33.7825 43.4361 33.9731 42.5011C34.2384 41.2238 33.3515 40.2304 31.9591 40.1469C30.4921 40.0634 29.4147 40.9233 29.5804 42.3508C29.6882 43.2858 30.6579 44.1207 31.2463 45.0056ZM17.6786 79.4423C17.6786 79.1334 17.6786 78.8245 17.6786 78.5073C16.8415 77.9062 16.0542 76.9211 15.1425 76.7876C13.7335 76.5705 12.6146 77.6391 12.9544 79.0583C13.1616 79.9265 14.3302 81.0535 15.1508 81.1287C15.9381 81.1955 16.825 80.0517 17.6703 79.4423H17.6786Z"
          fill="#30294B
"
        />
        <path
          d="M61.7799 42.3175C61.7964 44.7886 60.8682 46.8089 58.7547 48.0862C57.5778 48.7958 57.2711 49.7057 57.2794 50.9914C57.3208 59.7153 57.3125 68.4393 57.2794 77.1633C57.2794 78.7244 57.5943 79.8264 59.0779 80.753C61.5809 82.3309 62.4346 85.6034 61.4815 88.5169C60.6029 91.18 58.0668 92.9833 55.1742 93C52.1407 93.0167 49.5465 91.2385 48.6431 88.5336C47.6817 85.6535 48.5354 82.3476 51.0053 80.7614C52.4557 79.8264 52.8121 78.7661 52.8038 77.18C52.7541 68.5896 52.7541 60.0075 52.8038 51.4171C52.8121 49.8309 52.4557 48.7874 51.0218 47.8441C48.3696 46.0993 47.5408 42.3509 48.8586 39.5041C50.2013 36.5989 53.5166 34.9626 56.5749 35.6973C59.6995 36.4403 61.755 39.0616 61.7716 42.3175H61.7799ZM55.0582 89.4937C56.1273 88.0077 57.1551 87.1896 57.2877 86.2546C57.47 84.9021 56.3594 83.7167 55.025 83.9588C54.1548 84.1174 52.9032 85.3613 52.8784 86.146C52.8535 87.0476 54.0056 87.9743 55.0582 89.4937ZM54.5775 45.014C54.8841 45.014 55.1991 45.014 55.5057 45.014C56.119 44.1625 57.1136 43.3777 57.2545 42.4594C57.47 41.0903 56.4837 40.1302 55.025 40.1302C53.6823 40.1302 52.6463 41.0151 52.8287 42.2841C52.9696 43.2608 53.9641 44.1124 54.5775 45.0223V45.014Z"
          fill="#30294B
"
        />
      </g>
      <defs>
        <clipPath id="clip0_254_285">
          <rect width="107" height="93" fill="white" />
        </clipPath>
      </defs>
    </svg>