    <svg
      width="85"
      height="101"
      viewBox="0 0 85 101"
      fill="none"
      xmlns="http://www.w3.org/2000/svg"
    >
      <path
        d="M42.1301 80.0601C38.0301 80.0601 33.9401 80.0601 29.8401 80.0601C28.6201 80.0601 28.3001 79.8001 28.0701 78.6201C27.1701 74.0101 25.3901 69.7501 22.9501 65.7501C20.8901 62.3701 18.6401 59.0801 16.7401 55.6101C13.0001 48.7801 12.1601 41.5001 14.2801 34.0201C16.4201 26.4901 21.1201 20.8601 27.9501 17.0401C32.5101 14.4901 37.4601 13.2701 42.6701 13.3901C55.4001 13.6901 66.2901 21.6001 69.9501 33.6501C72.0401 40.5201 71.6001 47.3701 68.4401 53.8501C66.7201 57.3701 64.5201 60.6601 62.4401 63.9901C59.6101 68.5201 57.3201 73.2501 56.2801 78.5301C56.0201 79.8401 55.7301 80.0801 54.4101 80.0801C50.3101 80.0801 46.2201 80.0801 42.1201 80.0801L42.1301 80.0601ZM49.8001 74.0401C49.8001 75.0301 49.8201 76.0201 49.8001 77.0201C49.7901 77.5701 50.0101 77.8201 50.5701 77.8101C51.3801 77.8001 52.1901 77.7401 52.9901 77.8301C53.9001 77.9301 54.2401 77.5301 54.4601 76.7101C54.8701 75.1201 55.3201 73.5401 55.8701 72.0001C57.5301 67.4201 60.1601 63.3601 62.8101 59.3201C65.3801 55.3901 67.6901 51.3401 68.4701 46.6101C69.5001 40.3701 68.7101 34.4401 65.5001 28.9301C58.6201 17.1101 43.6501 12.2901 31.1901 17.9701C22.7801 21.8001 17.5001 28.2601 15.8301 37.4101C15.0601 41.6401 15.4101 45.8601 16.7301 49.9901C17.9301 53.7601 20.0501 57.0401 22.1901 60.3001C25.3101 65.0601 28.1501 69.9401 29.6501 75.4901C30.3101 77.9301 30.3801 77.8801 33.0101 77.8401C33.8601 77.8301 34.1501 77.5701 34.1301 76.7101C34.0801 74.9101 34.1001 73.1101 34.1201 71.3201C34.1301 70.0201 34.5501 69.6201 35.8701 69.5901C36.0901 69.5901 36.3101 69.5601 36.5201 69.5901C37.2401 69.6901 37.4601 69.3701 37.4001 68.6901C37.2401 66.8401 37.1201 64.9801 36.9501 63.1301C36.9301 62.8901 36.6801 62.5701 36.4601 62.4801C35.1601 61.9301 33.8401 61.4201 32.5201 60.9201C32.2401 60.8101 31.9201 60.7301 31.6201 60.7301C28.0801 60.6801 24.1701 56.8501 24.6501 52.8901C24.6901 52.5601 24.5101 52.0701 24.2501 51.8601C22.0601 50.0501 20.8801 46.1001 22.5901 43.0401C22.7301 42.7901 22.8001 42.3401 22.6801 42.1101C21.1701 39.3001 22.3801 35.2701 25.0101 33.5301C25.9301 32.9201 26.3801 32.3101 26.2001 31.2201C26.1501 30.9401 26.2801 30.6101 26.3801 30.3201C27.0801 28.2001 28.6201 26.9101 30.5801 25.9901C31.3701 25.6201 32.1701 25.1901 32.8301 24.6301C35.2001 22.6401 39.2201 21.9201 41.7301 23.3601C41.9701 23.5001 42.4201 23.5001 42.6601 23.3601C45.2101 21.8601 49.4701 22.6201 51.9001 24.9501C52.2801 25.3101 52.7901 25.5901 53.2901 25.7701C56.3401 26.8401 57.9901 29.0301 58.2101 32.2401C58.2301 32.5601 58.6301 32.9501 58.9501 33.1601C61.8101 34.9601 63.1701 38.8501 61.8601 41.7701C61.6201 42.3101 61.5901 42.6801 61.8601 43.2201C63.3201 46.1601 62.6301 49.5201 60.2001 51.7801C59.9301 52.0301 59.7301 52.5101 59.7501 52.8801C59.9101 56.1801 58.3601 58.6201 55.5201 59.9001C53.2801 60.9101 50.8501 61.5701 48.4901 62.3501C47.8501 62.5601 47.5301 62.8001 47.4801 63.4301C47.3401 65.0301 47.1801 66.6401 47.0501 68.2401C46.9401 69.5601 46.9501 69.5601 48.2701 69.6001C49.4201 69.6301 49.7801 69.9601 49.8201 71.0901C49.8601 72.0801 49.8201 73.0701 49.8201 74.0701L49.8001 74.0401ZM43.2901 42.1201C43.2901 47.2301 43.3001 52.3401 43.2801 57.4601C43.2801 58.2501 43.5501 58.8201 44.1101 59.3301C45.7601 60.8201 48.5501 60.3601 50.0101 59.3301C50.1601 59.2201 50.1501 58.7201 50.0601 58.4501C49.8101 57.7301 49.7301 57.0701 50.5401 56.7101C51.3701 56.3301 51.8001 56.8801 52.1401 57.5301C52.6401 58.4901 52.9601 58.6301 53.9701 58.2101C55.4601 57.5901 56.5601 56.5401 57.2001 55.0401C57.8701 53.4801 57.6301 52.9001 56.0601 52.3401C55.4801 52.1401 55.0801 51.7601 55.2201 51.0801C55.3601 50.3901 55.8401 50.1101 56.5301 50.1901C56.8401 50.2301 57.1401 50.3901 57.4401 50.3601C57.8801 50.3201 58.3901 50.2701 58.7101 50.0201C60.2301 48.8301 60.8001 46.2901 60.0301 44.5201C59.7801 43.9501 59.4101 43.6501 58.7501 43.6701C58.2301 43.6901 57.6501 43.7201 57.2001 43.5101C56.8601 43.3601 56.4601 42.8501 56.4701 42.5101C56.4701 42.1701 56.9001 41.7001 57.2501 41.5501C57.6801 41.3701 58.2201 41.4201 58.7201 41.4301C59.3801 41.4301 59.7601 41.1401 59.9501 40.5301C60.3001 39.3701 60.1201 38.2501 59.6501 37.1801C58.7801 35.2101 57.0901 34.3901 55.0301 34.8901C54.8501 34.9301 54.6701 34.9901 54.4901 35.0401C53.8001 35.2301 53.3001 34.9401 53.0701 34.3301C52.8101 33.6601 53.2201 33.1901 53.8001 32.9201C54.1301 32.7701 54.5201 32.7301 54.8801 32.6301C55.9701 32.3501 56.3501 31.7601 55.8001 30.7901C55.3301 29.9601 54.6601 29.1701 53.9101 28.5701C52.6201 27.5401 52.3901 27.6401 51.4601 29.0001C51.3701 29.1301 51.2701 29.2501 51.1701 29.3601C50.7401 29.8601 50.1101 30.0101 49.7001 29.5801C49.4001 29.2701 49.3401 28.6101 49.3801 28.1301C49.4101 27.7801 49.8601 27.4801 49.9801 27.1101C50.0701 26.8301 50.0301 26.3301 49.8501 26.1901C48.3701 25.0201 46.6501 24.5701 44.7901 24.9001C43.6301 25.1101 43.3101 25.5801 43.3101 26.7601C43.3101 31.8701 43.3101 36.9801 43.3101 42.1001L43.2901 42.1201ZM41.0701 42.1501C41.0701 36.9701 41.0601 31.8001 41.0801 26.6201C41.0801 25.7701 40.7601 25.2901 39.9601 25.0401C38.4501 24.5801 37.0101 24.8301 35.6401 25.5001C33.9501 26.3301 33.9501 26.3801 34.9001 27.9001C34.9501 27.9801 35.0101 28.0501 35.0501 28.1301C35.3201 28.6901 35.3301 29.2501 34.7601 29.6101C34.1901 29.9801 33.6301 29.8801 33.1901 29.3401C32.9401 29.0301 32.7201 28.6801 32.5001 28.3501C32.2201 27.9201 31.9001 27.8201 31.4001 28.0501C30.2401 28.5901 29.2801 29.3301 28.6801 30.4801C28.0501 31.6801 28.3501 32.3301 29.6501 32.6601C29.8901 32.7201 30.1301 32.7901 30.3601 32.8701C31.2301 33.1801 31.6001 33.7201 31.2901 34.3701C30.9701 35.0501 30.4401 35.2401 29.6701 34.9901C29.0101 34.7701 28.2401 34.4901 27.6101 34.6301C25.4001 35.1301 23.7601 38.0801 24.3501 40.2901C24.5601 41.0701 24.9601 41.5601 25.8701 41.4201C26.1401 41.3801 26.4301 41.4201 26.7101 41.4201C27.4201 41.4601 27.9501 41.7901 27.9701 42.5201C27.9901 43.2801 27.4201 43.5701 26.7301 43.6401C26.4201 43.6701 26.1101 43.6801 25.8001 43.6501C24.9301 43.5601 24.5301 44.0101 24.2501 44.7801C23.7201 46.2801 24.0301 47.6601 24.7701 48.9701C25.4801 50.2401 26.0601 50.4701 27.4901 50.2101C27.7301 50.1701 28.0601 50.0701 28.2101 50.1901C28.5701 50.4601 29.0501 50.8001 29.1201 51.1801C29.1701 51.4901 28.7401 51.9301 28.4501 52.2501C28.3301 52.3801 28.0501 52.3901 27.8301 52.4201C27.0201 52.5501 26.8001 53.0401 26.8501 53.8001C26.9601 55.6201 28.9701 57.9301 30.7901 58.3001C31.5001 58.4501 31.9201 58.3001 32.2201 57.5601C32.6601 56.4601 33.7001 56.1601 34.1901 56.9501C34.4301 57.3301 34.2301 57.9801 34.2701 58.5001C34.2901 58.8101 34.2901 59.2701 34.4801 59.3901C35.8301 60.2301 37.3201 60.4701 38.8601 60.0701C40.3601 59.6901 41.0701 58.6501 41.0701 57.0801C41.0701 52.0901 41.0701 47.1001 41.0701 42.1101V42.1501ZM41.9001 77.8101C43.5101 77.8101 45.1201 77.8101 46.7301 77.8101C47.2501 77.8101 47.5501 77.6401 47.5501 77.0701C47.5301 75.5901 47.5301 74.1001 47.5301 72.6201C47.5301 72.0801 47.2801 71.8401 46.7401 71.8401C43.5801 71.8401 40.4201 71.8601 37.2601 71.8401C36.6201 71.8401 36.3801 72.1301 36.3901 72.7501C36.4101 74.1101 36.4201 75.4701 36.3901 76.8301C36.3601 77.6201 36.7001 77.8401 37.4501 77.8201C38.9401 77.7801 40.4201 77.8101 41.9101 77.8101H41.9001ZM42.1701 69.5701C42.7301 69.5701 43.2901 69.5401 43.8401 69.5701C44.4801 69.6101 44.7101 69.3301 44.7601 68.7101C44.9001 66.8601 45.1201 65.0101 45.2301 63.1601C45.2501 62.8401 44.9401 62.4101 44.6601 62.2001C44.0401 61.7501 43.3601 61.3701 42.6701 61.0501C42.4101 60.9301 41.9901 60.9401 41.7201 61.0601C41.1101 61.3401 40.5701 61.8001 39.9501 62.0601C39.3301 62.3201 39.1101 62.6501 39.1901 63.3201C39.3501 64.7701 39.3901 66.2201 39.5501 67.6701C39.7801 69.8401 39.3601 69.5601 41.6201 69.5701C41.8101 69.5701 41.9901 69.5701 42.1801 69.5701H42.1701Z"
        fill="#30294B
"
      />
      <path
        d="M42.1701 85.1602C38.6901 85.1602 35.2201 85.1602 31.7401 85.1602C30.9701 85.1602 30.3601 84.9702 30.3001 84.0902C30.2501 83.4302 30.8401 82.9302 31.7001 82.9302C38.5601 82.9302 45.4201 82.9302 52.2801 82.9502C52.4001 82.9502 52.5301 82.9602 52.6501 82.9802C53.3701 83.0802 54.0701 83.3002 54.0001 84.1902C53.9301 85.0702 53.2401 85.1902 52.5001 85.1902C49.0601 85.1802 45.6101 85.1902 42.1701 85.1902V85.1702V85.1602Z"
        fill="#30294B
"
      />
      <path
        d="M42.1801 90.1903C39.2701 90.1903 36.3501 90.1903 33.4401 90.1903C33.1301 90.1903 32.8201 90.1903 32.5101 90.1603C31.8601 90.1003 31.4501 89.7203 31.4201 89.0903C31.3901 88.4003 31.8501 88.0303 32.5101 87.9403C32.7201 87.9103 32.9401 87.9203 33.1601 87.9203C39.0801 87.9203 45.0001 87.9203 50.9201 87.9403C52.2901 87.9403 52.9101 88.3203 52.9201 89.1003C52.9301 89.8603 52.2801 90.2003 50.9201 90.2003C48.0101 90.2003 45.0901 90.2003 42.1801 90.2003V90.1903Z"
        fill="#30294B
"
      />
      <path
        d="M42.1401 95.1403C39.4101 95.1403 36.6801 95.1403 33.9601 95.1403C33.2601 95.1403 32.7301 94.9304 32.5301 94.2304C32.3401 93.5604 32.8701 92.9503 33.7101 92.9303C34.8601 92.9003 36.0001 92.9203 37.1501 92.9203C41.3401 92.9203 45.5201 92.9203 49.7101 92.9203C49.9901 92.9203 50.2701 92.9203 50.5501 92.9203C51.2501 92.9603 51.8101 93.2903 51.8001 94.0203C51.8001 94.7703 51.3201 95.1604 50.5201 95.1604C47.7301 95.1404 44.9401 95.1604 42.1501 95.1604L42.1401 95.1403Z"
        fill="#30294B
"
      />
      <path
        d="M42.1901 100.06C39.8301 100.06 37.4701 100.06 35.1101 100.06C34.3601 100.06 33.7101 99.9303 33.6201 99.0403C33.5501 98.3103 34.1801 97.8303 35.1601 97.8303C39.8501 97.8503 44.5401 97.8603 49.2201 97.8903C50.2201 97.8903 50.7201 98.2803 50.6901 99.0403C50.6501 99.9503 50.0101 100.13 49.2701 100.13C46.9101 100.13 44.5501 100.13 42.1901 100.13C42.1901 100.1 42.1901 100.08 42.1901 100.05V100.06Z"
        fill="#30294B
"
      />
      <path
        d="M63.9501 6.47034C63.7601 6.93034 63.6801 7.20034 63.5501 7.43034C62.4701 9.33034 61.3801 11.2303 60.2801 13.1203C59.9201 13.7303 59.4801 14.2803 58.6401 13.8603C57.9701 13.5203 57.8401 12.8603 58.3101 12.0203C59.4101 10.0903 60.4901 8.15034 61.6701 6.27034C61.9101 5.89034 62.5601 5.59034 63.0101 5.60034C63.3401 5.60034 63.6601 6.17034 63.9501 6.47034Z"
        fill="#30294B
"
      />
      <path
        d="M26.4401 12.9901C26.1701 13.2901 25.9201 13.8001 25.5601 13.8901C25.2101 13.9801 24.6101 13.7701 24.3801 13.4901C23.8601 12.8501 23.5001 12.0801 23.0801 11.3601C22.3201 10.0501 21.5601 8.74013 20.8101 7.42013C20.3801 6.65013 20.4901 5.97013 21.1301 5.65013C21.8801 5.27013 22.3701 5.68013 22.7301 6.30013C23.8601 8.22013 24.9701 10.1501 26.0801 12.0701C26.2201 12.3101 26.2801 12.5801 26.4401 12.9901Z"
        fill="#30294B
"
      />
      <path
        d="M13.8901 24.9902C13.9101 26.2102 13.0601 26.6602 12.1101 26.1402C10.5601 25.2902 9.04014 24.3902 7.51014 23.5102C7.11014 23.2802 6.69014 23.0602 6.30014 22.8202C5.67014 22.4302 5.22014 21.9402 5.64014 21.1402C5.96014 20.5302 6.65014 20.4102 7.43014 20.8602C9.37014 21.9602 11.3101 23.0702 13.2201 24.2202C13.5501 24.4202 13.7601 24.8302 13.8901 24.9902Z"
        fill="#30294B
"
      />
      <path
        d="M77.9001 64.0402C77.3701 63.8002 76.9601 63.6602 76.5901 63.4502C74.8901 62.4902 73.2101 61.5002 71.5201 60.5302C71.3601 60.4402 71.2101 60.3202 71.0501 60.2202C70.4201 59.8202 70.2401 59.2302 70.6101 58.6202C70.9601 58.0302 71.5701 57.9702 72.1601 58.3102C73.6401 59.1502 75.1201 60.0002 76.5901 60.8502C77.1801 61.1902 77.8401 61.4602 78.3301 61.9102C78.6201 62.1902 78.8001 62.7802 78.7401 63.1902C78.7001 63.5002 78.2001 63.7502 77.9001 64.0402Z"
        fill="#30294B
"
      />
      <path
        d="M43.2701 4.74013C43.2701 5.88013 43.2701 7.03013 43.2701 8.17013C43.2701 8.91013 42.9301 9.40013 42.1901 9.40013C41.4001 9.40013 41.0701 8.87013 41.0701 8.11013C41.0701 5.85013 41.0701 3.60013 41.0701 1.34013C41.0701 0.600132 41.3901 0.0101318 42.1701 0.00013183C42.9601 -0.00986817 43.2901 0.550132 43.2901 1.31013C43.2901 2.45013 43.2901 3.60013 43.2901 4.74013C43.2901 4.74013 43.2901 4.74013 43.2801 4.74013H43.2701Z"
        fill="#30294B
"
      />
      <path
        d="M71.3401 26.4703C71.0801 26.2103 70.5901 25.9203 70.5401 25.5803C70.4901 25.1903 70.7101 24.5503 71.0301 24.3503C72.5901 23.3403 74.2201 22.4503 75.8301 21.5103C76.2601 21.2603 76.6701 20.9703 77.1201 20.7703C77.7301 20.5103 78.3601 20.4703 78.7401 21.1703C79.1201 21.8703 78.7801 22.3703 78.1901 22.7103C76.1901 23.8903 74.1701 25.0503 72.1601 26.2103C71.9801 26.3103 71.7501 26.3403 71.3601 26.4603L71.3401 26.4703Z"
        fill="#30294B
"
      />
      <path
        d="M79.6801 43.3903C78.5901 43.3903 77.5101 43.3903 76.4201 43.3903C75.6601 43.3903 75.0501 43.1403 74.9801 42.2803C74.9201 41.5903 75.4601 41.1603 76.3701 41.1603C78.5701 41.1503 80.7701 41.1503 82.9801 41.1603C83.9301 41.1603 84.3701 41.5403 84.3701 42.2803C84.3701 42.9603 83.8501 43.3703 82.9401 43.3903C81.8501 43.4003 80.7701 43.3903 79.6801 43.3903Z"
        fill="#30294B
"
      />
      <path
        d="M13.9101 59.4202C13.7601 59.6002 13.5501 60.0402 13.1901 60.2502C11.2301 61.4302 9.23011 62.5602 7.24011 63.7002C6.67011 64.0302 6.09011 64.0602 5.70011 63.4302C5.29011 62.7902 5.46011 62.1902 6.08011 61.8202C8.13011 60.6102 10.2001 59.4102 12.2901 58.2702C13.0901 57.8402 13.8901 58.3402 13.9101 59.4202Z"
        fill="#30294B
"
      />
      <path
        d="M4.68013 41.1501C5.80013 41.1501 6.91013 41.1501 8.03013 41.1501C8.78013 41.1501 9.35013 41.4501 9.36013 42.2401C9.38013 43.0501 8.78013 43.3801 8.06013 43.3801C5.80013 43.4001 3.53013 43.4101 1.27013 43.3801C0.550132 43.3801 -0.00986814 43.0201 0.000131857 42.2001C0.000131857 41.4101 0.510132 41.1401 1.24013 41.1501C2.39013 41.1501 3.54013 41.1501 4.68013 41.1501C4.68013 41.1501 4.68013 41.1501 4.68013 41.1401V41.1501Z"
        fill="#30294B
"
      />
      <path
        d="M46.5601 42.4401C46.5901 41.4001 47.2901 40.9301 48.1801 41.2901C49.1301 41.6801 49.5501 41.5901 49.7201 40.4701C49.8701 39.4901 51.0201 38.6601 51.9901 38.7801C52.4501 38.8401 53.0401 39.2201 53.2401 39.6201C53.5201 40.1801 53.1301 40.7201 52.5101 40.8901C51.8301 41.0801 51.7001 41.5201 51.8501 42.0901C52.0701 42.9201 52.3201 43.7501 52.6301 44.5601C52.9001 45.2501 52.9301 45.8701 52.2301 46.2601C51.5001 46.6601 50.9801 46.2401 50.6301 45.6201C49.9801 44.4501 48.9001 43.9001 47.7101 43.4801C47.1201 43.2701 46.5201 43.0301 46.5601 42.4601V42.4401Z"
        fill="#30294B
"
      />
      <path
        d="M51.7601 48.8801C52.8201 49.0601 53.3701 49.4101 53.3801 50.1201C53.3801 51.0101 52.7801 51.2201 52.0301 51.3201C51.3601 51.4001 50.6701 51.5001 50.0301 51.7201C48.4601 52.2501 48.1001 52.7801 48.1201 54.4301C48.1201 55.1601 47.8701 55.6601 47.1201 55.7301C46.3601 55.8001 46.0101 55.3001 45.8901 54.6201C45.5501 52.7701 46.4001 50.9401 48.1201 50.1501C49.2801 49.6201 50.5401 49.3101 51.7601 48.9001V48.8801Z"
        fill="#30294B
"
      />
      <path
        d="M45.1601 32.7202C45.3201 32.2302 45.4101 31.6902 45.6601 31.2502C45.9501 30.7402 46.4301 30.4402 47.0701 30.7002C47.7001 30.9602 47.8501 31.4502 47.7101 32.0702C47.4101 33.4402 47.7301 34.0602 49.0101 34.5602C49.9001 34.9102 50.2701 35.5002 49.9801 36.1702C49.6201 36.9902 48.9201 36.9302 48.2301 36.7202C46.5301 36.1902 45.2101 34.4102 45.1601 32.7302V32.7202Z"
        fill="#30294B
"
      />
      <path
        d="M32.6101 41.6102C32.4201 41.4202 32.2101 41.0602 31.9101 40.9502C31.2501 40.7002 30.9101 40.3101 31.0701 39.6201C31.2401 38.8701 31.8201 38.6902 32.5101 38.7702C33.6501 38.8902 34.5301 39.6701 34.7201 40.8201C34.8401 41.5801 35.1701 41.6902 35.8001 41.3802C35.9901 41.2902 36.2101 41.2302 36.4201 41.2002C37.0401 41.1102 37.5601 41.2801 37.7301 41.9401C37.8901 42.5401 37.6901 43.0902 37.0601 43.2902C35.5401 43.7802 34.2401 44.5001 33.4001 45.9601C33.2501 46.2201 32.4101 46.3801 32.1501 46.2101C31.8201 45.9801 31.5701 45.3401 31.6201 44.9201C31.7001 44.2601 32.0801 43.6501 32.2901 43.0001C32.4201 42.6201 32.4701 42.2201 32.6001 41.6201L32.6101 41.6102Z"
        fill="#30294B
"
      />
      <path
        d="M32.8501 49.0801C34.2101 49.2601 35.8301 49.6101 37.1601 50.7501C38.4201 51.8401 38.6801 53.2501 38.4101 54.8001C38.3001 55.4201 37.8701 55.7601 37.2001 55.7001C36.5301 55.6301 36.2601 55.2101 36.2201 54.5701C36.1101 52.4701 35.6601 51.9501 33.5601 51.5101C33.1401 51.4201 32.7101 51.3301 32.2801 51.2901C31.5101 51.2301 30.9301 50.9601 30.9601 50.0801C30.9801 49.3701 31.5401 49.0401 32.8501 49.0801Z"
        fill="#30294B
"
      />
      <path
        d="M39.1001 32.6602C39.0901 34.6102 37.5301 36.4602 35.8101 36.7802C35.1801 36.9002 34.6001 36.8002 34.3601 36.1102C34.1101 35.3802 34.5001 34.9502 35.1201 34.6402C35.5501 34.4302 36.0201 34.2102 36.3501 33.8802C36.7601 33.4702 37.0101 32.9702 36.7001 32.2902C36.4001 31.6402 36.5201 30.9902 37.3001 30.6902C37.9701 30.4302 38.5601 30.7902 38.8301 31.6102C38.9601 32.0202 39.0401 32.4402 39.0901 32.6502L39.1001 32.6602Z"
        fill="#30294B
"
      />
    </svg>