<svg width="79" height="79" viewBox="0 0 79 79" fill="none" xmlns="http://www.w3.org/2000/svg">
<g clip-path="url(#clip0_555_1018)">
<path d="M34.47 0C37.632 0 40.794 0 43.9561 0C44.4795 0.15838 44.9924 0.380112 45.5265 0.461942C62.714 3.13329 76.0864 16.6933 78.5504 33.9514C78.6271 34.4846 78.8492 34.9967 79.0025 35.5167V43.6733C78.8386 44.1907 78.598 44.6949 78.524 45.2228C75.6978 65.5535 56.8315 80.6181 36.3868 78.8601C14.1814 76.949 -1.92216 57.6847 0.184969 35.559C1.87701 17.8072 15.5773 3.26263 33.2036 0.483059C33.6399 0.414428 34.047 0.166299 34.47 0ZM36.4635 34.1204C37.2355 33.6901 37.7008 33.3337 38.2269 33.1542C41.1853 32.1538 42.0657 30.1213 41.6877 27.1173C41.4762 25.4385 40.987 24.2242 39.4986 23.369C36.2652 21.5107 33.0688 19.589 29.8619 17.6858C28.3707 16.8015 26.8876 16.783 25.3938 17.662C22.0282 19.6444 18.6838 21.6611 15.2918 23.596C13.9196 24.38 13.301 25.4332 13.3195 27.0091C13.3671 30.9105 13.375 34.812 13.3168 38.7134C13.2904 40.4476 13.9857 41.6065 15.4768 42.4538C18.6838 44.2725 21.8854 46.0992 25.021 48.0367C26.7236 49.0873 28.22 49.0556 29.9253 48.042C36.0722 44.386 42.2772 40.8278 48.432 37.185C49.9681 36.277 51.3746 36.2717 52.8737 37.1982C54.4415 38.167 56.0304 39.1014 57.6458 39.9883C59.0205 40.7433 59.6709 41.8731 59.6736 43.412C59.6736 45.4287 59.6736 47.4454 59.6736 49.4621C59.6736 51.0063 58.9888 52.1229 57.6431 52.8937C56.0066 53.8308 54.3886 54.8048 52.7864 55.8C51.4513 56.6288 50.1505 56.6024 48.818 55.8132C47.1577 54.8312 45.5 53.8334 43.808 52.9069C42.3856 52.1255 41.7247 50.9773 41.7696 49.3697C41.8013 48.1634 41.7749 46.9518 41.7749 45.4683C40.9685 45.9302 40.4451 46.3473 39.8502 46.5506C37.0478 47.5088 36.215 49.4304 36.5401 52.2839C36.7358 54.0129 37.2302 55.2667 38.7742 56.1405C42.0578 57.9988 45.3018 59.9284 48.5589 61.8316C50.0078 62.6789 51.4751 62.6921 52.916 61.8606C56.2604 59.9337 59.5784 57.9566 62.9308 56.0402C64.3373 55.2351 64.9586 54.0868 64.9453 52.4819C64.9136 48.5382 64.9057 44.5919 64.9506 40.6456C64.9691 38.9246 64.2738 37.7446 62.7853 36.8999C59.5414 35.0601 56.308 33.1991 53.1222 31.2616C51.5094 30.2796 50.0606 30.2955 48.4479 31.2537C42.1477 34.9941 35.8025 38.6606 29.4944 42.3852C28.0905 43.214 26.7765 43.2035 25.4123 42.3588C23.7335 41.3187 22.0547 40.2787 20.352 39.2809C19.0486 38.518 18.4379 37.4199 18.4511 35.9259C18.4696 33.9092 18.4696 31.8925 18.4511 29.8758C18.4379 28.3764 19.0592 27.2731 20.36 26.5234C22.0705 25.5388 23.7837 24.5568 25.4705 23.5274C26.8638 22.6748 28.1883 22.7407 29.5499 23.596C31.1838 24.6228 32.8282 25.6365 34.5018 26.5999C35.8527 27.3813 36.5031 28.4979 36.4714 30.0526C36.445 31.3117 36.4661 32.5735 36.4661 34.123L36.4635 34.1204Z" fill="#8D42EE"/>
</g>
<defs>
<clipPath id="clip0_555_1018">
<rect width="79" height="79" fill="white"/>
</clipPath>
</defs>
</svg>
