<svg width="64" height="73" viewBox="0 0 64 73" fill="none" xmlns="http://www.w3.org/2000/svg">
<path d="M0.00368227 52.3158C0.0589164 52.2163 0.132562 52.1203 0.165702 52.0137C0.898474 49.8632 2.59232 48.6689 4.93056 48.6653C13.7901 48.6618 22.646 48.6618 31.5055 48.6582C31.5055 55.1239 31.5055 61.5897 31.4982 68.0554C31.4982 71.0981 29.5429 72.9963 26.4056 72.9963C19.3098 72.9963 12.2141 72.9963 5.12204 72.9963C2.54445 72.9963 0.97212 71.9015 0.132562 69.5306C0.106786 69.463 0.0441873 69.4097 0 69.3457C0 63.6691 0 57.9889 0 52.3123L0.00368227 52.3158Z" fill="#FE5500"/>
<path d="M31.5095 24.3381C22.7789 24.3381 14.0445 24.3345 5.31385 24.331C2.51164 24.331 1.0645 23.3464 0.125523 20.8048C0.107112 20.7551 0.0481954 20.7231 0.00769043 20.6804C0.00769043 15.0038 0.00769043 9.32361 0.00769043 3.64698C0.0887004 3.47281 0.188122 3.30219 0.254403 3.1209C0.762556 1.72752 1.74204 0.778449 3.17444 0.255928C3.41747 0.167064 3.66419 0.0853094 3.90722 0C11.802 0 19.7005 0 27.5953 0C27.6063 0.0177728 27.61 0.0497638 27.6247 0.0533184C30.5227 0.995277 31.5022 2.32113 31.5022 5.31051C31.5022 11.6518 31.5058 17.9967 31.5095 24.3381Z" fill="#FE5500"/>
<path d="M31.4982 48.6728V24.3276C40.2767 24.3276 49.0516 24.3312 57.8301 24.3347C61.0668 24.3347 63.0037 26.2009 63.0037 29.3218C63.0037 34.1276 63.0037 38.9333 63.0037 43.7391C63.0037 46.7782 61.0447 48.6657 57.8927 48.6657C49.0958 48.6657 40.2951 48.6693 31.4982 48.6728Z" fill="#FE5500"/>
</svg>
