<svg width="47" height="86" viewBox="0 0 47 86" fill="none" xmlns="http://www.w3.org/2000/svg">
<g clip-path="url(#clip0_555_776)">
<path d="M24.9969 38.3165C26.0553 37.8817 26.8697 36.9971 27.188 35.9168L27.9516 35.3184L28.6781 35.9168C28.2992 37.7556 26.8892 39.2387 25.0535 39.7844L24.9969 38.3183V38.3165Z" fill="#F7B906"/>
<path d="M21.9484 39.7825C20.1127 39.2386 18.7027 37.7555 18.3239 35.9149L19.0504 35.3164L19.8139 35.9149C20.1303 36.9971 20.9466 37.8798 22.0051 38.3145L21.9484 39.7806V39.7825Z" fill="#F7B906"/>
<path d="M21.9465 41.1041V38.7101C21.9465 37.882 22.6417 37.2139 23.501 37.2139C23.9286 37.2139 24.3192 37.3833 24.5985 37.6524C24.8777 37.9215 25.0535 38.2942 25.0535 38.7101V41.1041H21.9465Z" fill="#E7A515"/>
<path d="M16.1562 0L16.7713 0.59849V34.7181L16.1562 35.7043C15.834 35.5838 15.5313 35.4107 15.2618 35.1923L4.06199 26.0607C3.34724 25.4772 2.93518 24.6228 2.93518 23.7213V1.4153C2.93518 0.634249 3.5933 0 4.4057 0H16.1562Z" fill="#31294C"/>
<path d="M44.0629 1.4153V23.7194C44.0629 24.619 43.6508 25.4753 42.936 26.0588L31.7421 35.1905C31.4726 35.4107 31.1699 35.5838 30.8458 35.7024L30.0236 34.9157V1.19698L30.8458 0H42.5962C43.4086 0 44.0648 0.634249 44.0648 1.4153H44.0629Z" fill="#31294C"/>
<path d="M30.8438 0V35.7043C30.4767 35.8435 30.0841 35.915 29.6838 35.915H17.3142C16.9139 35.915 16.5214 35.8435 16.1542 35.7043V0H30.8419H30.8438Z" fill="#FFBE0C"/>
<path d="M16.1562 31.2553V35.7044C15.834 35.584 15.5313 35.4108 15.2618 35.1925L7.32135 28.7183C9.44218 29.4805 12.6625 30.5231 16.1562 31.2571V31.2553Z" fill="#31294C"/>
<path d="M30.8438 30.0298V35.7041C30.4767 35.8434 30.0841 35.9149 29.6838 35.9149H17.3142C16.9139 35.9149 16.5214 35.8434 16.1542 35.7041V31.255C16.3593 31.2964 16.5643 31.3397 16.7694 31.3792C19.0289 31.8234 21.3782 32.1264 23.6025 32.1264C25.8269 32.1264 28.0981 31.4545 30.0216 30.4739C30.3009 30.3347 30.5743 30.1841 30.8438 30.0317V30.0298Z" fill="#FFBE0C"/>
<path d="M44.0629 1.4153V23.7194C44.0629 24.619 43.6508 25.4753 42.9361 26.0588L31.7421 35.1905C31.4726 35.4107 31.1699 35.5838 30.8458 35.7024V30.028C33.3415 28.6014 35.3667 26.7194 36.7122 25.2853C37.8761 24.0393 38.5128 22.4208 38.5128 20.742V6.80924C38.5108 3.12608 35.4741 0.084692 31.6523 0.00376409C31.5254 0.00188204 31.3984 0 31.2656 0H42.5943C43.4067 0 44.0629 0.634249 44.0629 1.4153Z" fill="#31294C"/>
<path d="M10.8697 1.99512H5.39973C5.16343 1.99512 4.97205 2.17956 4.97205 2.40728V8.76483C4.97205 9.20899 5.60478 9.34262 5.79226 8.93421C6.67105 7.02206 8.3271 4.30815 11.0924 2.76299C11.4693 2.5522 11.3052 1.99512 10.8717 1.99512H10.8697Z" fill="#31294C"/>
<path d="M23.499 85.9983C36.4772 85.9983 46.998 75.8591 46.998 63.3517C46.998 50.8443 36.4772 40.7051 23.499 40.7051C10.5209 40.7051 0 50.8443 0 63.3517C0 75.8591 10.5209 85.9983 23.499 85.9983Z" fill="#F8B806"/>
<path d="M46.9981 63.3535C46.9981 75.8596 36.4779 86.0001 23.499 86.0001C16.6405 86.0001 10.4694 83.1695 6.17502 78.6526C10.3542 82.3357 16.8729 84.7561 22.9835 84.7561C35.9623 84.7561 45.8244 75.1256 45.8244 62.6176C45.8244 56.7211 43.188 50.6647 39.3525 46.6353C44.0512 50.7776 46.9981 56.7343 46.9981 63.3535Z" fill="#E7A515"/>
<path d="M23.499 83.9844C35.3231 83.9844 44.9085 74.7468 44.9085 63.3516C44.9085 51.9564 35.3231 42.7188 23.499 42.7188C11.6749 42.7188 2.08957 51.9564 2.08957 63.3516C2.08957 74.7468 11.6749 83.9844 23.499 83.9844Z" fill="#E7A515"/>
<path d="M43.6 63.3519C43.6 74.0325 34.5836 82.7238 23.501 82.7238C20.3568 82.7238 17.3806 82.0256 14.7286 80.7797C11.9614 79.481 9.54959 77.5896 7.66896 75.2766C6.81165 74.2207 6.06369 73.0765 5.44463 71.8607C4.1362 69.2917 3.39996 66.4027 3.39996 63.3519C3.39996 61.0897 3.80421 58.9178 4.54826 56.8965C6.78626 50.8119 12.0942 46.1162 18.6676 44.5484C20.2162 44.1777 21.8371 43.9819 23.501 43.9819C27.2075 43.9819 30.6837 44.9531 33.6677 46.6469C34.9976 47.4035 36.2318 48.3012 37.3449 49.3213C39.4443 51.2466 41.1121 53.6011 42.1959 56.2397C43.102 58.4417 43.6 60.8413 43.6 63.3519Z" fill="#F8B806"/>
<path d="M33.6677 46.6469L5.44463 71.8607C4.1362 69.2917 3.39996 66.4027 3.39996 63.3519C3.39996 61.0897 3.80421 58.9178 4.54826 56.8965L18.6676 44.5484C20.2162 44.1777 21.8371 43.9819 23.501 43.9819C27.2075 43.9819 30.6837 44.9531 33.6677 46.6469Z" fill="#FFC843"/>
<path d="M42.1959 56.2397L14.7286 80.7797C11.9614 79.481 9.5496 77.5896 7.66898 75.2766L37.345 49.3213C39.4443 51.2466 41.1121 53.6011 42.1959 56.2397Z" fill="#FFC843"/>
<path d="M23.087 39.0092C23.3156 39.0092 23.501 38.7859 23.501 38.5105C23.501 38.235 23.3156 38.0117 23.087 38.0117C22.8583 38.0117 22.6729 38.235 22.6729 38.5105C22.6729 38.7859 22.8583 39.0092 23.087 39.0092Z" fill="#F7B906"/>
</g>
<defs>
<clipPath id="clip0_555_776">
<rect width="47" height="86" fill="white"/>
</clipPath>
</defs>
</svg>
